<svg width="24" height="24" viewBox="0 0 24 24" fill="none" xmlns="http://www.w3.org/2000/svg">
<path d="M15.8962 15.1003H15.9462V15.1503V16.0535V16.1035H15.8962H6.02029H5.97028V16.0535V15.1503V15.1003H6.02029H15.8962ZM2.51329 14.1059V14.0914L2.52099 14.0792C2.54414 14.0425 4.83402 10.4141 4.85797 10.3758C4.97055 10.1959 5.01861 10.1208 5.07887 10.0674C5.14564 10.0082 5.25741 9.94661 5.49657 9.82023L10.8156 7.01254C10.8526 6.99289 10.8846 6.97538 10.9125 6.96008L10.9285 6.95128L10.9336 6.94853L10.9576 6.93538L10.9816 6.94853L10.9882 6.95218L11.002 6.95973C11.0306 6.97538 11.0626 6.99294 11.1005 7.01304C11.3276 7.13297 16.666 9.95206 16.7349 9.99467C16.7785 10.0216 16.8107 10.0447 16.8363 10.0675C16.8965 10.1208 16.9446 10.1959 17.0572 10.3757C17.0812 10.4141 19.3711 14.0425 19.3941 14.0791L19.4018 14.0914V14.1058V21.6708V21.7208H19.3518H15.3545H15.3045V21.6708V16.7595V16.7094H15.3545H15.9488C16.2814 16.7094 16.552 16.4388 16.552 16.1062V15.0974C16.552 14.7649 16.2814 14.4942 15.9488 14.4942H5.96748C5.6349 14.4942 5.36424 14.7648 5.36424 15.0974V16.1062C5.36424 16.4388 5.63485 16.7094 5.96748 16.7094H6.56176H6.61177V16.7595V21.6707V21.7207H6.56176H2.5633H2.51329V21.6707V14.1059ZM1.90725 23.4582C1.90725 23.7569 2.15025 24 2.44902 24H23.4381C23.7479 24 24 23.7479 24 23.4382V4.56744C24 2.04896 21.9511 0 19.4328 0C16.9136 0 14.8641 2.04892 14.8641 4.56744V6.61885V6.70187L14.7907 6.66311C14.6565 6.59215 11.5027 4.92507 11.4449 4.89316C11.2336 4.77663 11.0934 4.71347 10.9576 4.71347C10.8218 4.71347 10.6816 4.77663 10.4704 4.89316C10.4125 4.92507 4.32065 8.1437 4.06134 8.28068C3.53102 8.55969 3.46385 8.63171 3.2393 9.00515C3.20239 9.06661 0.271023 13.7144 0.146245 13.9122C0.00431205 14.1368 -0.0359981 14.4023 0.0327176 14.6597C0.105284 14.9314 0.294829 15.1652 0.552688 15.3012C0.711375 15.3852 0.889914 15.4296 1.06901 15.4296C1.34967 15.4296 1.62433 15.32 1.82243 15.1288L1.90715 15.047V15.1647V23.4582H1.90725ZM6.61177 22.3769V23.344V23.394H6.56176H2.5633H2.51329V23.344V22.3769V22.3269H2.5633H6.56176H6.61177V22.3769ZM7.8336 16.7095H14.0828H14.213L14.1163 16.7967L10.9917 19.6136L10.9582 19.6438L10.9247 19.6136L7.80005 16.7967L7.70337 16.7095H7.8336ZM7.21786 23.0158V22.9034V17.2V17.0876L7.30138 17.1628L10.4646 20.0145L10.5057 20.0517L10.4646 20.0889L7.30138 22.9406L7.21786 23.0158ZM14.0828 23.394H7.83365H7.70347L7.80014 23.3068L10.9248 20.4899L10.9583 20.4597L10.9918 20.4899L14.1164 23.3068L14.2131 23.394H14.0828ZM14.6987 17.2V22.9034V23.0158L14.6152 22.9406L11.452 20.0889L11.4108 20.0517L11.452 20.0145L14.6152 17.1628L14.6987 17.0876V17.2ZM19.402 22.3769V23.344V23.394H19.3519H15.3547H15.3047V23.344V22.3769V22.3269H15.3547H19.3519H19.402V22.3769ZM15.4702 6.99179V5.33401V5.284H15.5202H23.344H23.394V5.33401V9.30731V9.35733H23.344H18.9217H18.8939L18.8792 9.33377C18.8724 9.32287 18.7128 9.06651 18.6759 9.00525C18.4514 8.63181 18.3843 8.55979 17.8544 8.28108L15.4968 7.03605L15.4701 7.02194V6.99179H15.4702ZM19.9609 13.8416L19.9602 13.8403C19.9025 13.7488 17.5942 10.0915 17.5708 10.0542C17.3458 9.69465 17.2687 9.60103 16.9633 9.42654C16.9352 9.41109 15.0067 8.39161 13.4572 7.57247C12.1224 6.86676 11.3036 6.43396 11.2929 6.42806C11.1416 6.34514 11.0475 6.31278 10.9577 6.31278C10.9003 6.31278 10.84 6.32664 10.7681 6.35644L10.7629 6.35874C10.6925 6.3931 5.26827 9.2555 5.21345 9.28441C4.66723 9.57317 4.61852 9.61633 4.34436 10.0541C4.321 10.0914 2.01897 13.7388 1.95521 13.8399C1.95426 13.8416 1.95331 13.8433 1.95216 13.845L1.46825 14.6118C1.38668 14.7411 1.23219 14.8215 1.06506 14.8215C0.984187 14.8215 0.904918 14.8021 0.835852 14.7656C0.726627 14.7079 0.64731 14.6124 0.618304 14.5035C0.6008 14.4382 0.593697 14.3387 0.658612 14.2359C0.689219 14.1874 3.72011 9.38153 3.75867 9.31747C3.92821 9.0356 3.93596 9.0315 4.34385 8.8168C5.01451 8.46197 10.8981 5.34946 10.9369 5.33176L10.9576 5.32231L10.9784 5.33176C11.0171 5.34946 16.9007 8.46197 17.5714 8.81685L17.5751 8.8188C17.9793 9.0315 17.9875 9.0363 18.1566 9.31752C18.194 9.37993 18.2407 9.45755 18.2999 9.55132L21.2575 14.2352C21.3221 14.3382 21.3148 14.438 21.2972 14.5036C21.2681 14.6127 21.1891 14.7081 21.0807 14.7655C21.0099 14.8029 20.9296 14.8226 20.8483 14.8226C20.6832 14.8226 20.5295 14.7418 20.4469 14.6118L19.9624 13.844L19.9609 13.8416ZM23.394 19.3708V23.344V23.394H23.344H20.058H20.008V23.344V19.3708V19.3207H20.058H23.344H23.394V19.3708ZM23.394 14.6914V18.6647V18.7147H23.344H20.058H20.008V18.6647V15.1631V15.0455L20.0927 15.127C20.2917 15.3187 20.5675 15.4286 20.8495 15.4286C21.028 15.4286 21.2059 15.3845 21.3638 15.3012C21.6144 15.1686 21.8016 14.9412 21.8775 14.6775L21.8879 14.6413H21.9255H23.344H23.394V14.6914ZM23.3941 10.0134V13.9853V14.0353H23.3441H21.8676H21.8363L21.8226 14.0071C21.8064 13.9734 21.7888 13.9415 21.7704 13.9123L19.3254 10.04L19.2769 9.96331H19.3676H23.3441H23.3941V10.0134ZM23.3941 4.628V4.67801H23.3441H15.5203H15.4703V4.628V4.56744C15.4703 2.38309 17.2479 0.606038 19.4328 0.606038C21.6171 0.606038 23.3941 2.38309 23.3941 4.56744V4.628Z" fill="#02733E"/>
</svg>
