<svg width="100%" height="100%" viewBox="0 0 402 401" fill="none" xmlns="http://www.w3.org/2000/svg">
<g clip-path="url(#clip0)">
<circle cx="200.515" cy="200.515" r="200.515" fill="#77DCF2"/>
<circle cx="200.515" cy="200.515" r="200.515" fill="url(#paint0_radial)"/>
<path d="M100.344 117.427L87.2 69.9477L133.463 87.2406L127.678 94.4664L116.311 89.7298L104.213 100.792L107.987 112.459L100.344 117.427ZM101.782 93.1496L108.917 86.6278L97.6217 81.4417L101.782 93.1496Z" fill="black"/>
<path d="M161.168 70.1337C159.524 73.3305 157.6 76.0246 155.407 78.2268C153.204 80.4191 150.606 82.2324 147.602 83.6593C144.808 84.9924 141.934 85.7397 139.01 85.913C136.075 86.0971 133.186 85.6855 130.351 84.7108C127.495 83.6945 124.976 82.189 122.783 80.1944C120.601 78.2007 118.827 75.7909 117.495 72.9758C116.152 70.1607 115.405 67.2861 115.241 64.3411C115.078 61.4069 115.499 58.507 116.527 55.6197C117.554 52.7857 119.059 50.2983 121.053 48.1367C123.038 45.985 125.437 44.244 128.242 42.91C131.37 41.4226 134.432 40.5498 137.44 40.3043C140.449 40.048 143.558 40.3865 146.779 41.3215L144.904 48.9959C142.297 48.3569 139.908 48.1051 137.767 48.2504C135.616 48.3858 133.546 48.939 131.547 49.8795C127.968 51.5844 125.585 54.2758 124.398 57.9655C123.211 61.6551 123.525 65.4142 125.344 69.2446C127.163 73.0751 129.884 75.6979 133.5 77.1149C137.116 78.5319 140.718 78.3929 144.296 76.688C145.908 75.9235 147.343 74.9704 148.602 73.8287C149.861 72.6861 150.911 71.3972 151.764 69.9504L148.343 62.7616L136.917 68.1859L135.746 60.0476L152.574 52.051L161.168 70.1337Z" fill="black"/>
<path d="M163.724 76.0003L155.305 33.0325L166.993 30.7463C171.132 29.9304 174.679 30.4566 177.619 32.3258C180.56 34.1842 182.408 37.0895 183.184 41.0201C183.667 43.4976 183.557 45.7097 182.833 47.6574C182.119 49.6042 180.823 51.2451 178.956 52.5673L193.98 68.2094L185.964 72.4839L167.94 52.6865L172.08 73.7737L163.724 76.0003ZM165.224 38.7718L167.51 50.449L169.453 50.1295C171.481 49.727 172.96 48.9021 173.898 47.6249C174.847 46.3578 175.128 44.8045 174.777 42.975C174.415 41.1455 173.557 39.8233 172.217 39.0209C170.865 38.2068 169.175 37.9965 167.147 38.4L165.224 38.7718Z" fill="black"/>
<path d="M186.594 47.6854C186.743 44.5635 187.435 41.6807 188.681 39.0155C189.917 36.3502 191.666 33.9865 193.936 31.9341C196.174 29.9241 198.677 28.4358 201.45 27.4782C204.215 26.5106 207.148 26.1063 210.248 26.266C213.359 26.415 216.263 27.0964 218.95 28.332C221.626 29.5676 223.989 31.2842 226.031 33.4819C228.062 35.7212 229.561 38.223 230.528 40.9975C231.506 43.762 231.91 46.7151 231.762 49.8578C231.613 53.0113 230.92 55.9148 229.685 58.5801C228.46 61.2453 226.723 63.5983 224.483 65.6299C222.243 67.63 219.731 69.1083 216.935 70.075C214.14 71.0425 211.187 71.4577 208.076 71.3088C204.986 71.1499 202.103 70.4676 199.438 69.2329C196.772 68.0072 194.419 66.2906 192.388 64.0929C190.325 61.8329 188.816 59.3102 187.838 56.5358C186.85 53.7713 186.445 50.8172 186.594 47.6854ZM195.302 48.1015C195.095 52.3507 196.241 55.95 198.744 58.8969C201.246 61.8347 204.477 63.4033 208.444 63.6019C212.432 63.7896 215.822 62.5396 218.592 59.8491C221.361 57.1595 222.846 53.6901 223.054 49.43C223.252 45.2223 222.094 41.6446 219.572 38.686C217.059 35.7275 213.818 34.1598 209.872 33.9711C205.925 33.7726 202.557 35.0235 199.775 37.7131C196.994 40.4036 195.5 43.8631 195.302 48.1015Z" fill="black"/>
<path d="M255.691 80.2107C254.312 80.4345 252.891 80.4805 251.43 80.3479C249.959 80.2161 248.457 79.9065 246.904 79.4083C244.84 78.7621 242.975 77.8559 241.3 76.6898C239.625 75.5336 238.148 74.1284 236.871 72.4939C234.474 69.4243 232.934 66.0668 232.271 62.4304C231.61 58.7841 231.866 55.0999 233.041 51.3787C233.973 48.4282 235.374 45.8253 237.242 43.568C239.11 41.3215 241.415 39.474 244.156 38.0353C246.814 36.6689 249.544 35.8566 252.363 35.5985C255.183 35.3394 257.99 35.6445 260.783 36.5344C262.128 36.9586 263.379 37.4857 264.534 38.1066C265.701 38.7276 266.772 39.4424 267.75 40.2403L266.216 49.4625C265.115 48.069 263.94 46.9155 262.693 46.0121C261.444 45.1186 260.069 44.4236 258.578 43.9579C255.044 42.8351 251.597 43.2476 248.258 45.1844C244.908 47.1213 242.608 50.0654 241.358 54.006C240.088 58.0196 240.269 61.7679 241.903 65.2518C243.537 68.7465 246.156 71.0543 249.764 72.1987C251.203 72.6536 252.694 72.8278 254.26 72.7204C255.816 72.6022 257.562 72.2032 259.496 71.492L255.691 80.2107Z" fill="black"/>
<path d="M257.474 82.7405L280.187 45.9679L299.854 58.1198L297.162 65.6841L283.365 57.1658L278.889 64.4079L289.69 71.0841L285.489 77.8884L274.688 71.2122L269.096 80.2657L284.58 89.8265L277.765 95.2824L257.474 82.7405Z" fill="black"/>
<path d="M293.588 77.9759C295.887 75.8685 298.418 74.3134 301.17 73.3007C303.922 72.288 306.832 71.8485 309.881 71.9929C312.888 72.1373 315.71 72.8575 318.356 74.131C320.992 75.4045 323.358 77.1799 325.455 79.4687C327.562 81.7675 329.128 84.3091 330.172 87.0709C331.207 89.8445 331.677 92.7236 331.564 95.7201C331.43 98.7373 330.73 101.57 329.467 104.226C328.205 106.872 326.418 109.248 324.098 111.367C321.769 113.495 319.228 115.071 316.475 116.093C313.734 117.117 310.844 117.556 307.816 117.422C304.829 117.256 301.997 116.526 299.34 115.252C296.673 113.969 294.296 112.172 292.188 109.873C290.092 107.584 288.537 105.064 287.513 102.312C286.49 99.5604 286.029 96.6804 286.133 93.6948C286.267 90.6351 286.966 87.783 288.219 85.1259C289.482 82.4806 291.269 80.0933 293.588 77.9759ZM299.459 84.4039C296.319 87.2767 294.588 90.645 294.29 94.4989C293.991 98.3528 295.184 101.74 297.868 104.684C300.562 107.627 303.847 109.128 307.71 109.176C311.572 109.224 315.085 107.811 318.226 104.939C321.336 102.098 323.046 98.7292 323.333 94.8554C323.631 90.9817 322.438 87.5827 319.776 84.6593C317.102 81.7359 313.828 80.2567 309.955 80.198C306.093 80.1393 302.591 81.5419 299.459 84.4039Z" fill="black"/>
<ellipse cx="200.081" cy="200.081" rx="99.8232" ry="99.8232" fill="url(#paint1_radial)"/>
<path d="M166.676 142.664C162.625 143.329 158.148 143.387 153.223 142.995C145.688 142.396 137.578 140.797 128.813 139.069L128.359 138.979L128.325 138.973C110.881 135.534 90.8699 131.59 72.0416 136.679C48.1318 143.141 36.6184 161.182 33.0711 180.841C29.5739 200.222 33.635 221.658 41.0183 236.984C41.9155 238.846 43.7812 240.048 45.8479 240.095L194.214 243.478L197.673 256.87C198.155 258.736 199.579 260.214 201.426 260.765L214.124 264.553C215.863 265.072 217.747 264.699 219.157 263.557C220.544 262.434 221.298 260.711 221.185 258.934C221.189 258.992 221.191 259.025 221.194 259.025C221.207 259.026 221.245 258.622 221.484 257.533C221.72 256.453 222.051 255.126 222.453 253.512C222.518 253.252 222.584 252.985 222.653 252.71C223.506 249.277 224.569 244.913 225.349 240.291C226.63 238.841 227.575 237.336 228.237 235.71C228.474 235.127 228.664 234.553 228.818 233.994C233.974 232.492 237.998 230.315 241.074 227.466C244.882 223.94 246.799 219.788 247.877 215.793C248.702 212.738 249.093 209.477 249.42 206.747C249.498 206.098 249.572 205.479 249.648 204.9C249.914 202.858 250.206 201.175 250.619 199.752C251.817 199.597 253.308 199.292 254.925 198.628C259.961 196.561 264.55 191.763 267.762 182.266C268.55 179.935 269.424 177.561 270.414 175.49C271.029 174.205 271.614 173.196 272.145 172.443L273.36 172.302C277.007 172.459 279.913 172.191 282.193 170.924C283.525 170.184 284.309 169.287 284.702 168.82C284.704 168.818 284.705 168.816 284.707 168.814C286.216 167.702 287.159 166.208 287.727 165.072C288.4 163.724 288.861 162.243 289.124 160.825C289.383 159.423 289.495 157.83 289.283 156.268C289.093 154.871 288.511 152.553 286.511 150.864C286.423 150.789 286.332 150.717 286.238 150.647C283.745 148.798 281.429 146.744 279.634 144.905C278.737 143.986 278.008 143.16 277.469 142.476C277.2 142.135 276.997 141.853 276.852 141.632C276.708 141.413 276.653 141.305 276.649 141.297L276.649 141.296L276.649 141.296C276.401 140.768 276.34 140.333 276.336 139.522C276.336 139.468 276.336 139.386 276.337 139.284C276.34 138.881 276.344 138.161 276.308 137.607C276.257 136.803 276.103 135.586 275.483 134.301C271.051 124.57 259.385 118.626 247.676 120.34L248.473 125.782L247.676 120.34C240.823 121.344 236.944 125.404 234.498 127.964C234.012 128.473 233.583 128.922 233.198 129.276C231.935 130.44 230.681 131.315 228.833 131.881C226.893 132.474 223.92 132.839 219.114 132.305L219.113 132.305C218.744 132.264 217.648 131.924 215.489 130.777C213.784 129.872 211.891 128.732 209.722 127.426C209.323 127.186 208.915 126.94 208.497 126.689C203.433 123.649 196.893 119.8 190.548 118.374L189.343 123.741L190.548 118.374C187.135 117.608 183.379 118.09 180.079 119.199C176.723 120.327 173.325 122.27 170.651 125.007C167.948 127.773 165.835 131.526 165.631 136.08C165.532 138.283 165.888 140.487 166.676 142.664Z" fill="white" stroke="black" stroke-width="11" stroke-miterlimit="22.9256" stroke-linecap="round" stroke-linejoin="round"/>
<path fill-rule="evenodd" clip-rule="evenodd" d="M276.21 131.723L277.192 143.639C278.758 143.88 280.174 143.485 281.326 143.22C284.785 142.422 286.38 141.065 290.307 140.681C291.886 140.46 293.276 140.274 292.208 138.784C288.504 133.615 282.494 132.562 276.21 131.723Z" fill="black"/>
<path fill-rule="evenodd" clip-rule="evenodd" d="M372.323 218.16C358.119 217.468 344.813 220.526 333.441 225.799C333.514 225.493 333.377 225.474 333.243 225.451C311.734 221.917 284.033 232.346 268.759 240.451C242.775 230.037 220.352 254.62 207.524 255.125C221.528 267.399 235.904 278.58 251.717 284.413C244.651 297.237 231.723 303.495 217.737 304.88C188.582 307.769 159.731 286.193 137.325 275.874C155.048 320.908 188.941 333.537 224.451 328.826C309.086 317.597 331.755 245.97 372.323 218.16Z" fill="#62A632"/>
<path d="M213.361 254.613C223.079 254.197 246.382 235.068 268.571 240.058" stroke="black" stroke-width="11" stroke-miterlimit="22.9256" stroke-linecap="round" stroke-linejoin="round"/>
<path fill-rule="evenodd" clip-rule="evenodd" d="M228.111 329.559C303.063 319.349 325.127 260.658 374.172 216.374C333.099 215.652 301.842 280.736 249.598 303.904C217.978 317.927 171.835 312.487 138.556 275.3C147.816 315.997 191.189 334.588 228.111 329.559Z" fill="#62A632"/>
<path fill-rule="evenodd" clip-rule="evenodd" d="M330.541 227.429C301.595 243.498 279.324 272.568 255.374 284.596L238.961 273.747C266.369 264.859 290.787 223.921 330.541 227.429Z" fill="#62A632"/>
<path fill-rule="evenodd" clip-rule="evenodd" d="M228.111 329.559C303.063 319.349 325.127 260.658 374.172 216.374C333.535 215.637 301.987 280.929 249.743 304.098C218.122 318.121 171.649 313.147 138.556 275.3C147.816 315.997 191.189 334.588 228.111 329.559Z" fill="#63B234"/>
<path fill-rule="evenodd" clip-rule="evenodd" d="M228.111 329.559C303.063 319.349 325.127 260.658 374.172 216.374C333.969 215.62 302.133 281.122 249.888 304.292C218.268 318.315 171.463 313.809 138.555 275.3C147.816 315.997 191.189 334.588 228.111 329.559Z" fill="#62B034"/>
<path fill-rule="evenodd" clip-rule="evenodd" d="M228.111 329.559C303.063 319.349 325.127 260.658 374.172 216.374C334.404 215.603 302.278 281.316 250.033 304.485C218.412 318.509 171.278 314.47 138.555 275.3C147.816 315.997 191.189 334.588 228.111 329.559Z" fill="#60AF35"/>
<path fill-rule="evenodd" clip-rule="evenodd" d="M228.111 329.559C303.063 319.349 325.127 260.658 374.172 216.374C334.84 215.588 302.423 281.509 250.177 304.679C218.557 318.702 171.093 315.13 138.555 275.3C147.816 315.997 191.189 334.588 228.111 329.559Z" fill="#5FAE35"/>
<path fill-rule="evenodd" clip-rule="evenodd" d="M228.111 329.559C303.063 319.349 325.127 260.658 374.172 216.374C335.275 215.572 302.568 281.703 250.323 304.872C218.703 318.895 170.908 315.792 138.555 275.3C147.816 315.997 191.189 334.588 228.111 329.559Z" fill="#5EAC36"/>
<path fill-rule="evenodd" clip-rule="evenodd" d="M228.111 329.559C303.063 319.349 325.127 260.658 374.172 216.374C335.71 215.556 302.713 281.897 250.468 305.066C218.847 319.089 170.722 316.452 138.555 275.301C147.816 315.997 191.189 334.588 228.111 329.559Z" fill="#5DAB36"/>
<path fill-rule="evenodd" clip-rule="evenodd" d="M228.111 329.559C303.063 319.349 325.127 260.658 374.172 216.374C336.145 215.539 302.858 282.09 250.613 305.258C218.992 319.281 170.537 317.112 138.556 275.3C147.816 315.997 191.189 334.588 228.111 329.559Z" fill="#5CAA37"/>
<path fill-rule="evenodd" clip-rule="evenodd" d="M228.111 329.559C303.063 319.349 325.127 260.658 374.172 216.374C336.58 215.524 303.003 282.282 250.759 305.452C219.138 319.475 170.351 317.773 138.556 275.3C147.816 315.997 191.189 334.588 228.111 329.559Z" fill="#5AA838"/>
<path fill-rule="evenodd" clip-rule="evenodd" d="M228.111 329.559C303.063 319.349 325.127 260.658 374.172 216.374C337.016 215.508 303.148 282.476 250.904 305.645C219.283 319.668 170.166 318.435 138.555 275.3C147.816 315.997 191.189 334.588 228.111 329.559Z" fill="#59A738"/>
<path fill-rule="evenodd" clip-rule="evenodd" d="M228.111 329.559C303.063 319.349 325.127 260.658 374.172 216.374C337.451 215.49 303.294 282.669 251.048 305.839C219.428 319.862 169.981 319.095 138.555 275.3C147.816 315.997 191.189 334.588 228.111 329.559Z" fill="#58A639"/>
<path fill-rule="evenodd" clip-rule="evenodd" d="M228.111 329.559C303.063 319.349 325.127 260.658 374.172 216.374C337.887 215.475 303.438 282.863 251.193 306.033C219.573 320.056 169.795 319.756 138.555 275.3C147.816 315.997 191.189 334.588 228.111 329.559Z" fill="#57A439"/>
<path fill-rule="evenodd" clip-rule="evenodd" d="M228.111 329.559C303.063 319.349 325.127 260.658 374.172 216.374C338.321 215.459 303.583 283.056 251.338 306.226C219.717 320.249 169.609 320.417 138.555 275.3C147.816 315.997 191.189 334.588 228.111 329.559Z" fill="#56A33A"/>
<path fill-rule="evenodd" clip-rule="evenodd" d="M228.111 329.559C303.063 319.349 325.127 260.658 374.172 216.374C338.757 215.444 303.728 283.25 251.483 306.42C219.863 320.443 169.424 321.077 138.555 275.301C147.816 315.997 191.189 334.588 228.111 329.559Z" fill="#55A23A"/>
<path fill-rule="evenodd" clip-rule="evenodd" d="M228.111 329.559C303.063 319.349 325.127 260.658 374.172 216.374C339.192 215.426 303.873 283.444 251.629 306.612C220.008 320.635 169.239 321.738 138.556 275.3C147.816 315.997 191.189 334.588 228.111 329.559Z" fill="#53A03B"/>
<path fill-rule="evenodd" clip-rule="evenodd" d="M228.111 329.559C303.063 319.349 325.127 260.658 374.172 216.374C339.627 215.411 304.018 283.637 251.774 306.805C220.153 320.829 169.054 322.399 138.556 275.3C147.816 315.997 191.189 334.588 228.111 329.559Z" fill="#529F3C"/>
<path fill-rule="evenodd" clip-rule="evenodd" d="M228.111 329.559C303.063 319.349 325.127 260.658 374.172 216.374C340.062 215.395 304.164 283.83 251.918 306.999C220.298 321.022 168.868 323.06 138.555 275.3C147.816 315.997 191.189 334.588 228.111 329.559Z" fill="#519E3C"/>
<path fill-rule="evenodd" clip-rule="evenodd" d="M228.111 329.559C303.063 319.349 325.127 260.658 374.172 216.374C340.497 215.378 304.309 284.023 252.064 307.192C220.443 321.216 168.683 323.721 138.555 275.3C147.816 315.997 191.189 334.588 228.111 329.559Z" fill="#509C3D"/>
<path fill-rule="evenodd" clip-rule="evenodd" d="M228.111 329.559C303.063 319.349 325.127 260.658 374.172 216.374C340.933 215.362 304.453 284.217 252.208 307.386C220.587 321.409 168.498 324.381 138.555 275.3C147.816 315.997 191.189 334.588 228.111 329.559Z" fill="#4F9B3D"/>
<path fill-rule="evenodd" clip-rule="evenodd" d="M228.111 329.559C303.063 319.349 325.127 260.658 374.172 216.374C341.367 215.346 304.599 284.41 252.354 307.58C220.733 321.603 168.312 325.043 138.555 275.3C147.816 315.997 191.189 334.588 228.111 329.559Z" fill="#4D9A3E"/>
<path fill-rule="evenodd" clip-rule="evenodd" d="M228.111 329.559C303.063 319.349 325.127 260.658 374.172 216.374C341.803 215.331 304.744 284.604 252.499 307.774C220.878 321.797 168.127 325.703 138.555 275.301C147.816 315.997 191.189 334.588 228.111 329.559Z" fill="#4C983E"/>
<path fill-rule="evenodd" clip-rule="evenodd" d="M228.111 329.559C303.063 319.349 325.127 260.658 374.172 216.374C342.238 215.314 304.888 284.797 252.644 307.966C221.023 321.989 167.941 326.363 138.556 275.3C147.816 315.997 191.189 334.588 228.111 329.559Z" fill="#4B973F"/>
<path fill-rule="evenodd" clip-rule="evenodd" d="M330.541 227.429C301.595 243.498 279.324 272.568 255.374 284.596C249.96 281.023 244.545 277.45 239.131 273.877C266.537 264.988 291.012 224.251 330.541 227.429Z" fill="#63B234"/>
<path fill-rule="evenodd" clip-rule="evenodd" d="M330.542 227.429C301.595 243.498 279.324 272.567 255.374 284.596C250.016 281.066 244.658 277.535 239.301 274.006C266.708 265.116 291.238 224.581 330.542 227.429Z" fill="#62B034"/>
<path fill-rule="evenodd" clip-rule="evenodd" d="M330.541 227.429C301.595 243.499 279.324 272.568 255.374 284.597C250.073 281.11 244.771 277.621 239.469 274.135C266.875 265.246 291.464 224.912 330.541 227.429Z" fill="#60AF35"/>
<path fill-rule="evenodd" clip-rule="evenodd" d="M330.541 227.429C301.595 243.498 279.324 272.568 255.374 284.596C250.129 281.152 244.884 277.708 239.639 274.264C267.046 265.375 291.689 225.243 330.541 227.429Z" fill="#5FAE35"/>
<path fill-rule="evenodd" clip-rule="evenodd" d="M330.541 227.429C301.595 243.498 279.324 272.568 255.374 284.596C250.186 281.194 244.997 277.794 239.808 274.393C267.214 265.504 291.915 225.573 330.541 227.429Z" fill="#5EAC36"/>
<path fill-rule="evenodd" clip-rule="evenodd" d="M330.541 227.429C301.595 243.498 279.324 272.567 255.374 284.596C250.241 281.238 245.109 277.88 239.978 274.522C267.384 265.633 292.141 225.903 330.541 227.429Z" fill="#5DAB36"/>
<path fill-rule="evenodd" clip-rule="evenodd" d="M330.542 227.429C301.595 243.498 279.324 272.568 255.374 284.596C250.298 281.281 245.222 277.965 240.146 274.65C267.553 265.762 292.366 226.234 330.542 227.429Z" fill="#5CAA37"/>
<path fill-rule="evenodd" clip-rule="evenodd" d="M330.542 227.429C301.595 243.499 279.324 272.568 255.374 284.597C250.354 281.324 245.335 278.052 240.316 274.78C267.723 265.892 292.592 226.564 330.542 227.429Z" fill="#5AA838"/>
<path fill-rule="evenodd" clip-rule="evenodd" d="M330.541 227.429C301.595 243.498 279.324 272.568 255.374 284.596C250.411 281.367 245.448 278.137 240.485 274.909C267.892 266.02 292.818 226.895 330.541 227.429Z" fill="#59A738"/>
<path fill-rule="evenodd" clip-rule="evenodd" d="M330.541 227.429C301.595 243.498 279.324 272.568 255.374 284.596C250.467 281.41 245.561 278.223 240.655 275.037C268.061 266.149 293.043 227.225 330.541 227.429Z" fill="#58A639"/>
<path fill-rule="evenodd" clip-rule="evenodd" d="M330.541 227.429C301.595 243.498 279.324 272.568 255.374 284.596C250.524 281.453 245.674 278.309 240.823 275.166C268.23 266.277 293.269 227.555 330.541 227.429Z" fill="#57A439"/>
<path fill-rule="evenodd" clip-rule="evenodd" d="M330.541 227.429C301.595 243.498 279.324 272.568 255.374 284.596C250.58 281.495 245.786 278.396 240.993 275.294C268.4 266.406 293.494 227.885 330.541 227.429Z" fill="#56A33A"/>
<path fill-rule="evenodd" clip-rule="evenodd" d="M330.541 227.429C301.595 243.498 279.324 272.567 255.374 284.596C250.637 281.538 245.899 278.481 241.163 275.424C268.569 266.535 293.72 228.216 330.541 227.429Z" fill="#55A23A"/>
<path fill-rule="evenodd" clip-rule="evenodd" d="M330.542 227.429C301.595 243.498 279.324 272.568 255.374 284.596C250.693 281.582 246.012 278.567 241.332 275.553C268.738 266.664 293.946 228.547 330.542 227.429Z" fill="#53A03B"/>
<path fill-rule="evenodd" clip-rule="evenodd" d="M330.541 227.429C301.595 243.499 279.324 272.568 255.374 284.597C250.749 281.625 246.125 278.654 241.501 275.682C268.907 266.793 294.171 228.877 330.541 227.429Z" fill="#529F3C"/>
<path fill-rule="evenodd" clip-rule="evenodd" d="M330.541 227.429C301.595 243.498 279.324 272.568 255.374 284.596C250.806 281.668 246.238 278.739 241.67 275.811C269.077 266.921 294.397 229.207 330.541 227.429Z" fill="#519E3C"/>
<path fill-rule="evenodd" clip-rule="evenodd" d="M330.541 227.429C301.595 243.498 279.324 272.568 255.374 284.596C250.862 281.711 246.351 278.824 241.84 275.94C269.246 267.051 294.623 229.537 330.541 227.429Z" fill="#509C3D"/>
<path fill-rule="evenodd" clip-rule="evenodd" d="M330.541 227.429C301.595 243.498 279.324 272.567 255.374 284.596C250.918 281.754 246.463 278.911 242.008 276.069C269.415 267.18 294.848 229.868 330.541 227.429Z" fill="#4F9B3D"/>
<path fill-rule="evenodd" clip-rule="evenodd" d="M330.541 227.429C301.595 243.499 279.324 272.568 255.374 284.597C250.975 281.796 246.576 278.998 242.178 276.198C269.584 267.31 295.074 230.198 330.541 227.429Z" fill="#4D9A3E"/>
<path fill-rule="evenodd" clip-rule="evenodd" d="M330.541 227.429C301.595 243.498 279.324 272.568 255.374 284.596C251.031 281.84 246.689 279.083 242.347 276.327C269.754 267.438 295.299 230.529 330.541 227.429Z" fill="#4C983E"/>
<path fill-rule="evenodd" clip-rule="evenodd" d="M330.541 227.429C301.595 243.498 279.324 272.568 255.374 284.596L242.516 276.455C269.922 267.567 295.525 230.859 330.541 227.429Z" fill="#4B973F"/>
<path d="M228.299 268.841C255.953 259.872 281.765 219.497 328.636 227.034C328.762 227.053 328.89 227.07 329.017 227.09" stroke="black" stroke-width="11" stroke-miterlimit="22.9256" stroke-linecap="round" stroke-linejoin="round"/>
<path d="M255.373 284.595C290.071 267.167 321.244 213.979 374.171 216.371" stroke="black" stroke-width="11" stroke-miterlimit="22.9256" stroke-linecap="round" stroke-linejoin="round"/>
<path fill-rule="evenodd" clip-rule="evenodd" d="M256.311 283.259C249.007 296.625 235.561 302.983 221.038 304.673C180.54 309.384 160.629 285.444 137.284 274.792C146.546 315.489 191.188 334.588 228.109 329.559C324.854 316.379 350.687 209.655 394.72 206.689C391.749 301.982 318.975 382.97 221.481 393.572C114.788 405.172 18.8923 328.086 7.28995 221.393C6.78362 216.741 6.44607 212.107 6.27368 207.501C70.9487 177.524 113.91 184.404 147.829 203.448C189.833 227.031 217.973 269.265 256.311 283.259Z" fill="#006C3B"/>
<path d="M256.312 283.259C249.008 296.625 235.561 302.983 221.039 304.673C180.54 309.384 160.629 285.443 137.284 274.792C146.546 315.489 191.188 334.588 228.109 329.559C324.854 316.379 350.687 209.655 394.72 206.689C391.749 301.982 318.975 382.97 221.482 393.572C114.788 405.172 18.8923 328.086 7.28995 221.393C6.78362 216.741 6.44607 212.107 6.27368 207.501C70.9487 177.524 113.91 184.404 147.829 203.448C189.833 227.031 217.973 269.265 256.312 283.259Z" stroke="black" stroke-width="13" stroke-miterlimit="22.9256" stroke-linecap="round" stroke-linejoin="round"/>
</g>
<defs>
<radialGradient id="paint0_radial" cx="0" cy="0" r="1" gradientUnits="userSpaceOnUse" gradientTransform="translate(200.515 200.515) rotate(86.6981) scale(192.116)">
<stop stop-color="#C7F0FA"/>
<stop offset="1" stop-color="white" stop-opacity="0"/>
</radialGradient>
<radialGradient id="paint1_radial" cx="0" cy="0" r="1" gradientUnits="userSpaceOnUse" gradientTransform="translate(200.081 200.081) rotate(10.164) scale(100.939)">
<stop offset="0.763032" stop-color="#FFCC00"/>
<stop offset="1" stop-color="#FFEC2C"/>
</radialGradient>
<clipPath id="clip0">
<rect width="401.031" height="401" fill="white"/>
</clipPath>
</defs>
</svg>
