<svg width="100%" height="100%" viewBox="0 0 160 160" fill="none" xmlns="http://www.w3.org/2000/svg">
<g clip-path="url(#clip0)">
<ellipse cx="80" cy="80.0061" rx="80" ry="80.0061" fill="#77DCF2"/>
<ellipse cx="80" cy="80.0061" rx="80" ry="80.0061" fill="url(#paint0_radial)"/>
<path d="M40.0344 46.8538L34.7903 27.9093L53.248 34.8092L50.9398 37.6923L46.4048 35.8024L41.5781 40.2161L43.0836 44.8713L40.0344 46.8538ZM40.608 37.1669L43.4549 34.5647L38.9483 32.4954L40.608 37.1669Z" fill="black"/>
<path d="M64.3014 27.9835C63.6457 29.2591 62.878 30.334 62.0029 31.2127C61.1243 32.0874 60.0876 32.8109 58.8892 33.3803C57.7744 33.9122 56.6278 34.2103 55.4611 34.2795C54.2901 34.353 53.1374 34.1887 52.0064 33.7998C50.8671 33.3943 49.862 32.7936 48.987 31.9978C48.1163 31.2023 47.4087 30.2407 46.8772 29.1175C46.3414 27.9943 46.0433 26.8473 45.9781 25.6723C45.9129 24.5015 46.0811 23.3444 46.4912 22.1924C46.9006 21.0616 47.5013 20.0691 48.2967 19.2067C49.0886 18.3481 50.0457 17.6535 51.1649 17.1212C52.4129 16.5277 53.6347 16.1795 54.8349 16.0815C56.0351 15.9793 57.2756 16.1143 58.5608 16.4874L57.8125 19.5495C56.7726 19.2945 55.8194 19.194 54.9653 19.252C54.1068 19.306 53.2811 19.5268 52.4835 19.902C51.0557 20.5823 50.1051 21.6562 49.6312 23.1284C49.1577 24.6005 49.283 26.1004 50.0086 27.6288C50.7345 29.1571 51.8202 30.2036 53.2628 30.769C54.7053 31.3344 56.1424 31.279 57.5702 30.5987C58.2133 30.2937 58.7859 29.9134 59.2882 29.4578C59.7905 29.0019 60.2093 28.4877 60.5496 27.9104L59.1848 25.042L54.6261 27.2064L54.159 23.9592L60.8726 20.7685L64.3014 27.9835Z" fill="black"/>
<path d="M65.3212 30.3243L61.9622 13.18L66.6254 12.2679C68.2768 11.9423 69.692 12.1523 70.8648 12.8981C72.0383 13.6396 72.7758 14.7988 73.0851 16.3671C73.2778 17.3556 73.2342 18.2383 72.9451 19.0154C72.6602 19.7922 72.1431 20.4469 71.3985 20.9745L77.3926 27.2157L74.1942 28.9213L67.0032 21.022L68.6549 29.4359L65.3212 30.3243ZM65.9196 15.47L66.8318 20.1293L67.607 20.0018C68.4162 19.8412 69.006 19.512 69.3805 19.0025C69.7589 18.4969 69.8713 17.8771 69.7312 17.1471C69.5865 16.4172 69.2444 15.8896 68.7096 15.5694C68.1702 15.2446 67.4961 15.1607 66.687 15.3217L65.9196 15.47Z" fill="black"/>
<path d="M74.4459 19.0266C74.5053 17.7809 74.7815 16.6307 75.2785 15.5673C75.7714 14.5039 76.4693 13.5607 77.3749 12.7418C78.2679 11.9398 79.2665 11.346 80.3731 10.9639C81.476 10.5778 82.6463 10.4165 83.8832 10.4802C85.1245 10.5396 86.2829 10.8115 87.3549 11.3045C88.4226 11.7976 89.3653 12.4825 90.1802 13.3594C90.9904 14.2528 91.5885 15.2511 91.9742 16.3581C92.3645 17.4612 92.5255 18.6395 92.4664 19.8934C92.407 21.1517 92.1308 22.3102 91.6378 23.3736C91.1492 24.437 90.456 25.3759 89.5623 26.1865C88.6689 26.9845 87.6664 27.5744 86.5512 27.9601C85.436 28.3462 84.2577 28.5118 83.0165 28.4524C81.7835 28.389 80.6334 28.1168 79.57 27.6241C78.5067 27.1351 77.5676 26.4501 76.7574 25.5732C75.9345 24.6715 75.3325 23.665 74.9421 22.5579C74.5478 21.4549 74.3865 20.2762 74.4459 19.0266ZM77.9201 19.1926C77.8373 20.8881 78.2946 22.3242 79.2931 23.5C80.2917 24.6722 81.5804 25.2981 83.1634 25.3773C84.7543 25.4522 86.1068 24.9535 87.2119 23.8799C88.3171 22.8068 88.9094 21.4225 88.9922 19.7227C89.0714 18.0438 88.6095 16.6163 87.603 15.4358C86.6005 14.2554 85.3074 13.6298 83.7331 13.5546C82.1584 13.4753 80.8145 13.9745 79.7047 15.0476C78.5953 16.1212 77.999 17.5015 77.9201 19.1926Z" fill="black"/>
<path d="M102.014 32.0042C101.463 32.0936 100.897 32.1119 100.314 32.059C99.7266 32.0064 99.1274 31.8829 98.5077 31.6841C97.6842 31.4263 96.9402 31.0647 96.2719 30.5994C95.6035 30.1381 95.0144 29.5774 94.5049 28.9252C93.5485 27.7004 92.9342 26.3608 92.6695 24.9099C92.4059 23.455 92.5082 21.985 92.977 20.5002C93.3486 19.323 93.9075 18.2844 94.6529 17.3837C95.3983 16.4874 96.318 15.7502 97.4116 15.1762C98.472 14.631 99.561 14.3069 100.686 14.2039C101.811 14.1005 102.931 14.2222 104.045 14.5773C104.582 14.7466 105.081 14.9569 105.542 15.2046C106.007 15.4524 106.435 15.7376 106.825 16.056L106.213 19.7357C105.774 19.1796 105.305 18.7194 104.807 18.3589C104.309 18.0024 103.76 17.7251 103.165 17.5393C101.755 17.0913 100.38 17.2559 99.0478 18.0287C97.7115 18.8015 96.794 19.9762 96.2953 21.5485C95.7883 23.15 95.8606 24.6455 96.5124 26.0356C97.1645 27.43 98.2095 28.3508 99.6488 28.8075C100.223 28.989 100.818 29.0585 101.443 29.0156C102.064 28.9684 102.76 28.8093 103.532 28.5255L102.014 32.0042Z" fill="black"/>
<path d="M102.725 33.0137L111.787 18.3413L119.633 23.19L118.559 26.2081L113.055 22.8093L111.269 25.6989L115.578 28.3627L113.902 31.0777L109.593 28.4139L107.362 32.0262L113.539 35.841L110.82 38.0179L102.725 33.0137Z" fill="black"/>
<path d="M117.133 31.1126C118.051 30.2717 119.06 29.6512 120.158 29.2472C121.256 28.8431 122.417 28.6677 123.634 28.7254C124.834 28.783 125.959 29.0704 127.015 29.5785C128.067 30.0866 129.011 30.795 129.847 31.7082C130.688 32.6255 131.313 33.6396 131.729 34.7415C132.142 35.8482 132.33 36.997 132.285 38.1926C132.231 39.3964 131.952 40.5265 131.448 41.5863C130.944 42.6422 130.231 43.5904 129.306 44.4356C128.377 45.2848 127.363 45.9135 126.265 46.3216C125.171 46.7299 124.018 46.9053 122.81 46.8517C121.618 46.7854 120.488 46.4941 119.428 45.9859C118.364 45.4738 117.416 44.7568 116.575 43.8396C115.738 42.9263 115.118 41.9209 114.71 40.8229C114.301 39.7249 114.118 38.5757 114.159 37.3844C114.212 36.1636 114.491 35.0257 114.991 33.9655C115.495 32.91 116.208 31.9574 117.133 31.1126ZM119.476 33.6774C118.223 34.8236 117.532 36.1676 117.413 37.7053C117.294 39.243 117.77 40.5946 118.841 41.7693C119.916 42.9436 121.226 43.5425 122.767 43.5616C124.308 43.5807 125.71 43.0167 126.963 41.8708C128.204 40.7372 128.886 39.3932 129.001 37.8476C129.12 36.3019 128.644 34.9457 127.582 33.7793C126.515 32.6129 125.209 32.0226 123.663 31.9992C122.123 31.9758 120.725 32.5354 119.476 33.6774Z" fill="black"/>
<ellipse cx="79.8267" cy="79.8328" rx="39.8267" ry="39.8297" fill="url(#paint1_radial)"/>
<path d="M66.689 54.3237C66.6438 55.3324 66.8629 56.3579 67.3479 57.3804L28.9011 55.1221C19.6414 57.6247 15.1767 64.5918 13.7925 72.2639C12.4226 79.856 14.0155 88.2795 16.9126 94.2933C17.1714 94.8305 17.7096 95.1773 18.3059 95.1909L77.9594 96.5511L79.4543 102.34C79.5934 102.878 80.0041 103.304 80.537 103.463L85.6031 104.975C86.1049 105.124 86.6482 105.017 87.0552 104.687C87.4621 104.358 87.6803 103.849 87.6383 103.327C87.6397 103.345 87.6406 103.338 87.6461 103.299C87.657 103.223 87.6859 103.019 87.7721 102.626C87.8687 102.186 88.0031 101.646 88.1633 101.003C88.189 100.9 88.2154 100.794 88.2424 100.685C88.5936 99.2721 89.0289 97.4836 89.3377 95.6014C89.8689 95.027 90.2432 94.444 90.4972 93.8196C90.6284 93.4971 90.7203 93.18 90.7874 92.8747C92.9397 92.293 94.562 91.4317 95.769 90.3137C97.1815 89.0054 97.8995 87.4619 98.3094 85.9434C98.6257 84.7718 98.775 83.5282 98.9056 82.4403C98.9374 82.1755 98.9681 81.9199 98.9998 81.6768C99.1297 80.6814 99.2794 79.8474 99.5335 79.1378C100.025 79.098 100.714 79.0045 101.477 78.691C103.275 77.9528 105.009 76.21 106.254 72.5297C106.571 71.5925 106.929 70.6184 107.34 69.7588C107.649 69.1114 107.956 68.5991 108.249 68.2317L109.041 68.1396C110.499 68.2055 111.528 68.0927 112.292 67.6677C112.727 67.4259 112.983 67.1343 113.124 66.9677C113.145 66.9417 113.163 66.9217 113.175 66.9067C113.699 66.5408 114.038 66.0188 114.251 65.5923C114.491 65.1123 114.659 64.5769 114.755 64.0589C114.85 63.5458 114.888 62.9769 114.814 62.4332C114.746 61.937 114.547 61.1913 113.918 60.6593C113.892 60.6377 113.866 60.6169 113.839 60.5969C112.818 59.8395 111.87 58.9987 111.131 58.242C110.349 57.4407 109.932 56.8652 109.825 56.6357L109.825 56.6356C109.672 56.3099 109.645 56.0347 109.643 55.6727C109.642 55.6403 109.643 55.5976 109.643 55.548C109.644 55.3824 109.645 55.1397 109.633 54.9446C109.615 54.66 109.562 54.2597 109.36 53.8449C107.719 50.2325 103.342 47.9677 98.904 48.6175L99.1339 50.1875L98.904 48.6175C96.4012 48.984 95.0246 50.4149 94.0363 51.442C93.8261 51.6606 93.6334 51.8609 93.4511 52.0287C92.9027 52.534 92.3251 52.942 91.4756 53.202C90.5999 53.47 89.3254 53.6133 87.3532 53.3943L87.353 53.3943C87.0803 53.364 86.5532 53.1763 85.689 52.7173C84.9931 52.3477 84.2212 51.8828 83.3567 51.3622C83.1981 51.2667 83.0364 51.1693 82.8715 51.0703C80.8356 49.8481 78.3096 48.3685 75.8903 47.8248L75.5425 49.3725L75.8902 47.8248C74.6672 47.55 73.2854 47.7184 72.0399 48.1369C70.7784 48.5608 69.5097 49.2895 68.5195 50.303C67.5211 51.3248 66.7624 52.6874 66.689 54.3237ZM98.9318 79.1789C98.925 79.1801 98.9237 79.18 98.9289 79.1793C98.9299 79.1792 98.9308 79.1791 98.9318 79.1789Z" fill="white" stroke="black" stroke-width="3.17333" stroke-miterlimit="22.9256" stroke-linecap="round" stroke-linejoin="round"/>
<path fill-rule="evenodd" clip-rule="evenodd" d="M110.2 52.5578L110.592 57.3124C111.217 57.4086 111.782 57.2509 112.241 57.145C113.621 56.8266 114.257 56.2854 115.824 56.132C116.454 56.0437 117.009 55.9695 116.583 55.3753C115.105 53.3126 112.707 52.8927 110.2 52.5578Z" fill="black"/>
<path fill-rule="evenodd" clip-rule="evenodd" d="M148.547 87.0465C142.879 86.7703 137.571 87.9904 133.034 90.0945C133.063 89.9721 133.008 89.9645 132.955 89.9555C124.373 88.5453 113.321 92.7065 107.227 95.9407C96.8606 91.7853 87.9145 101.594 82.7961 101.796C88.3833 106.693 94.1192 111.154 100.428 113.481C97.6089 118.598 92.4509 121.095 86.8709 121.648C75.2389 122.801 63.7281 114.192 54.7888 110.074C61.86 128.043 75.3822 133.082 89.5497 131.202C123.317 126.722 132.361 98.1425 148.547 87.0465Z" fill="#62A632"/>
<path d="M85.1252 101.591C89.0023 101.425 98.2995 93.7926 107.152 95.7837" stroke="black" stroke-width="3.85333" stroke-miterlimit="22.9256" stroke-linecap="round" stroke-linejoin="round"/>
<path fill-rule="evenodd" clip-rule="evenodd" d="M91.0098 131.495C120.914 127.421 129.717 104.003 149.284 86.3338C132.897 86.0457 120.427 112.014 99.5826 121.259C86.9671 126.854 68.5573 124.683 55.28 109.845C58.9746 126.084 76.2792 133.502 91.0098 131.495Z" fill="#62A632"/>
<path fill-rule="evenodd" clip-rule="evenodd" d="M131.877 90.7449C120.328 97.1565 111.443 108.755 101.887 113.555L95.3389 109.226C106.274 105.679 116.016 89.3451 131.877 90.7449Z" fill="#62A632"/>
<path fill-rule="evenodd" clip-rule="evenodd" d="M91.0098 131.495C120.914 127.421 129.717 104.003 149.284 86.3338C133.071 86.0396 120.485 112.091 99.6406 121.336C87.0247 126.931 68.4832 124.947 55.28 109.845C58.9746 126.084 76.2792 133.502 91.0098 131.495Z" fill="#63B234"/>
<path fill-rule="evenodd" clip-rule="evenodd" d="M91.0098 131.495C120.914 127.421 129.717 104.003 149.284 86.3338C133.244 86.0331 120.542 112.168 99.6982 121.413C87.0827 127.008 68.409 125.211 55.2796 109.845C58.9745 126.084 76.2792 133.502 91.0098 131.495Z" fill="#62B034"/>
<path fill-rule="evenodd" clip-rule="evenodd" d="M91.0098 131.495C120.914 127.421 129.717 104.003 149.284 86.3338C133.418 86.0263 120.6 112.246 99.7561 121.49C87.1403 127.086 68.3352 125.474 55.2796 109.845C58.9745 126.084 76.2792 133.502 91.0098 131.495Z" fill="#60AF35"/>
<path fill-rule="evenodd" clip-rule="evenodd" d="M91.0098 131.495C120.914 127.421 129.717 104.003 149.284 86.3338C133.592 86.0201 120.658 112.323 99.8137 121.568C87.1983 127.163 68.2613 125.738 55.2796 109.845C58.9745 126.084 76.2792 133.502 91.0098 131.495Z" fill="#5FAE35"/>
<path fill-rule="evenodd" clip-rule="evenodd" d="M91.0098 131.495C120.914 127.421 129.717 104.003 149.284 86.3338C133.765 86.0136 120.716 112.4 99.8717 121.645C87.2562 127.24 68.1875 126.002 55.2796 109.845C58.9745 126.083 76.2792 133.502 91.0098 131.495Z" fill="#5EAC36"/>
<path fill-rule="evenodd" clip-rule="evenodd" d="M91.0098 131.495C120.914 127.421 129.717 104.003 149.284 86.3338C133.939 86.0075 120.774 112.477 99.9297 121.722C87.3138 127.317 68.1133 126.265 55.2796 109.846C58.9745 126.084 76.2792 133.502 91.0098 131.495Z" fill="#5DAB36"/>
<path fill-rule="evenodd" clip-rule="evenodd" d="M91.0098 131.495C120.914 127.421 129.717 104.003 149.284 86.3338C134.113 86.0007 120.832 112.555 99.9877 121.799C87.3718 127.394 68.0395 126.529 55.28 109.845C58.9746 126.084 76.2792 133.502 91.0098 131.495Z" fill="#5CAA37"/>
<path fill-rule="evenodd" clip-rule="evenodd" d="M91.0098 131.495C120.914 127.421 129.717 104.003 149.284 86.3338C134.286 85.9946 120.89 112.631 100.046 121.876C87.4298 127.471 67.9653 126.792 55.28 109.845C58.9746 126.084 76.2792 133.502 91.0098 131.495Z" fill="#5AA838"/>
<path fill-rule="evenodd" clip-rule="evenodd" d="M91.0098 131.495C120.914 127.421 129.717 104.003 149.284 86.3338C134.46 85.9881 120.948 112.709 100.104 121.953C87.4878 127.548 67.8915 127.056 55.2796 109.845C58.9745 126.084 76.2792 133.502 91.0098 131.495Z" fill="#59A738"/>
<path fill-rule="evenodd" clip-rule="evenodd" d="M91.0098 131.495C120.914 127.421 129.717 104.003 149.284 86.3338C134.633 85.9812 121.006 112.786 100.161 122.031C87.5454 127.626 67.8177 127.32 55.2796 109.845C58.9745 126.084 76.2792 133.502 91.0098 131.495Z" fill="#58A639"/>
<path fill-rule="evenodd" clip-rule="evenodd" d="M91.0098 131.495C120.914 127.421 129.717 104.003 149.284 86.3338C134.807 85.9751 121.063 112.863 100.219 122.108C87.6034 127.703 67.7435 127.583 55.2796 109.845C58.9745 126.084 76.2792 133.502 91.0098 131.495Z" fill="#57A439"/>
<path fill-rule="evenodd" clip-rule="evenodd" d="M91.0098 131.495C120.914 127.421 129.717 104.003 149.284 86.3338C134.98 85.9686 121.121 112.94 100.277 122.185C87.661 127.78 67.6693 127.847 55.2796 109.845C58.9745 126.084 76.2792 133.502 91.0098 131.495Z" fill="#56A33A"/>
<path fill-rule="evenodd" clip-rule="evenodd" d="M91.0098 131.495C120.914 127.421 129.717 104.003 149.284 86.3338C135.154 85.9625 121.179 113.018 100.335 122.262C87.7189 127.857 67.5955 128.111 55.2796 109.846C58.9745 126.084 76.2792 133.502 91.0098 131.495Z" fill="#55A23A"/>
<path fill-rule="evenodd" clip-rule="evenodd" d="M91.0098 131.495C120.914 127.421 129.717 104.003 149.284 86.3338C135.328 85.9557 121.237 113.095 100.393 122.339C87.7769 127.934 67.5217 128.374 55.28 109.845C58.9746 126.084 76.2792 133.502 91.0098 131.495Z" fill="#53A03B"/>
<path fill-rule="evenodd" clip-rule="evenodd" d="M91.0098 131.495C120.914 127.421 129.717 104.003 149.284 86.3338C135.502 85.9496 121.295 113.172 100.451 122.416C87.8349 128.012 67.4479 128.638 55.28 109.845C58.9746 126.084 76.2792 133.502 91.0098 131.495Z" fill="#529F3C"/>
<path fill-rule="evenodd" clip-rule="evenodd" d="M91.0098 131.495C120.914 127.421 129.717 104.003 149.284 86.3338C135.675 85.9431 121.353 113.249 100.508 122.493C87.8925 128.089 67.3737 128.902 55.2796 109.845C58.9745 126.084 76.2792 133.502 91.0098 131.495Z" fill="#519E3C"/>
<path fill-rule="evenodd" clip-rule="evenodd" d="M91.0098 131.495C120.914 127.421 129.717 104.003 149.284 86.3338C135.849 85.9362 121.411 113.326 100.566 122.571C87.9505 128.166 67.2999 129.165 55.2796 109.845C58.9745 126.084 76.2792 133.502 91.0098 131.495Z" fill="#509C3D"/>
<path fill-rule="evenodd" clip-rule="evenodd" d="M91.0098 131.495C120.914 127.421 129.717 104.003 149.284 86.3338C136.023 85.9301 121.468 113.403 100.624 122.648C88.0081 128.243 67.2261 129.429 55.2796 109.845C58.9745 126.084 76.2792 133.502 91.0098 131.495Z" fill="#4F9B3D"/>
<path fill-rule="evenodd" clip-rule="evenodd" d="M91.0098 131.495C120.914 127.421 129.717 104.003 149.284 86.3338C136.196 85.9236 121.526 113.48 100.682 122.725C88.0661 128.32 67.1519 129.693 55.2796 109.845C58.9745 126.084 76.2792 133.502 91.0098 131.495Z" fill="#4D9A3E"/>
<path fill-rule="evenodd" clip-rule="evenodd" d="M91.0098 131.495C120.914 127.421 129.717 104.003 149.284 86.3338C136.37 85.9175 121.584 113.558 100.74 122.802C88.1241 128.398 67.0781 129.956 55.2796 109.846C58.9745 126.084 76.2792 133.502 91.0098 131.495Z" fill="#4C983E"/>
<path fill-rule="evenodd" clip-rule="evenodd" d="M91.0098 131.495C120.914 127.421 129.717 104.003 149.284 86.3338C136.543 85.9107 121.642 113.635 100.798 122.879C88.182 128.474 67.0039 130.22 55.28 109.845C58.9746 126.084 76.2792 133.502 91.0098 131.495Z" fill="#4B973F"/>
<path fill-rule="evenodd" clip-rule="evenodd" d="M131.877 90.7449C120.328 97.1565 111.443 108.755 101.887 113.555C99.727 112.129 97.5668 110.703 95.4066 109.277C106.341 105.731 116.106 89.4766 131.877 90.7449Z" fill="#63B234"/>
<path fill-rule="evenodd" clip-rule="evenodd" d="M131.877 90.7449C120.328 97.1565 111.443 108.755 101.887 113.555C99.7493 112.146 97.6118 110.737 95.4743 109.329C106.409 105.782 116.196 89.6084 131.877 90.7449Z" fill="#62B034"/>
<path fill-rule="evenodd" clip-rule="evenodd" d="M131.877 90.7449C120.328 97.1569 111.443 108.755 101.887 113.555C99.772 112.163 97.6568 110.772 95.5416 109.38C106.476 105.834 116.286 89.7405 131.877 90.7449Z" fill="#60AF35"/>
<path fill-rule="evenodd" clip-rule="evenodd" d="M131.877 90.7449C120.328 97.1565 111.443 108.755 101.887 113.555C99.7943 112.18 97.7018 110.806 95.6093 109.432C106.544 105.885 116.376 89.8723 131.877 90.7449Z" fill="#5FAE35"/>
<path fill-rule="evenodd" clip-rule="evenodd" d="M131.877 90.7449C120.328 97.1565 111.443 108.755 101.887 113.555C99.817 112.197 97.7468 110.84 95.6766 109.483C106.611 105.937 116.466 90.0042 131.877 90.7449Z" fill="#5EAC36"/>
<path fill-rule="evenodd" clip-rule="evenodd" d="M131.877 90.7449C120.328 97.1565 111.443 108.755 101.887 113.555C99.8393 112.215 97.7918 110.875 95.7443 109.535C106.679 105.988 116.556 90.1359 131.877 90.7449Z" fill="#5DAB36"/>
<path fill-rule="evenodd" clip-rule="evenodd" d="M131.877 90.7449C120.328 97.1565 111.443 108.755 101.887 113.555C99.862 112.232 97.8368 110.909 95.8117 109.586C106.746 106.04 116.646 90.2678 131.877 90.7449Z" fill="#5CAA37"/>
<path fill-rule="evenodd" clip-rule="evenodd" d="M131.877 90.7449C120.328 97.1569 111.443 108.755 101.887 113.555C99.8843 112.249 97.8819 110.943 95.8794 109.638C106.814 106.091 116.736 90.3996 131.877 90.7449Z" fill="#5AA838"/>
<path fill-rule="evenodd" clip-rule="evenodd" d="M131.877 90.7449C120.328 97.1565 111.443 108.755 101.887 113.555C99.907 112.266 97.9269 110.978 95.9467 109.689C106.881 106.143 116.826 90.5317 131.877 90.7449Z" fill="#59A738"/>
<path fill-rule="evenodd" clip-rule="evenodd" d="M131.877 90.7449C120.328 97.1565 111.443 108.755 101.887 113.555C99.9293 112.283 97.9719 111.012 96.0144 109.741C106.949 106.194 116.916 90.6632 131.877 90.7449Z" fill="#58A639"/>
<path fill-rule="evenodd" clip-rule="evenodd" d="M131.877 90.7449C120.328 97.1565 111.443 108.755 101.887 113.555C99.952 112.301 98.0169 111.046 96.0818 109.792C107.016 106.245 117.006 90.795 131.877 90.7449Z" fill="#57A439"/>
<path fill-rule="evenodd" clip-rule="evenodd" d="M131.877 90.7449C120.328 97.1565 111.443 108.755 101.887 113.555C99.9743 112.317 98.0619 111.081 96.1494 109.843C107.084 106.297 117.096 90.9268 131.877 90.7449Z" fill="#56A33A"/>
<path fill-rule="evenodd" clip-rule="evenodd" d="M131.877 90.7449C120.328 97.1565 111.443 108.755 101.887 113.555C99.9971 112.334 98.1069 111.115 96.2172 109.895C107.151 106.348 117.186 91.0586 131.877 90.7449Z" fill="#55A23A"/>
<path fill-rule="evenodd" clip-rule="evenodd" d="M131.877 90.7449C120.328 97.1565 111.443 108.755 101.887 113.555C100.019 112.352 98.1519 111.149 96.2845 109.946C107.219 106.4 117.276 91.1907 131.877 90.7449Z" fill="#53A03B"/>
<path fill-rule="evenodd" clip-rule="evenodd" d="M131.877 90.7449C120.328 97.1568 111.443 108.755 101.887 113.555C100.042 112.369 98.1969 111.184 96.3522 109.998C107.286 106.451 117.366 91.3225 131.877 90.7449Z" fill="#529F3C"/>
<path fill-rule="evenodd" clip-rule="evenodd" d="M131.877 90.7449C120.328 97.1565 111.443 108.755 101.887 113.555C100.064 112.386 98.242 111.218 96.4195 110.049C107.354 106.502 117.456 91.4543 131.877 90.7449Z" fill="#519E3C"/>
<path fill-rule="evenodd" clip-rule="evenodd" d="M131.877 90.7449C120.328 97.1565 111.443 108.755 101.887 113.555C100.087 112.403 98.2869 111.252 96.4872 110.101C107.421 106.554 117.546 91.5858 131.877 90.7449Z" fill="#509C3D"/>
<path fill-rule="evenodd" clip-rule="evenodd" d="M131.877 90.7449C120.328 97.1565 111.443 108.755 101.887 113.555C100.109 112.421 98.332 111.286 96.5545 110.152C107.489 106.605 117.636 91.7179 131.877 90.7449Z" fill="#4F9B3D"/>
<path fill-rule="evenodd" clip-rule="evenodd" d="M131.877 90.7449C120.328 97.1568 111.443 108.755 101.887 113.555C100.132 112.437 98.377 111.321 96.6223 110.204C107.556 106.657 117.726 91.8498 131.877 90.7449Z" fill="#4D9A3E"/>
<path fill-rule="evenodd" clip-rule="evenodd" d="M131.877 90.7449C120.328 97.1565 111.443 108.755 101.887 113.555C100.154 112.455 98.422 111.355 96.6896 110.255C107.624 106.708 117.816 91.9816 131.877 90.7449Z" fill="#4C983E"/>
<path fill-rule="evenodd" clip-rule="evenodd" d="M131.877 90.7449C120.328 97.1565 111.443 108.755 101.887 113.555L96.7573 110.306C107.691 106.76 117.906 92.1134 131.877 90.7449Z" fill="#4B973F"/>
<path d="M91.0851 107.268C102.118 103.689 112.416 87.5798 131.117 90.5872C131.167 90.5947 131.218 90.6016 131.269 90.6095" stroke="black" stroke-width="3.85333" stroke-miterlimit="22.9256" stroke-linecap="round" stroke-linejoin="round"/>
<path d="M101.887 113.554C115.73 106.6 128.167 85.378 149.284 86.3327" stroke="black" stroke-width="3.85333" stroke-miterlimit="22.9256" stroke-linecap="round" stroke-linejoin="round"/>
<path fill-rule="evenodd" clip-rule="evenodd" d="M102.261 113.021C99.3467 118.354 93.9824 120.891 88.1881 121.565C72.0304 123.445 64.0864 113.893 54.7726 109.643C58.4675 125.881 76.2784 133.502 91.0091 131.495C129.607 126.236 139.914 83.6531 157.482 82.4693C156.297 120.492 127.262 152.806 88.3646 157.036C45.7973 161.664 7.53745 130.907 2.90845 88.3364C2.70644 86.48 2.57177 84.6311 2.50299 82.7934C28.3065 70.8324 45.4469 73.5776 58.9796 81.1761C75.7379 90.5857 86.9649 107.437 102.261 113.021Z" fill="#006C3B"/>
<path d="M102.261 113.021C99.3471 118.354 93.9824 120.891 88.1881 121.565C72.0304 123.445 64.0864 113.892 54.7726 109.643C58.4675 125.881 76.2784 133.502 91.0091 131.495C129.607 126.236 139.914 83.6527 157.482 82.4693C156.297 120.492 127.262 152.806 88.3649 157.036C45.7973 161.664 7.53745 130.907 2.90845 88.3364C2.70644 86.48 2.57177 84.6311 2.50299 82.7934C28.3065 70.8324 45.4469 73.5776 58.9796 81.1761C75.7379 90.5857 86.9649 107.437 102.261 113.021Z" stroke="black" stroke-width="4.216" stroke-miterlimit="22.9256" stroke-linecap="round" stroke-linejoin="round"/>
</g>
<defs>
<radialGradient id="paint0_radial" cx="0" cy="0" r="1" gradientUnits="userSpaceOnUse" gradientTransform="translate(80 80.0061) rotate(86.6984) scale(76.6548 76.649)">
<stop stop-color="#C7F0FA"/>
<stop offset="1" stop-color="white" stop-opacity="0"/>
</radialGradient>
<radialGradient id="paint1_radial" cx="0" cy="0" r="1" gradientUnits="userSpaceOnUse" gradientTransform="translate(79.8267 79.8328) rotate(10.1648) scale(40.2721 40.275)">
<stop offset="0.763032" stop-color="#FFCC00"/>
<stop offset="1" stop-color="#FFEC2C"/>
</radialGradient>
<clipPath id="clip0">
<rect width="160" height="160" fill="white"/>
</clipPath>
</defs>
</svg>
