<svg width="32" height="24" viewBox="0 0 32 24" fill="none" xmlns="http://www.w3.org/2000/svg">
<path d="M0 0H32V24H0V0Z" fill="#000066"/>
<path d="M0 0V1.4L15.35 12.5H17.285V11.1L1.935 0H0ZM17.285 0V1.4L1.935 12.5H0V11.1L15.35 0H17.285Z" fill="white"/>
<path d="M7.2 0V12.5H10.08V0H7.2ZM0 4.165V8.335H17.285V4.165H0Z" fill="white"/>
<path d="M0 5V7.5H17.285V5H0ZM7.78 0V12.5H9.5V0H7.775H7.78ZM0 12.5L5.76 8.335H7.05L1.29 12.5H0ZM0 0L5.76 4.165H4.475L0 0.93V0ZM10.235 4.165L15.995 0H17.285L11.525 4.165H10.235ZM17.285 12.5L11.525 8.335H12.81L17.285 11.57V12.5Z" fill="#CC0000"/>
<path fill-rule="evenodd" clip-rule="evenodd" d="M14.99 19.6252L12.805 19.8152L13.105 21.9852L11.6 20.4002L10.095 21.9852L10.395 19.8152L8.20996 19.6252L10.095 18.5102L8.87996 16.6852L10.93 17.4602L11.6 15.3752L12.275 17.4602L14.325 16.6852L13.11 18.5102L14.99 19.6252ZM24.33 21.6252L23.8 20.8352L24.69 21.1702L24.98 20.2652L25.27 21.1702L26.16 20.8352L25.635 21.6252L26.455 22.1102L25.505 22.1952L25.635 23.1402L24.985 22.4452L24.325 23.1402L24.455 22.1952L23.505 22.1152L24.33 21.6252ZM24.325 7.52016L23.8 6.73016L24.69 7.06516L24.98 6.16016L25.27 7.06516L26.16 6.73016L25.635 7.52016L26.455 8.01016L25.505 8.09016L25.635 9.03516L24.985 8.34516L24.325 9.03016L24.455 8.09016L23.505 8.01016L24.325 7.52016ZM19.04 13.2502L18.515 12.4602L19.405 12.7952L19.695 11.8902L19.99 12.7952L20.88 12.4602L20.35 13.2502L21.17 13.7352L20.22 13.8202L20.355 14.7652L19.695 14.0702L19.045 14.7652L19.17 13.8202L18.22 13.7402L19.04 13.2502ZM29.035 11.8402L28.5 11.0502L29.39 11.3852L29.68 10.4802L29.975 11.3852L30.865 11.0502L30.34 11.8402L31.155 12.3252L30.205 12.4102L30.335 13.3502L29.685 12.6602L29.025 13.3502L29.155 12.4102L28.205 12.3252L29.035 11.8402ZM27.1 16.0002L26.585 16.3252L26.73 15.7302L26.265 15.3402L26.87 15.2902L27.1 14.7302L27.335 15.2952L27.94 15.3402L27.475 15.7302L27.62 16.3252" fill="white"/>
</svg>
