<svg width="32" height="24" viewBox="0 0 32 24" fill="none" xmlns="http://www.w3.org/2000/svg">
<path fill-rule="evenodd" clip-rule="evenodd" d="M0 0H32V24H0V0Z" fill="#229E45"/>
<path fill-rule="evenodd" clip-rule="evenodd" d="M16.07 21.8002L31.145 12.0152L15.98 2.2002L0.85498 12.0352L16.07 21.8002Z" fill="#F8E509"/>
<path fill-rule="evenodd" clip-rule="evenodd" d="M22.6399 12C22.6399 15.515 19.7849 18.365 16.2599 18.365C15.0003 18.363 13.7695 17.9876 12.7231 17.2862C11.6768 16.5849 10.8619 15.589 10.3814 14.4246C9.901 13.2602 9.77657 11.9794 10.0239 10.7443C10.2712 9.50918 10.8792 8.37509 11.7709 7.48543C12.6627 6.59577 13.7982 5.99048 15.0339 5.74606C16.2696 5.50165 17.5501 5.62909 18.7134 6.11228C19.8767 6.59547 20.8706 7.41271 21.5695 8.46069C22.2684 9.50867 22.6409 10.7403 22.6399 12Z" fill="#2B49A3"/>
<path fill-rule="evenodd" clip-rule="evenodd" d="M14.1651 15.8151L13.9651 15.7001L13.7651 15.8001L13.8101 15.5751L13.6501 15.4051L13.8751 15.3801L13.9851 15.1801L14.0801 15.3901L14.3001 15.4301L14.1351 15.5801L14.1651 15.8151ZM18.4351 16.8951L18.2401 16.7801L18.0401 16.8801L18.0801 16.6551L17.9251 16.4901L18.1501 16.4651L18.2551 16.2601L18.3551 16.4701L18.5751 16.5101L18.4051 16.6651L18.4351 16.8951ZM16.5951 15.1651L16.4251 15.0651L16.2501 15.1551L16.2901 14.9601L16.1501 14.8151L16.3501 14.7951L16.4401 14.6151L16.5201 14.8001L16.7151 14.8351L16.5651 14.9701L16.5951 15.1651ZM20.9151 14.5451L20.7451 14.4451L20.5701 14.5351L20.6101 14.3401L20.4751 14.2001L20.6701 14.1801L20.7601 14.0051L20.8401 14.1851L21.0301 14.2201L20.8851 14.3501L20.9151 14.5451ZM16.5201 13.2501L16.3201 13.1401L16.1201 13.2401L16.1601 13.0101L16.0051 12.8451L16.2301 12.8201L16.3351 12.6151L16.4351 12.8251L16.6551 12.8651L16.4851 13.0251L16.5201 13.2501ZM11.2551 11.2751L11.0551 11.1651L10.8551 11.2651L10.9051 11.0351L10.7401 10.8701L10.9701 10.8451L11.0701 10.6401L11.1701 10.8501L11.3901 10.8901L11.2251 11.0451L11.2551 11.2751ZM11.8901 13.9051L11.6901 13.7901L11.4901 13.8901L11.5351 13.6651L11.3751 13.5001L11.6001 13.4701L11.7051 13.2701L11.8051 13.4801L12.0251 13.5201L11.8601 13.6751L11.8901 13.9051ZM18.4601 10.3101L18.2801 10.2101L18.1001 10.3001L18.1401 10.1001L18.0001 9.95012L18.2001 9.92512L18.2951 9.74512L18.3801 9.93512L18.5801 9.97012L18.4301 10.1051L18.4601 10.3101ZM18.0951 12.0201L17.9601 11.9401L17.8151 12.0101L17.8451 11.8501L17.7351 11.7351L17.8951 11.7151L17.9701 11.5751L18.0351 11.7251L18.1851 11.7501L18.0751 11.8601L18.0951 12.0201ZM10.9651 14.3801L10.8301 14.3051L10.6951 14.3701L10.7251 14.2201L10.6201 14.1101L10.7701 14.0901L10.8401 13.9551L10.9051 14.0951L11.0551 14.1251L10.9401 14.2251L10.9651 14.3801ZM20.9501 14.9901L20.8401 14.9351L20.7301 14.9851L20.7551 14.8701L20.6701 14.7901L20.7901 14.7751L20.8501 14.6751L20.9001 14.7751L21.0251 14.8001L20.9301 14.8751" fill="#FFFFEF"/>
<path fill-rule="evenodd" clip-rule="evenodd" d="M10.9651 14.3801L10.8301 14.3051L10.6951 14.3701L10.7251 14.2201L10.6201 14.1101L10.7701 14.0901L10.8401 13.9551L10.9051 14.0951L11.0551 14.1251L10.9401 14.2251" fill="#FFFFEF"/>
<path fill-rule="evenodd" clip-rule="evenodd" d="M10.9651 14.3801L10.8301 14.3051L10.6951 14.3701L10.7251 14.2201L10.6201 14.1101L10.7701 14.0901L10.8401 13.9551L10.9051 14.0951L11.0551 14.1251L10.9401 14.2251L10.9651 14.3801ZM13.0551 14.3751L12.9251 14.3051L12.7901 14.3701L12.8201 14.2201L12.7151 14.1101L12.8651 14.0901L12.9351 13.9551L13.0001 14.0951L13.1501 14.1201L13.0351 14.2251L13.0551 14.3751ZM12.7951 15.0751L12.6651 15.0001L12.5301 15.0701L12.5601 14.9201L12.4551 14.8051L12.6051 14.7851L12.6751 14.6501L12.7401 14.7901L12.8901 14.8201L12.7751 14.9201L12.7951 15.0751ZM17.1451 13.8101L17.0151 13.7301L16.8751 13.8001L16.9051 13.6501L16.8051 13.5351L16.9551 13.5201L17.0251 13.3851L17.0851 13.5251L17.2351 13.5501L17.1251 13.6551L17.1451 13.8101ZM15.8701 13.8051L15.7351 13.7301L15.6001 13.8001L15.6301 13.6501L15.5301 13.5351L15.6801 13.5201L15.7501 13.3801L15.8101 13.5251L15.9601 13.5501L15.8501 13.6551L15.8701 13.8051ZM12.4101 13.3651L12.3251 13.3151L12.2401 13.3551L12.2601 13.2601L12.1951 13.1901L12.2901 13.1801L12.3301 13.0951L12.3701 13.1851L12.4651 13.2001L12.3951 13.2651L12.4101 13.3651ZM20.7851 15.5351L20.6551 15.4601L20.5201 15.5301L20.5501 15.3801L20.4451 15.2651L20.5951 15.2451L20.6651 15.1101L20.7301 15.2501L20.8801 15.2801L20.7651 15.3801L20.7851 15.5351ZM19.7251 15.6801L19.6151 15.6101L19.5001 15.6701L19.5251 15.5401L19.4401 15.4501L19.5651 15.4351L19.6251 15.3201L19.6751 15.4401L19.8001 15.4601L19.7051 15.5501L19.7251 15.6801ZM20.2251 15.6651L20.1251 15.6051L20.0201 15.6551L20.0401 15.5401L19.9601 15.4551L20.0751 15.4401L20.1301 15.3401L20.1801 15.4401L20.2951 15.4651L20.2101 15.5451L20.2251 15.6651ZM21.6651 14.4051L21.5651 14.3551L21.4651 14.4051L21.4901 14.2901L21.4101 14.2051L21.5251 14.1901L21.5751 14.0901L21.6251 14.1951L21.7301 14.2151L21.6501 14.2951L21.6651 14.4051ZM19.7101 16.3851L19.5851 16.3151L19.4501 16.3751L19.4801 16.2351L19.3801 16.1351L19.5301 16.1201L19.5951 15.9951L19.6551 16.1251L19.8051 16.1501L19.6901 16.2451L19.7101 16.3851ZM19.7201 16.9551L19.6001 16.8851L19.4801 16.9501L19.5101 16.8101L19.4151 16.7101L19.5501 16.6901L19.6101 16.5651L19.6651 16.6951L19.8001 16.7201L19.7001 16.8201L19.7201 16.9551ZM18.7501 15.6651L18.6551 15.6051L18.5551 15.6551L18.5751 15.5451L18.5001 15.4601L18.6101 15.4501L18.6601 15.3501L18.7101 15.4501L18.8201 15.4701L18.7401 15.5501L18.7501 15.6651ZM17.8501 15.6651L17.7501 15.6051L17.6501 15.6551L17.6751 15.5451L17.5951 15.4601L17.7101 15.4501L17.7601 15.3501L17.8101 15.4501L17.9151 15.4701L17.8351 15.5501L17.8501 15.6651ZM16.3151 14.3201L16.2151 14.2651L16.1151 14.3151L16.1401 14.2001L16.0601 14.1201L16.1701 14.1051L16.2201 14.0051L16.2701 14.1051L16.3801 14.1301L16.3001 14.2051L16.3151 14.3201ZM16.4851 17.0551L16.4051 17.0101L16.3151 17.0551L16.3351 16.9551L16.2701 16.8851L16.3651 16.8751L16.4101 16.7901L16.4501 16.8801L16.5451 16.8951L16.4751 16.9601L16.4851 17.0551ZM14.1651 12.6301L13.9651 12.5151L13.7651 12.6151L13.8101 12.3901L13.6501 12.2251L13.8751 12.1951L13.9851 11.9951L14.0801 12.2051L14.3001 12.2451L14.1351 12.4001" fill="#FFFFEF"/>
<path fill-rule="evenodd" clip-rule="evenodd" d="M22.2199 14.2899C22.3438 13.9685 22.4408 13.6374 22.5099 13.2999C19.1199 10.3249 15.3449 8.79991 10.5749 9.11491C10.4019 9.44966 10.2596 9.79943 10.1499 10.1599C15.7999 9.61991 19.9499 12.1199 22.2199 14.2899Z" fill="white"/>
<path d="M20.6997 12.6203L20.8147 12.6853C20.7975 12.7192 20.7922 12.758 20.7997 12.7953C20.8114 12.8315 20.8364 12.8619 20.8697 12.8803C20.9047 12.9053 20.9397 12.9203 20.9697 12.9153C20.9997 12.9153 21.0197 12.9003 21.0347 12.8803C21.0434 12.867 21.0469 12.851 21.0447 12.8353C21.0406 12.8168 21.032 12.7996 21.0197 12.7853C21.0097 12.7703 20.9847 12.7353 20.9447 12.6953C20.9036 12.6529 20.8728 12.6015 20.8547 12.5453C20.8422 12.5027 20.8454 12.4571 20.8638 12.4167C20.8821 12.3763 20.9144 12.3439 20.9547 12.3253C20.991 12.3101 21.0312 12.3066 21.0697 12.3153C21.1167 12.3261 21.1609 12.3465 21.1997 12.3753C21.2697 12.4253 21.3147 12.4753 21.3297 12.5353C21.3366 12.5634 21.3375 12.5926 21.3323 12.621C21.3271 12.6494 21.316 12.6765 21.2997 12.7003L21.1797 12.6253C21.1947 12.5953 21.1997 12.5653 21.1897 12.5403C21.1847 12.5153 21.1647 12.4903 21.1297 12.4703C21.104 12.4496 21.0726 12.4374 21.0397 12.4353C21.0306 12.435 21.0216 12.4372 21.0137 12.4416C21.0058 12.446 20.9992 12.4524 20.9947 12.4603C20.9847 12.4753 20.9847 12.4903 20.9897 12.5103C20.9947 12.5303 21.0197 12.5703 21.0697 12.6203C21.1197 12.6703 21.1497 12.7153 21.1697 12.7453C21.1875 12.7781 21.1956 12.8153 21.1929 12.8525C21.1903 12.8897 21.177 12.9254 21.1547 12.9553C21.1313 12.9893 21.0982 13.0154 21.0597 13.0303C21.0222 13.0476 20.9803 13.0528 20.9397 13.0453C20.8947 13.0353 20.8497 13.0153 20.7997 12.9803C20.7247 12.9303 20.6797 12.8753 20.6647 12.8153C20.6484 12.7473 20.6591 12.6756 20.6947 12.6153L20.6997 12.6203ZM20.1197 12.2403L20.2447 12.3053C20.2292 12.3398 20.2257 12.3785 20.2347 12.4153C20.2475 12.4496 20.2724 12.4781 20.3047 12.4953C20.3447 12.5203 20.3747 12.5303 20.4047 12.5253C20.4347 12.5253 20.4547 12.5103 20.4697 12.4853C20.4773 12.4734 20.4808 12.4594 20.4797 12.4453C20.4797 12.4303 20.4697 12.4103 20.4547 12.3953C20.4291 12.3644 20.4024 12.3344 20.3747 12.3053C20.3197 12.2503 20.2847 12.2053 20.2747 12.1653C20.2665 12.1396 20.264 12.1124 20.2675 12.0856C20.271 12.0588 20.2802 12.0331 20.2947 12.0103C20.3137 11.9794 20.3416 11.955 20.3747 11.9403C20.409 11.9245 20.4473 11.9192 20.4847 11.9253C20.5309 11.9331 20.5751 11.9501 20.6147 11.9753C20.6897 12.0253 20.7347 12.0753 20.7497 12.1303C20.7588 12.1584 20.7617 12.1881 20.7583 12.2175C20.7548 12.2468 20.7451 12.2751 20.7297 12.3003L20.6047 12.2303C20.6197 12.1953 20.6247 12.1703 20.6147 12.1453C20.6047 12.1203 20.5847 12.0953 20.5497 12.0753C20.522 12.0554 20.4887 12.0449 20.4547 12.0453C20.4465 12.0458 20.4385 12.0484 20.4315 12.0528C20.4246 12.0571 20.4188 12.0632 20.4147 12.0703C20.4047 12.0853 20.4047 12.1003 20.4097 12.1203C20.4147 12.1403 20.4447 12.1803 20.4947 12.2303C20.5447 12.2803 20.5797 12.3203 20.5947 12.3503C20.6147 12.3816 20.6254 12.4181 20.6254 12.4553C20.6254 12.4925 20.6147 12.5289 20.5947 12.5603C20.5731 12.5952 20.5418 12.623 20.5047 12.6403C20.4672 12.6576 20.4253 12.6628 20.3847 12.6553C20.3332 12.6466 20.284 12.6279 20.2397 12.6003C20.175 12.5658 20.1252 12.5089 20.0997 12.4403C20.0803 12.3735 20.0875 12.3019 20.1197 12.2403ZM19.4097 12.0503L19.7747 11.4503L20.2147 11.7253L20.1547 11.8253L19.8347 11.6253L19.7547 11.7603L20.0547 11.9453L19.9897 12.0453L19.6897 11.8603L19.5897 12.0253L19.9247 12.2253L19.8647 12.3253L19.4147 12.0503H19.4097ZM18.3747 11.2003L18.4297 11.1003L18.6997 11.2353L18.5747 11.4853C18.5347 11.4953 18.4847 11.5003 18.4247 11.4953C18.3671 11.4889 18.3111 11.472 18.2597 11.4453C18.1992 11.4158 18.1474 11.371 18.1097 11.3153C18.0753 11.2635 18.0578 11.2024 18.0597 11.1403C18.0622 11.0756 18.0793 11.0124 18.1097 10.9553C18.1397 10.8952 18.1844 10.8436 18.2397 10.8053C18.2925 10.7687 18.3554 10.7495 18.4197 10.7503C18.4697 10.7503 18.5197 10.7653 18.5797 10.8003C18.6597 10.8353 18.7097 10.8853 18.7347 10.9403C18.7607 10.9949 18.766 11.0571 18.7497 11.1153L18.6147 11.0753C18.6229 11.0418 18.6194 11.0065 18.6047 10.9753C18.5897 10.9453 18.5647 10.9253 18.5247 10.9053C18.5014 10.892 18.4755 10.8838 18.4488 10.8812C18.4221 10.8786 18.3951 10.8817 18.3697 10.8903C18.3197 10.9053 18.2747 10.9503 18.2397 11.0203C18.2047 11.0903 18.1897 11.1553 18.2047 11.2103C18.2116 11.2364 18.2241 11.2606 18.2414 11.2814C18.2587 11.3021 18.2803 11.3188 18.3047 11.3303C18.3297 11.3453 18.3597 11.3553 18.3897 11.3553C18.4195 11.3598 18.4498 11.3598 18.4797 11.3553L18.5197 11.2753L18.3747 11.2003ZM13.8647 10.0853L13.9647 9.38529L14.1747 9.42029L14.2297 9.91029L14.4247 9.46029L14.6347 9.49029L14.5347 10.1803L14.3997 10.1603L14.4847 9.61529L14.2647 10.1403L14.1297 10.1203L14.0747 9.55529L13.9947 10.1053L13.8647 10.0853ZM13.1597 10.0003L13.2247 9.30029L13.7397 9.35029L13.7297 9.47029L13.3547 9.43529L13.3397 9.58529L13.6897 9.62029L13.6747 9.74029L13.3247 9.70529L13.3097 9.89529L13.6997 9.93029L13.6897 10.0503L13.1597 10.0003Z" fill="#309E3A"/>
<path d="M10.8249 9.56508C10.8249 9.49008 10.8399 9.43508 10.8599 9.38508C10.8774 9.34952 10.9011 9.31735 10.9299 9.29008C10.9556 9.26421 10.9862 9.2438 11.0199 9.23008C11.0699 9.21508 11.1199 9.20508 11.1699 9.20508C11.2749 9.20508 11.3549 9.24508 11.4199 9.30508C11.4509 9.3433 11.4739 9.38731 11.4876 9.43452C11.5013 9.48174 11.5055 9.53122 11.4999 9.58008C11.4999 9.69008 11.4649 9.78008 11.3999 9.84508C11.3665 9.87595 11.327 9.89947 11.2839 9.91411C11.2409 9.92875 11.1952 9.93419 11.1499 9.93008C11.1052 9.93053 11.0609 9.9219 11.0197 9.90471C10.9784 9.88752 10.9411 9.86213 10.9099 9.83008C10.8477 9.75644 10.8171 9.66117 10.8249 9.56508Z" fill="#309E3A"/>
<path d="M10.9697 9.56529C10.9697 9.64029 10.9847 9.70029 11.0197 9.74529C11.0547 9.78529 11.0997 9.81029 11.1597 9.81029C11.1857 9.8121 11.2117 9.80811 11.2359 9.7986C11.2602 9.78908 11.2819 9.77429 11.2997 9.75529C11.3347 9.71529 11.3497 9.65529 11.3547 9.57029C11.3547 9.49029 11.3447 9.43029 11.3047 9.39029C11.2884 9.37013 11.2679 9.35385 11.2445 9.34261C11.2212 9.33137 11.1956 9.32545 11.1697 9.32529C11.1434 9.32445 11.1173 9.32938 11.0931 9.33975C11.0689 9.35012 11.0473 9.36566 11.0297 9.38529C10.9897 9.42529 10.9747 9.48529 10.9697 9.56529Z" fill="#F7FFFF"/>
<path d="M11.6499 9.9251L11.6599 9.2251H11.9599C12.0349 9.2251 12.0849 9.2351 12.1199 9.2501C12.1549 9.2601 12.1799 9.2851 12.1999 9.3151C12.2199 9.3451 12.2299 9.3851 12.2299 9.4301C12.2303 9.4782 12.2124 9.52466 12.1799 9.5601C12.1429 9.59472 12.0954 9.61586 12.0449 9.6201L12.1199 9.6801C12.1399 9.7001 12.1649 9.7401 12.1949 9.7951L12.2799 9.9351H12.1099L12.0099 9.7751L11.9399 9.6751C11.9278 9.66134 11.9123 9.651 11.8949 9.6451C11.8722 9.63847 11.8486 9.6351 11.8249 9.6351H11.7949V9.9251H11.6499Z" fill="#309E3A"/>
<path d="M11.7998 9.52522H11.8998C11.9698 9.52522 12.0148 9.52522 12.0298 9.51522C12.0448 9.51522 12.0598 9.50022 12.0698 9.49022C12.0798 9.48022 12.0848 9.45522 12.0848 9.44022C12.0848 9.41022 12.0798 9.39022 12.0648 9.38022C12.0548 9.36522 12.0348 9.35522 12.0148 9.35022H11.9148L11.7998 9.34521V9.52022V9.52522Z" fill="white"/>
<path d="M12.45 9.26025L12.71 9.27525C12.765 9.27525 12.81 9.28025 12.84 9.29025C12.879 9.30437 12.9135 9.32852 12.94 9.36025C12.9688 9.39521 12.9894 9.43624 13 9.48025C13.015 9.52525 13.02 9.58025 13.015 9.64525C13.015 9.69629 13.0065 9.74696 12.99 9.79525C12.97 9.84525 12.94 9.88525 12.905 9.91525C12.8759 9.93926 12.8417 9.95635 12.805 9.96525C12.775 9.97525 12.73 9.97525 12.68 9.97525L12.415 9.96025L12.45 9.26025Z" fill="#309E3A"/>
<path d="M12.5851 9.38525L12.5601 9.85025H12.7501C12.7751 9.85025 12.7951 9.84025 12.8101 9.82525C12.8251 9.81025 12.8401 9.79025 12.8501 9.76025C12.8601 9.73025 12.8701 9.68525 12.8701 9.63025L12.8651 9.50525C12.8579 9.47889 12.8441 9.45479 12.8251 9.43525C12.8084 9.41855 12.7878 9.40649 12.7651 9.40025C12.7272 9.39184 12.6888 9.38682 12.6501 9.38525H12.5851Z" fill="white"/>
<path d="M15.8799 10.5101L16.0449 9.83008L16.2649 9.88008L16.4249 9.93008C16.4599 9.95008 16.4899 9.98008 16.5049 10.0251C16.5249 10.0651 16.5249 10.1101 16.5149 10.1651C16.5049 10.2051 16.4899 10.2401 16.4649 10.2651C16.4465 10.287 16.4236 10.3047 16.3977 10.3168C16.3718 10.3289 16.3435 10.3351 16.3149 10.3351C16.2799 10.3351 16.2299 10.3251 16.1649 10.3101L16.0799 10.2851L16.0199 10.5451L15.8799 10.5101Z" fill="#309E3A"/>
<path d="M16.1499 9.97998L16.1099 10.17L16.1849 10.19C16.2349 10.2 16.2749 10.21 16.2949 10.205C16.3143 10.2023 16.3324 10.1936 16.3468 10.1802C16.3611 10.1668 16.3709 10.1492 16.3749 10.13C16.3749 10.105 16.3749 10.085 16.3649 10.065C16.3539 10.0447 16.3362 10.0288 16.3149 10.02L16.2199 9.99498L16.1549 9.97998H16.1499Z" fill="white"/>
<path d="M16.5298 10.7049L16.7648 10.0449L17.0398 10.1449C17.1148 10.1699 17.1598 10.1949 17.1898 10.2149C17.2148 10.2399 17.2348 10.2649 17.2398 10.3049C17.2448 10.3449 17.2498 10.3799 17.2398 10.4199C17.2198 10.4699 17.1898 10.5049 17.1498 10.5299C17.1098 10.5499 17.0598 10.5549 16.9998 10.5449C17.0198 10.5699 17.0398 10.5949 17.0498 10.6249L17.0898 10.7599L17.1198 10.9149L16.9648 10.8599L16.9148 10.6799C16.9057 10.6392 16.894 10.5991 16.8798 10.5599C16.8732 10.5444 16.8629 10.5306 16.8498 10.5199C16.8398 10.5049 16.8198 10.4949 16.7848 10.4849L16.7598 10.4749L16.6598 10.7549L16.5298 10.7049Z" fill="#309E3A"/>
<path d="M16.7999 10.3701L16.8949 10.4051C16.9599 10.4301 16.9999 10.4401 17.0199 10.4401C17.0349 10.4401 17.0499 10.4401 17.0649 10.4251C17.0799 10.4151 17.0899 10.4001 17.0949 10.3801C17.1049 10.3601 17.1049 10.3401 17.0949 10.3201C17.0875 10.3007 17.0733 10.2847 17.0549 10.2751L16.9549 10.2401L16.8549 10.2051L16.7949 10.3701H16.7999Z" fill="white"/>
<path d="M17.3498 10.6802C17.367 10.6216 17.3959 10.5672 17.4348 10.5202C17.4601 10.49 17.4906 10.4646 17.5248 10.4452C17.5558 10.4276 17.5897 10.4158 17.6248 10.4102C17.6748 10.4102 17.7248 10.4102 17.7798 10.4302C17.8245 10.4412 17.8663 10.4616 17.9025 10.4901C17.9388 10.5185 17.9685 10.5543 17.9898 10.5952C18.0298 10.6752 18.0298 10.7702 17.9998 10.8802C17.9751 10.9747 17.914 11.0555 17.8298 11.1052C17.7548 11.1502 17.6648 11.1552 17.5698 11.1252C17.5253 11.1138 17.4836 11.0933 17.4474 11.0649C17.4112 11.0364 17.3814 11.0008 17.3598 10.9602C17.3398 10.9164 17.3286 10.8692 17.3269 10.8212C17.3252 10.7731 17.333 10.7252 17.3498 10.6802Z" fill="#309E3A"/>
<path d="M17.4901 10.72C17.4701 10.795 17.4651 10.86 17.4901 10.91C17.5151 10.96 17.5501 10.99 17.6051 11.01C17.6551 11.025 17.7051 11.02 17.7551 10.99C17.8051 10.965 17.8351 10.91 17.8601 10.83C17.8851 10.755 17.8851 10.695 17.8601 10.645C17.8502 10.6213 17.8352 10.6 17.8162 10.5827C17.7972 10.5655 17.7746 10.5526 17.7501 10.545C17.7255 10.5365 17.6993 10.5335 17.6734 10.536C17.6475 10.5386 17.6225 10.5468 17.6001 10.56C17.5501 10.59 17.5151 10.64 17.4901 10.72Z" fill="white"/>
<path d="M18.7148 11.6552L19.0348 11.0352L19.2998 11.1702C19.3498 11.1941 19.3954 11.2262 19.4348 11.2652C19.4598 11.2902 19.4748 11.3202 19.4748 11.3602C19.4748 11.4002 19.4748 11.4352 19.4548 11.4702C19.4356 11.5151 19.3998 11.5509 19.3548 11.5702C19.3048 11.5802 19.2548 11.5802 19.1998 11.5602C19.2198 11.5902 19.2298 11.6202 19.2398 11.6452C19.2498 11.6752 19.2548 11.7202 19.2598 11.7852L19.2698 11.9452L19.1198 11.8702L19.0998 11.6852C19.0975 11.6432 19.0925 11.6015 19.0848 11.5602C19.0814 11.5415 19.0728 11.5241 19.0598 11.5102L18.9998 11.4752L18.9748 11.4602L18.8398 11.7202L18.7148 11.6552Z" fill="#309E3A"/>
<path d="M19.0249 11.3602L19.1199 11.4102C19.1799 11.4402 19.2199 11.4602 19.2349 11.4602C19.2499 11.4602 19.2699 11.4602 19.2849 11.4502C19.2999 11.4452 19.3099 11.4302 19.3199 11.4102C19.3299 11.3902 19.3349 11.3702 19.3299 11.3502C19.3237 11.3303 19.3115 11.3128 19.2949 11.3002C19.2656 11.2822 19.2356 11.2656 19.2049 11.2502L19.1049 11.2002L19.0249 11.3602Z" fill="white"/>
<path d="M21.3047 12.935C21.3371 12.8835 21.3796 12.8393 21.4297 12.805C21.4634 12.7834 21.5006 12.7682 21.5397 12.76C21.576 12.7525 21.6134 12.7525 21.6497 12.76C21.6997 12.77 21.7447 12.79 21.7897 12.82C21.8286 12.8442 21.8621 12.8763 21.8879 12.9142C21.9137 12.952 21.9314 12.9949 21.9397 13.04C21.9547 13.125 21.9297 13.22 21.8697 13.3149C21.8195 13.3976 21.7386 13.4569 21.6447 13.48C21.5999 13.4896 21.5536 13.4897 21.5088 13.4802C21.464 13.4708 21.4217 13.4519 21.3847 13.425C21.3458 13.4007 21.3124 13.3686 21.2865 13.3308C21.2607 13.2929 21.2431 13.25 21.2347 13.205C21.2197 13.115 21.2447 13.025 21.3047 12.935Z" fill="#309E3A"/>
<path d="M21.43 13.0152C21.38 13.0802 21.365 13.1402 21.375 13.1952C21.3787 13.2205 21.3877 13.2448 21.4015 13.2663C21.4153 13.2879 21.4335 13.3062 21.455 13.3202C21.505 13.3552 21.555 13.3652 21.605 13.3502C21.655 13.3352 21.705 13.3002 21.75 13.2302C21.795 13.1602 21.815 13.1002 21.805 13.0502C21.8 13.0002 21.77 12.9552 21.725 12.9202C21.68 12.8852 21.625 12.8802 21.575 12.8952C21.525 12.9052 21.475 12.9452 21.425 13.0152H21.43Z" fill="white"/>
<path d="M15.0898 10.2249L15.2048 9.73486L15.5648 9.81986L15.5498 9.89986L15.2848 9.83986L15.2598 9.94986L15.5048 10.0049L15.4848 10.0899L15.2398 10.0299L15.2098 10.1649L15.4848 10.2299L15.4648 10.3099L15.0898 10.2249Z" fill="#309E3A"/>
</svg>
