<svg width="20" height="20" viewBox="0 0 20 20" fill="none" xmlns="http://www.w3.org/2000/svg">
<g clip-path="url(#clip0)">
<path d="M7.49963 7.01263C7.87473 6.9942 8.19376 7.28333 8.2122 7.65843L8.64543 15.3001C8.66387 15.6752 8.37474 15.9942 7.99964 16.0126C7.62454 16.0311 7.30551 15.7419 7.28707 15.3668L6.85384 7.7252C6.8354 7.3501 7.12453 7.03107 7.49963 7.01263Z" fill="#EB1F44"/>
<path d="M13.1459 7.71254C13.1643 7.33744 12.8752 7.01842 12.5001 6.99998C12.125 6.98154 11.806 7.27067 11.7875 7.64578L11.3542 15.2874C11.3358 15.6625 11.6249 15.9816 12 16C12.3751 16.0184 12.6941 15.7293 12.7126 15.3542L13.1459 7.71254Z" fill="#EB1F44"/>
<path fill-rule="evenodd" clip-rule="evenodd" d="M6.5 2.75V2.18C6.5 0.976019 7.47602 0 8.68 0H10.82C12.024 0 13 0.97602 13 2.18V2.75H17.322C17.6975 2.75 18.002 3.05445 18.002 3.43C18.002 3.80555 17.6975 4.11 17.322 4.11H16.9728L16 17.9596C15.9271 19.1076 14.9747 20.0014 13.8244 20.0014L6.17562 20.0014C5.02527 20.0014 4.07289 19.1075 4 17.9595L3.02852 4.11H2.68C2.30445 4.11 2 3.80555 2 3.43C2 3.05445 2.30445 2.75 2.68 2.75H6.5ZM7.86 2.18C7.86 1.72713 8.22713 1.36 8.68 1.36H10.82C11.2729 1.36 11.64 1.72713 11.64 2.18V2.75H7.86V2.18ZM4.39184 4.11H15.6095L14.6427 17.8734C14.6153 18.3052 14.2571 18.6414 13.8244 18.6414L6.17562 18.6414C5.74292 18.6414 5.38468 18.3052 5.35727 17.8733L4.39184 4.11Z" fill="#EB1F44"/>
</g>
<defs>
<clipPath id="clip0">
<rect width="20" height="20" fill="white"/>
</clipPath>
</defs>
</svg>
