<svg width="46" height="43" viewBox="0 0 46 43" fill="none" xmlns="http://www.w3.org/2000/svg">
<path d="M10.5556 19.3334C11.476 19.3334 12.2222 20.0796 12.2222 21.0001C12.2222 21.9206 11.476 22.6668 10.5556 22.6668L1.66667 22.6668C0.746193 22.6668 -4.02352e-08 21.9206 0 21.0001C4.02352e-08 20.0796 0.746192 19.3334 1.66667 19.3334L10.5556 19.3334Z" fill="#44CFEE"/>
<path d="M5.90763 17.6207C5.00407 17.445 4.40741 16.5676 4.65467 15.6809C5.89482 11.2339 8.58324 7.30759 12.3176 4.54002C16.4999 1.44046 21.6911 0.0189657 26.8691 0.555428C32.0471 1.09189 36.8366 3.54743 40.2946 7.43857C43.7527 11.3297 45.6287 16.3745 45.5533 21.5796C45.4779 26.7848 43.4565 31.7731 39.8872 35.5624C36.3179 39.3517 31.4592 41.6675 26.2679 42.0538C21.0766 42.44 15.9287 40.8687 11.8379 37.6493C8.18531 34.7747 5.61176 30.7721 4.50096 26.2911C4.27948 25.3976 4.90131 24.5378 5.80959 24.3884C6.71786 24.2391 7.5674 24.8573 7.80247 25.7472C8.76904 29.4067 10.9016 32.6706 13.8994 35.0299C17.3357 37.7342 21.6598 39.054 26.0206 38.7296C30.3813 38.4052 34.4626 36.4599 37.4608 33.2769C40.459 30.0938 42.157 25.9037 42.2203 21.5313C42.2837 17.159 40.7078 12.9214 37.803 9.65286C34.8983 6.3843 30.8751 4.32164 26.5256 3.87101C22.1761 3.42039 17.8155 4.61444 14.3023 7.21807C11.2374 9.48952 9.01122 12.6902 7.93904 16.3202C7.6783 17.2029 6.8112 17.7963 5.90763 17.6207Z" fill="#44CFEE"/>
<path d="M32.5397 25.467C32.5397 27.019 31.9965 28.3285 30.91 29.3955C29.843 30.4626 28.3977 31.1319 26.5741 31.4035V33.2368C26.5741 33.683 26.4383 34.0419 26.1667 34.3135C25.8951 34.6045 25.5362 34.75 25.0899 34.75C24.6437 34.75 24.2848 34.6045 24.0132 34.3135C23.7416 34.0419 23.6058 33.683 23.6058 33.2368V31.4617C22.5 31.3647 21.4233 31.1319 20.3757 30.7633C19.328 30.3946 18.4259 29.9096 17.6693 29.3082C17.4171 29.1336 17.2425 28.9396 17.1455 28.7262C17.0485 28.5128 17 28.2509 17 27.9405C17 27.5331 17.1164 27.1742 17.3492 26.8638C17.6014 26.5534 17.8827 26.3982 18.1931 26.3982C18.3871 26.3982 18.5617 26.437 18.7169 26.5146C18.8915 26.5728 19.1146 26.6795 19.3862 26.8347C20.2787 27.4167 21.1517 27.8435 22.0053 28.1151C22.8783 28.3867 23.7901 28.5225 24.7407 28.5225C26.0406 28.5225 27.0397 28.2703 27.7381 27.7659C28.4559 27.2615 28.8148 26.534 28.8148 25.5834C28.8148 25.0208 28.6208 24.5648 28.2328 24.2156C27.8448 23.8664 27.3598 23.5948 26.7778 23.4008C26.1958 23.1874 25.381 22.9449 24.3333 22.6733C22.8783 22.3047 21.6949 21.9361 20.7831 21.5675C19.8713 21.1795 19.0855 20.5975 18.4259 19.8215C17.7663 19.0454 17.4365 17.9978 17.4365 16.6786C17.4365 15.1072 17.9991 13.7685 19.1243 12.6627C20.2496 11.5569 21.724 10.8682 23.5476 10.5966V8.76326C23.5476 8.31705 23.6834 7.95814 23.955 7.68654C24.2266 7.39553 24.5855 7.25003 25.0317 7.25003C25.478 7.25003 25.8369 7.39553 26.1085 7.68654C26.3801 7.95814 26.5159 8.31705 26.5159 8.76326V10.5675C28.4753 10.8197 30.1631 11.5278 31.5794 12.6918C32.045 13.041 32.2778 13.4969 32.2778 14.0596C32.2778 14.467 32.1517 14.8259 31.8995 15.1363C31.6667 15.4467 31.3854 15.6019 31.0556 15.6019C30.881 15.6019 30.7063 15.5728 30.5317 15.5146C30.3765 15.4564 30.1631 15.34 29.8915 15.1654C29.0961 14.6028 28.3395 14.1857 27.6217 13.9141C26.9233 13.623 26.0891 13.4775 25.119 13.4775C23.9162 13.4775 22.9559 13.7492 22.2381 14.2924C21.5203 14.8162 21.1614 15.5437 21.1614 16.4749C21.1614 17.1151 21.3651 17.6389 21.7725 18.0463C22.1799 18.4343 22.694 18.735 23.3148 18.9484C23.9356 19.1618 24.7795 19.4044 25.8466 19.676C27.2628 20.0252 28.4171 20.3841 29.3095 20.7527C30.2019 21.1213 30.9586 21.6839 31.5794 22.4405C32.2196 23.1777 32.5397 24.1865 32.5397 25.467Z" fill="#44CFEE"/>
</svg>
