<svg width="72" height="72" viewBox="0 0 72 72" fill="none" xmlns="http://www.w3.org/2000/svg">
<g clip-path="url(#clip0)">
<path d="M69.2879 22.5089L62.5821 18.0382L59.2213 10.1964C59.1195 9.95891 58.9417 9.76192 58.7158 9.63661L48.2239 3.80787C48.0509 3.71163 47.8558 3.66112 47.6576 3.66112H27.8403C27.6423 3.66112 27.4474 3.71177 27.2744 3.80815L27.2741 3.80787L16.7824 9.63661C16.5567 9.76206 16.3789 9.95891 16.2769 10.1964L12.7797 18.3566C12.7175 18.5018 12.6855 18.6578 12.6855 18.8158V24.6445H10.3539V22.313H8.02246V24.6445H4.52516V22.313H2.19287V31.6391H68.6416C69.2855 31.6391 69.8072 31.1171 69.8072 30.4732V23.4788C69.8074 23.089 69.6126 22.7251 69.2879 22.5089ZM8.02246 29.3076H4.52516V26.9762H8.02246V29.3076ZM12.6855 29.3076H10.3539V26.9762H12.6855V29.3076ZM47.3558 5.99255L53.6511 9.48985H38.6343L32.339 5.99255H47.3558ZM26.6744 29.3076H24.343V22.313H26.6744V29.3076ZM31.3374 29.3076H29.006V22.313H31.3374V29.3076ZM40.6635 29.3076H33.6691V21.1473C33.6691 20.5034 33.1473 19.9816 32.5033 19.9816H23.1772C22.5335 19.9816 22.0115 20.5034 22.0115 21.1473V29.3076H15.0171V19.0551L18.263 11.4811L27.8403 6.16034L37.4175 11.4811L40.6635 19.0551V29.3076ZM40.0997 11.8213H57.3813L59.8793 17.65H42.5978L40.0997 11.8213ZM47.6578 29.3076H42.9948V20.9939L47.6578 24.1026V29.3076ZM45.6794 19.9816H61.2939L64.7914 22.313H49.1767L45.6794 19.9816ZM60.4813 29.3076H49.9894V24.6446H60.4813V29.3076ZM67.4754 29.3076H62.8126V24.6446H67.4756V29.3076H67.4754Z" fill="#FFF"/>
<path d="M19.6799 12.987H22.0114V15.3185H19.6799V12.987Z" fill="#FFF"/>
<path d="M33.6689 12.987H36.0002V15.3185H33.6689V12.987Z" fill="#FFF"/>
<path d="M26.6743 8.32412H29.0059V10.6556H26.6743V8.32412Z" fill="#FFF"/>
<path d="M10.0797 53.5919C8.20937 53.5919 6.69299 55.108 6.69299 56.9786C6.69299 58.8489 8.20937 60.3653 10.0797 60.3653C11.9502 60.3653 13.4663 58.8489 13.4663 56.9786C13.4645 55.1089 11.9494 53.5939 10.0797 53.5919ZM10.0797 58.1075C9.45623 58.1075 8.95077 57.602 8.95077 56.9786C8.95077 56.3552 9.45623 55.8497 10.0797 55.8497C10.7034 55.8497 11.2086 56.3552 11.2086 56.9786C11.208 57.6017 10.7028 58.1066 10.0797 58.1075Z" fill="#FFF"/>
<path d="M33.733 60.3618C34.3565 60.3618 34.8619 59.8564 34.8619 59.2329C34.8619 58.6094 34.3565 58.104 33.733 58.104C33.1095 58.104 32.6041 58.6094 32.6041 59.2329C32.6041 59.8564 33.1095 60.3618 33.733 60.3618Z" fill="#FFF"/>
<path d="M36.0182 54.094L36.059 54.0611V49.0729C36.059 48.5112 35.6461 48.0348 35.09 47.9553L33.8012 47.7713V44.5573H31.5434V47.4487L27.1876 46.8264C26.8636 46.7801 26.5355 46.8766 26.2883 47.0912C26.2599 47.1159 26.2331 47.142 26.2076 47.1693L25.0966 46.4286L25.7799 45.0622L23.7604 44.0526L21.5026 48.5681L23.5221 49.5778L24.0791 48.4635L25.899 49.677V52.4595H20.4397C20.2535 52.0337 20.041 51.6199 19.8037 51.2204L17.9749 42.0781C17.8693 41.5505 17.406 41.1706 16.8678 41.1706H12.3523C11.7289 41.1706 11.2234 41.6761 11.2234 42.2995V45.7433C10.8482 45.706 10.4713 45.6862 10.0945 45.6862C8.81251 45.6845 7.53969 45.902 6.33093 46.3295L7.08475 48.4578C8.0515 48.1161 9.06934 47.9424 10.0945 47.944C13.2237 47.9386 16.1312 49.558 17.7742 52.2209C18.1154 52.77 18.3961 53.3543 18.6114 53.9638H18.6116L18.6121 53.9659C19.1787 55.5777 19.2789 57.3164 18.9013 58.9825C18.7631 59.5906 19.1438 60.1955 19.7517 60.3338C19.8339 60.3526 19.9178 60.3619 20.0019 60.3619H28.219C28.7417 62.9274 31.0106 64.858 33.7306 64.858C36.8373 64.858 39.3558 62.3394 39.3558 59.233C39.3558 56.9411 37.9843 54.9707 36.0182 54.094ZM13.4812 46.2075V43.4284H15.9423L16.8441 47.9365C15.8279 47.176 14.6911 46.5916 13.4812 46.2075ZM28.219 58.104H21.3271C21.3646 57.7295 21.3833 57.3524 21.3833 56.9751C21.3838 56.2169 21.3083 55.4605 21.1576 54.7173H27.0277C27.6513 54.7173 28.1566 54.2119 28.1566 53.5884V49.2457L33.8011 50.052V53.5886L33.7759 53.609C33.7608 53.609 33.7459 53.6079 33.7305 53.6079C31.0106 53.6078 28.7415 55.5383 28.219 58.104ZM33.733 62.617C33.6741 62.617 33.6154 62.6154 33.5572 62.6125C31.7688 62.5222 30.3464 61.0436 30.3464 59.2329C30.3464 59.1938 30.3502 59.1557 30.3516 59.117C30.3527 59.0847 30.3541 59.0525 30.356 59.0204C30.3589 58.9731 30.3622 58.926 30.3671 58.8792C30.3736 58.8166 30.3821 58.7544 30.3921 58.6928C30.3951 58.6752 30.3962 58.657 30.3993 58.6395L30.4021 58.6372C30.6838 57.0526 32.0676 55.8487 33.733 55.8487C33.7709 55.8487 33.808 55.8504 33.8455 55.8517L33.8458 55.8516C33.8466 55.8516 33.8478 55.8517 33.8486 55.8517C35.6641 55.9128 37.1173 57.4027 37.1173 59.233C37.1173 61.1019 35.6021 62.617 33.733 62.617Z" fill="#FFF"/>
<path d="M10.0796 49.0918C5.72392 49.0918 2.19275 52.6226 2.19275 56.9787C2.19275 61.3346 5.72377 64.8656 10.0796 64.8656C14.4354 64.8656 17.9666 61.3347 17.9666 56.9787C17.9666 52.6226 14.4354 49.0918 10.0796 49.0918ZM10.0796 62.6144C6.9671 62.6144 4.4439 60.0912 4.4439 56.9787C4.4439 53.866 6.96725 51.3429 10.0796 51.3429C13.1924 51.3429 15.7154 53.8661 15.7154 56.9787C15.7156 60.0912 13.1924 62.6144 10.0796 62.6144Z" fill="#FFF"/>
<path d="M47.0738 62.1495C44.349 62.1495 44.1073 63.3971 47.0738 63.3971C50.0404 63.3971 71.9994 63.3971 71.9994 63.3971V62.1495C71.9994 62.1495 49.7987 62.1495 47.0738 62.1495Z" fill="#FFF"/>
<path d="M48.1417 52.9386C45.4167 52.9386 45.1751 54.1862 48.1417 54.1862C51.1082 54.1862 72 54.1862 72 54.1862V52.9386C72 52.9386 50.8662 52.9386 48.1417 52.9386Z" fill="#FFF"/>
<path d="M46.1655 41.3612C46.1655 41.3612 48.6069 42.6844 49.1194 45.0948C50.4625 41.7365 49.2293 40.0161 51.1247 40.4806C51.1247 40.4806 49.1908 38.5397 48.9588 42.7305C46.9445 41.2369 46.1655 41.3612 46.1655 41.3612Z" fill="#FFF"/>
<path d="M52.296 41.3612C52.296 41.3612 54.7374 42.6844 55.2499 45.0948C56.593 41.7365 55.3598 40.0161 57.2552 40.4806C57.2552 40.4806 55.3213 38.5397 55.0893 42.7305C53.0751 41.2369 52.296 41.3612 52.296 41.3612Z" fill="#FFF"/>
<path d="M58.4027 41.3612C58.4027 41.3612 60.8441 42.6844 61.3566 45.0948C62.6997 41.7365 61.4665 40.0161 63.3619 40.4806C63.3619 40.4806 61.428 38.5397 61.196 42.7305C59.1816 41.2369 58.4027 41.3612 58.4027 41.3612Z" fill="#FFF"/>
<path d="M64.5128 41.3612C64.5128 41.3612 66.9542 42.6844 67.4667 45.0948C68.8098 41.7365 67.5766 40.0161 69.472 40.4806C69.472 40.4806 67.5381 38.5397 67.3061 42.7305C65.2919 41.2369 64.5128 41.3612 64.5128 41.3612Z" fill="#FFF"/>
<path d="M46.1655 50.0367C46.1655 50.0367 48.6069 51.3599 49.1194 53.7704C50.4625 50.4121 49.2293 48.6917 51.1247 49.1562C51.1247 49.1562 49.1908 47.2155 48.9588 51.4061C46.9445 49.9124 46.1655 50.0367 46.1655 50.0367Z" fill="#FFF"/>
<path d="M52.296 50.0367C52.296 50.0367 54.7374 51.3599 55.2499 53.7704C56.593 50.4121 55.3598 48.6917 57.2552 49.1562C57.2552 49.1562 55.3213 47.2155 55.0893 51.4061C53.0751 49.9124 52.296 50.0367 52.296 50.0367Z" fill="#FFF"/>
<path d="M58.4027 50.0367C58.4027 50.0367 60.8441 51.3599 61.3566 53.7704C62.6997 50.4121 61.4665 48.6917 63.3619 49.1562C63.3619 49.1562 61.428 47.2155 61.196 51.4061C59.1816 49.9124 58.4027 50.0367 58.4027 50.0367Z" fill="#FFF"/>
<path d="M64.5128 50.0367C64.5128 50.0367 66.9542 51.3599 67.4667 53.7704C68.8098 50.4121 67.5766 48.6917 69.472 49.1562C69.472 49.1562 67.5381 47.2155 67.3061 51.4061C65.2919 49.9124 64.5128 50.0367 64.5128 50.0367Z" fill="#FFF"/>
<path d="M46.1655 59.1652C46.1655 59.1652 48.6069 60.4884 49.1194 62.8988C50.4625 59.5405 49.2293 57.8201 51.1247 58.2846C51.1247 58.2846 49.1908 56.3439 48.9588 60.5345C46.9445 59.041 46.1655 59.1652 46.1655 59.1652Z" fill="#FFF"/>
<path d="M52.296 59.1652C52.296 59.1652 54.7374 60.4884 55.2499 62.8988C56.593 59.5405 55.3598 57.8201 57.2552 58.2846C57.2552 58.2846 55.3213 56.3439 55.0893 60.5345C53.0751 59.041 52.296 59.1652 52.296 59.1652Z" fill="#FFF"/>
<path d="M58.4027 59.1652C58.4027 59.1652 60.8441 60.4884 61.3566 62.8988C62.6997 59.5405 61.4665 57.8201 63.3619 58.2846C63.3619 58.2846 61.428 56.3439 61.196 60.5345C59.1816 59.041 58.4027 59.1652 58.4027 59.1652Z" fill="#FFF"/>
<path d="M64.5128 59.1652C64.5128 59.1652 66.9542 60.4884 67.4667 62.8988C68.8098 59.5405 67.5766 57.8201 69.472 58.2846C69.472 58.2846 67.5381 56.3439 67.3061 60.5345C65.2919 59.041 64.5128 59.1652 64.5128 59.1652Z" fill="#FFF"/>
<path d="M47.0738 43.9359C44.349 43.9359 44.1073 45.1835 47.0738 45.1835C50.0404 45.1835 71.9994 45.1835 71.9994 45.1835V43.9359C71.9994 43.9359 49.7987 43.9359 47.0738 43.9359Z" fill="#FFF"/>
</g>
<defs>
<clipPath id="clip0">
<rect width="72" height="72" fill="white"/>
</clipPath>
</defs>
</svg>
