<svg width="360" height="88" viewBox="0 0 360 88" fill="none" xmlns="http://www.w3.org/2000/svg">
<path fill-rule="evenodd" clip-rule="evenodd" d="M0 77.1538L15 66.1538C30 56.1538 60 30.1538 90 25.1538C120 19.1538 150 39.1538 180 34.1538C210 28.1538 240 2.15384 270 0.153838C300 -1.84616 330 16.1538 345 25.1538L360 34.1538V88.1538H345C330 88.1538 300 88.1538 270 88.1538C240 88.1538 210 88.1538 180 88.1538C150 88.1538 120 88.1538 90 88.1538C60 88.1538 30 88.1538 15 88.1538H0V77.1538Z" fill="#02733E"/>
<path fill-rule="evenodd" clip-rule="evenodd" d="M0 12.3859L15 9.38593C30 5.38593 60 -1.61407 90 7.38593C120 16.3859 150 41.3859 180 47.3859C210 52.3859 240 38.3859 270 38.3859C300 38.3859 316.5 54.5 324.5 59.5C332.5 64.5 360 88.3859 360 88.3859H345C330 88.3859 300 88.3859 270 88.3859C240 88.3859 210 88.3859 180 88.3859C150 88.3859 120 88.3859 90 88.3859C60 88.3859 30 88.3859 15 88.3859H0V12.3859Z" fill="#62A632"/>
</svg>
