<svg width="40" height="40" viewBox="0 0 40 40" fill="none" xmlns="http://www.w3.org/2000/svg">
<rect width="40" height="40" rx="6" fill="#04F182" fill-opacity="0.15"/>
<path fill-rule="evenodd" clip-rule="evenodd" d="M31.0692 18.0749C31.4398 18.3594 31.5097 18.8905 31.2252 19.2611C30.9408 19.6318 30.4097 19.7016 30.039 19.4172L29.2461 18.8086V28.7456L29.2461 28.754C29.2461 29.2213 28.8673 29.6 28.4001 29.6L22.1601 29.6C22.1517 29.6 22.1432 29.5999 22.1348 29.5997C21.6765 29.5894 21.3081 29.2147 21.3081 28.7539V23.246L18.6921 23.246V28.7539C18.6921 29.206 18.3375 29.5752 17.8913 29.5987C17.8756 29.5996 17.8598 29.6 17.8439 29.6L11.6001 29.6001C11.1798 29.6001 10.8311 29.2936 10.7653 28.8919C10.7614 28.8679 10.7584 28.8436 10.7566 28.819C10.7549 28.7975 10.7541 28.7758 10.7541 28.7539L10.7541 18.8087L9.96122 19.4172C9.59057 19.7017 9.05948 19.6318 8.77501 19.2612C8.49054 18.8905 8.56041 18.3594 8.93106 18.075L19.4694 9.98696C19.5282 9.93954 19.5923 9.90092 19.6598 9.87135C19.7592 9.82759 19.8645 9.80425 19.9698 9.80057C20.1093 9.79549 20.2506 9.82473 20.3802 9.89007C20.4323 9.91618 20.482 9.94789 20.5284 9.98505L31.0692 18.0749ZM20.0001 11.7125L12.4461 17.5101L12.4461 27.908L17.0001 27.908V22.454C17.0001 22.4452 17.0003 22.4364 17.0005 22.4277L17.0003 22.4206L17.0002 22.4114L17.0001 22.4C17.0001 21.9328 17.3789 21.554 17.8461 21.554L22.1541 21.554C22.4672 21.554 22.7407 21.7242 22.8869 21.9771C22.9589 22.1015 23.0001 22.2459 23.0001 22.4V27.908L27.5541 27.908V17.51L20.0001 11.7125Z" fill="#525252"/>
</svg>
