<svg width="18" height="22" viewBox="0 0 18 22" fill="none" xmlns="http://www.w3.org/2000/svg">
<path d="M1.632 16.616C1.632 16.1654 1.26666 15.8 0.816 15.8C0.365336 15.8 0 16.1654 0 16.616V18.584C0 20.0288 1.17122 21.2 2.616 21.2L15.384 21.2001C16.8288 21.2001 18 20.0288 18 18.584V16.6161C18 16.1654 17.6347 15.8001 17.184 15.8001C16.7333 15.8001 16.368 16.1654 16.368 16.6161V18.584C16.368 19.1275 15.9274 19.5681 15.384 19.5681L2.616 19.568C2.07255 19.568 1.632 19.1275 1.632 18.584V16.616Z" fill="white"/>
<path d="M8.91602 17.0001C9.36668 17.0001 9.73202 16.6347 9.73202 16.1841V3.58607L12.239 6.09305C12.5577 6.41172 13.0743 6.41172 13.393 6.09305C13.7117 5.77438 13.7117 5.25772 13.393 4.93905L9.493 1.03905C9.17433 0.720382 8.65767 0.720382 8.339 1.03905L8.33586 1.04221L4.439 4.93907C4.12033 5.25773 4.12033 5.7744 4.439 6.09307C4.75767 6.41173 5.27433 6.41173 5.593 6.09307L8.10002 3.58605V16.1841C8.10002 16.6347 8.46535 17.0001 8.91602 17.0001Z" fill="white"/>
</svg>
