<svg width="46" height="43" viewBox="0 0 46 43" fill="none" xmlns="http://www.w3.org/2000/svg">
<path d="M7.95873 11.9856C7.15366 11.5393 6.85733 10.5205 7.36649 9.75363C9.67441 6.27768 12.9816 3.56316 16.8699 1.9809C21.2746 0.188572 26.1598 -0.0429841 30.7142 1.3247C35.2686 2.69238 39.218 5.57699 41.9065 9.49937C44.595 13.4218 45.8607 18.1458 45.4934 22.887C45.1261 27.6281 43.1478 32.1008 39.8873 35.5623C36.6268 39.0238 32.2802 41.2657 27.5695 41.9156C22.8588 42.5655 18.0675 41.5843 13.9915 39.1349C10.3933 36.9727 7.54364 33.7812 5.79863 29.9912C5.41366 29.1551 5.86337 28.1941 6.72756 27.8771C7.59176 27.5602 8.54212 28.0083 8.93979 28.8385C10.4141 31.9161 12.7626 34.5076 15.7084 36.2778C19.1323 38.3352 23.1569 39.1595 27.1139 38.6136C31.0709 38.0677 34.7221 36.1845 37.4609 33.2768C40.1997 30.3691 41.8615 26.612 42.17 22.6295C42.4785 18.647 41.4153 14.6787 39.157 11.3839C36.8987 8.08911 33.5812 5.66604 29.7555 4.51719C25.9298 3.36834 21.8262 3.56284 18.1263 5.0684C14.943 6.36377 12.2234 8.56259 10.2926 11.3765C9.77183 12.1354 8.76379 12.4318 7.95873 11.9856Z" fill="#525252"/>
<path d="M10.8919 14.4343C11.7028 14.1391 12.5941 14.5127 12.9618 15.2732C12.9863 15.3239 13.0085 15.3763 13.0281 15.4304L14.5482 19.6068C14.863 20.4718 14.4171 21.4282 13.5521 21.743C12.6871 22.0578 11.7307 21.6118 11.4159 20.7469L11.2574 20.3114L9.67556 23.7037C9.65179 23.7844 9.62169 23.8643 9.58505 23.9429C9.38709 24.3674 9.03557 24.6713 8.62746 24.8193C8.56631 24.8416 8.50384 24.8603 8.44039 24.8752C8.08227 24.9602 7.69401 24.9297 7.33451 24.762L4.66606 23.5177L3.12 26.8332C2.73804 27.6524 1.76437 28.0067 0.945257 27.6248C0.126139 27.2428 -0.228246 26.2692 0.153715 25.45L2.30768 20.8309C2.33145 20.7501 2.36154 20.6702 2.39818 20.5916C2.59607 20.1672 2.94742 19.8634 3.35534 19.7154C3.41677 19.693 3.47955 19.6742 3.5433 19.6592C3.90129 19.5743 4.28938 19.6049 4.64872 19.7725L7.31717 21.0168L8.29111 18.9282L7.8556 19.0867C6.99064 19.4015 6.03424 18.9555 5.71942 18.0906C5.40459 17.2256 5.85057 16.2692 6.71553 15.9544L10.8919 14.4343Z" fill="#525252"/>
<path d="M32.5396 25.4669C32.5396 27.019 31.9964 28.3285 30.91 29.3955C29.843 30.4625 28.3977 31.1318 26.574 31.4034V33.2368C26.574 33.683 26.4382 34.0419 26.1666 34.3135C25.895 34.6045 25.5361 34.75 25.0899 34.75C24.6437 34.75 24.2848 34.6045 24.0132 34.3135C23.7416 34.0419 23.6058 33.683 23.6058 33.2368V31.4616C22.5 31.3646 21.4233 31.1318 20.3756 30.7632C19.328 30.3946 18.4259 29.9096 17.6693 29.3082C17.4171 29.1336 17.2425 28.9396 17.1455 28.7262C17.0485 28.5128 17 28.2509 17 27.9405C17 27.5331 17.1164 27.1742 17.3492 26.8638C17.6014 26.5534 17.8827 26.3981 18.1931 26.3981C18.3871 26.3981 18.5617 26.4369 18.7169 26.5145C18.8915 26.5728 19.1146 26.6795 19.3862 26.8347C20.2786 27.4167 21.1516 27.8435 22.0053 28.1151C22.8783 28.3867 23.7901 28.5225 24.7407 28.5225C26.0405 28.5225 27.0396 28.2703 27.7381 27.7659C28.4559 27.2615 28.8148 26.534 28.8148 25.5833C28.8148 25.0207 28.6208 24.5648 28.2328 24.2156C27.8448 23.8664 27.3598 23.5948 26.7777 23.4008C26.1957 23.1874 25.3809 22.9449 24.3333 22.6733C22.8783 22.3047 21.6949 21.9361 20.783 21.5675C19.8712 21.1795 19.0855 20.5974 18.4259 19.8214C17.7663 19.0454 17.4365 17.9978 17.4365 16.6786C17.4365 15.1071 17.9991 13.7685 19.1243 12.6627C20.2495 11.5569 21.724 10.8682 23.5476 10.5966V8.76323C23.5476 8.31702 23.6834 7.95811 23.955 7.68651C24.2266 7.3955 24.5855 7.25 25.0317 7.25C25.4779 7.25 25.8368 7.3955 26.1084 7.68651C26.38 7.95811 26.5158 8.31702 26.5158 8.76323V10.5675C28.4753 10.8197 30.1631 11.5278 31.5793 12.6918C32.0449 13.041 32.2777 13.4969 32.2777 14.0595C32.2777 14.4669 32.1516 14.8258 31.8994 15.1362C31.6666 15.4466 31.3853 15.6019 31.0555 15.6019C30.8809 15.6019 30.7063 15.5728 30.5317 15.5146C30.3765 15.4563 30.1631 15.3399 29.8915 15.1653C29.0961 14.6027 28.3395 14.1856 27.6217 13.914C26.9233 13.623 26.089 13.4775 25.119 13.4775C23.9162 13.4775 22.9559 13.7491 22.2381 14.2923C21.5203 14.8161 21.1613 15.5437 21.1613 16.4749C21.1613 17.1151 21.365 17.6389 21.7725 18.0463C22.1799 18.4343 22.694 18.735 23.3148 18.9484C23.9356 19.1618 24.7795 19.4043 25.8465 19.6759C27.2628 20.0251 28.4171 20.384 29.3095 20.7526C30.2019 21.1213 30.9585 21.6839 31.5793 22.4405C32.2195 23.1777 32.5396 24.1865 32.5396 25.4669Z" fill="#525252"/>
</svg>
