<svg width="85" height="85" viewBox="0 0 85 85" fill="none" xmlns="http://www.w3.org/2000/svg">
    <path d="M10.625 26.6429H18.2717V51.622H10.625V26.6429ZM24.8988 15.9375H32.0357V51.622H24.8988V15.9375ZM39.1726 33.7723H46.3095V51.622H39.1726V33.7723Z" fill="#03B562"/>
    <path d="M24.3699 70.0116L25.4314 71.0732L26.4921 70.0108L40.7247 55.7544L49.8588 64.8884L50.9835 66.0131L52.0404 64.8244L73.706 40.457L74.6459 39.3999L73.6456 38.3997L70.0517 34.8057L68.9273 33.6813L67.8703 34.8694L50.8556 53.9959L41.7845 44.9248L40.7231 43.8635L39.6625 44.9255L20.5458 64.0677L19.4866 65.1284L20.5465 66.1883L24.3699 70.0116Z" fill="#03B562" stroke="white" stroke-width="3"/>
    <path d="M59.8406 33.8017H75.1339V49.095L67.4872 41.4484L59.8406 33.8017Z" fill="#03B562"/>
</svg>
