<svg width="24" height="24" viewBox="0 0 24 24" fill="none" xmlns="http://www.w3.org/2000/svg">
<path d="M22.1998 11.9998C22.1998 17.6331 17.6331 22.1998 11.9998 22.1998C6.3665 22.1998 1.7998 17.6331 1.7998 11.9998C1.7998 6.3665 6.3665 1.7998 11.9998 1.7998C17.6331 1.7998 22.1998 6.3665 22.1998 11.9998ZM3.4318 11.9998C3.4318 16.7318 7.26783 20.5678 11.9998 20.5678C16.7318 20.5678 20.5678 16.7318 20.5678 11.9998C20.5678 7.26783 16.7318 3.4318 11.9998 3.4318C7.26783 3.4318 3.4318 7.26783 3.4318 11.9998Z" fill="#A3A3A3"/>
<path d="M15.8589 14.1439C15.8589 14.8889 15.5981 15.5175 15.0766 16.0296C14.5645 16.5418 13.8707 16.8631 12.9954 16.9935V17.8735C12.9954 18.0876 12.9302 18.2599 12.7998 18.3903C12.6694 18.53 12.4972 18.5998 12.283 18.5998C12.0688 18.5998 11.8965 18.53 11.7662 18.3903C11.6358 18.2599 11.5706 18.0876 11.5706 17.8735V17.0214C11.0398 16.9748 10.523 16.8631 10.0201 16.6862C9.51727 16.5092 9.08425 16.2764 8.72108 15.9877C8.60002 15.9039 8.51621 15.8108 8.46965 15.7084C8.42309 15.6059 8.39981 15.4802 8.39981 15.3312C8.39981 15.1357 8.45568 14.9634 8.56742 14.8144C8.68848 14.6654 8.82351 14.5909 8.9725 14.5909C9.06563 14.5909 9.14943 14.6095 9.22393 14.6468C9.30774 14.6747 9.41483 14.7259 9.5452 14.8004C9.97356 15.0798 10.3926 15.2847 10.8023 15.415C11.2214 15.5454 11.6591 15.6106 12.1154 15.6106C12.7393 15.6106 13.2189 15.4895 13.5541 15.2474C13.8986 15.0053 14.0709 14.6561 14.0709 14.1998C14.0709 13.9298 13.9778 13.7109 13.7916 13.5433C13.6053 13.3757 13.3725 13.2453 13.0931 13.1522C12.8138 13.0498 12.4227 12.9334 11.9198 12.803C11.2214 12.626 10.6533 12.4491 10.2157 12.2722C9.77801 12.0859 9.40086 11.8066 9.08425 11.4341C8.76764 11.0616 8.60933 10.5587 8.60933 9.92552C8.60933 9.17123 8.87938 8.52869 9.41949 7.9979C9.95959 7.46711 10.6673 7.13652 11.5427 7.00615V6.12615C11.5427 5.91197 11.6078 5.7397 11.7382 5.60933C11.8686 5.46965 12.0409 5.3998 12.255 5.3998C12.4692 5.3998 12.6415 5.46965 12.7719 5.60933C12.9022 5.7397 12.9674 5.91197 12.9674 6.12615V6.99219C13.908 7.11324 14.7181 7.45314 15.3979 8.01187C15.6214 8.17949 15.7331 8.39832 15.7331 8.66838C15.7331 8.86393 15.6726 9.03621 15.5516 9.1852C15.4398 9.3342 15.3048 9.40869 15.1465 9.40869C15.0627 9.40869 14.9789 9.39473 14.895 9.36679C14.8205 9.33885 14.7181 9.28298 14.5877 9.19917C14.2059 8.92912 13.8428 8.72891 13.4982 8.59854C13.163 8.45885 12.7626 8.38901 12.2969 8.38901C11.7196 8.38901 11.2586 8.51938 10.9141 8.78012C10.5695 9.03155 10.3973 9.38076 10.3973 9.82774C10.3973 10.135 10.495 10.3865 10.6906 10.582C10.8862 10.7683 11.1329 10.9126 11.4309 11.015C11.7289 11.1175 12.134 11.2339 12.6462 11.3642C13.3259 11.5319 13.88 11.7041 14.3084 11.8811C14.7367 12.058 15.0999 12.3281 15.3979 12.6912C15.7052 13.0451 15.8589 13.5293 15.8589 14.1439Z" fill="#A3A3A3"/>
</svg>
