<svg width="24" height="24" viewBox="0 0 24 24" fill="none" xmlns="http://www.w3.org/2000/svg">
<path fill-rule="evenodd" clip-rule="evenodd" d="M17.2094 9.60019C17.2094 9.60019 12.986 15.2698 12.6556 15.6002C12.3253 15.9306 11.4558 16.2002 10.8556 15.6002C10.2554 15.0002 10.5253 14.1306 10.8556 13.8002C11.186 13.4698 17.2094 9.60019 17.2094 9.60019Z" fill="#A3A3A3"/>
<path fill-rule="evenodd" clip-rule="evenodd" d="M11.9996 5.8922C7.46646 5.8922 3.79161 9.56704 3.79161 14.1002C3.79161 15.559 4.17071 16.9243 4.83466 18.1082L4.83722 18.1082H19.162L19.1646 18.1082C19.8285 16.9243 20.2076 15.559 20.2076 14.1002C20.2076 9.56704 16.5328 5.8922 11.9996 5.8922ZM20.5962 19.0136C21.4255 17.5657 21.8996 15.8883 21.8996 14.1002C21.8996 8.63258 17.4672 4.2002 11.9996 4.2002C6.53199 4.2002 2.09961 8.63258 2.09961 14.1002C2.09961 15.8883 2.57367 17.5657 3.40297 19.0136C3.69376 19.5213 4.25215 19.8002 4.83722 19.8002H19.162C19.7471 19.8002 20.3055 19.5213 20.5962 19.0136Z" fill="#A3A3A3"/>
</svg>
