<svg width="16" height="20"  fill="none" xmlns="http://www.w3.org/2000/svg">
<path d="M2.98038 13C2.83257 13 2.71555 12.9561 2.62933 12.8682C2.54311 12.7803 2.5 12.6611 2.5 12.5105V8.99575C2.5 8.8493 2.539 8.73633 2.61701 8.65683C2.69502 8.57733 2.80588 8.53758 2.94958 8.53758H4.22056C4.69273 8.53758 5.06019 8.65892 5.32296 8.9016C5.58573 9.14428 5.71712 9.4832 5.71712 9.91836C5.71712 10.3535 5.58573 10.6924 5.32296 10.9351C5.06019 11.1778 4.69273 11.2991 4.22056 11.2991L3.46075 11.2991V12.5105C3.46075 12.6611 3.41764 12.7803 3.33142 12.8682C3.2452 12.9561 3.12818 13 2.98038 13ZM4.22056 10.5585C4.70094 10.5585 4.94113 10.3472 4.94113 9.92463C4.94113 9.49785 4.70094 9.28445 4.22056 9.28445H3.46075V10.5585H4.22056Z" fill="#03B562"/>
<path d="M6.78344 12.9623C6.63974 12.9623 6.52888 12.9226 6.45088 12.8431C6.37287 12.7636 6.33386 12.6506 6.33386 12.5042V8.99575C6.33386 8.8493 6.37287 8.73633 6.45088 8.65683C6.52888 8.57733 6.63974 8.53758 6.78344 8.53758H8.02134C9.12212 8.53758 9.48035 9.23006 9.661 9.56061C9.84166 9.89116 9.82813 10.2866 9.82813 10.7468C9.82813 11.2071 9.84166 11.6046 9.661 11.9393C9.04454 13.0815 8.02134 12.9624 8.02134 12.9624L6.78344 12.9623ZM7.95359 12.1715C8.87739 12.1715 8.97739 11.6966 8.97739 10.7468C8.97739 9.8012 8.87739 9.32839 7.95359 9.32839H7.29461V12.1715H7.95359Z" fill="#03B562"/>
<path d="M10.9565 12.9624C10.8128 12.9624 10.6958 12.9185 10.6054 12.8306C10.5192 12.7386 10.4761 12.6193 10.4761 12.4729V8.95817C10.4761 8.81172 10.5151 8.69875 10.5931 8.61925C10.6711 8.53975 10.782 8.5 10.9257 8.5H13.0443C13.2003 8.5 13.3152 8.53138 13.3891 8.59414C13.463 8.65691 13.5 8.75523 13.5 8.88913C13.5 9.01884 13.463 9.11507 13.3891 9.17784C13.3152 9.2406 13.2003 9.27198 13.0443 9.27198H11.4245V10.2887H12.9211C13.0771 10.2887 13.1921 10.3201 13.266 10.3829C13.3399 10.4456 13.3768 10.544 13.3768 10.6779C13.3768 10.8076 13.3399 10.9038 13.266 10.9666C13.1921 11.0293 13.0771 11.0607 12.9211 11.0607H11.4245V12.4729C11.4245 12.6235 11.3814 12.7428 11.2952 12.8306C11.2131 12.9185 11.1002 12.9624 10.9565 12.9624Z" fill="#03B562"/>
<path fill-rule="evenodd" clip-rule="evenodd" d="M2.18 0C0.976019 0 0 0.97602 0 2.18V17.82C0 19.024 0.976019 20 2.18 20H13.82C15.024 20 16 19.024 16 17.82V7.05132C16 6.47315 15.7703 5.91866 15.3615 5.50983L10.4902 0.638507C10.0813 0.229678 9.52685 0 8.94868 0H2.18ZM1.36 2.18C1.36 1.72713 1.72713 1.36 2.18 1.36H8.5V4.82001C8.5 6.024 9.47602 7.00001 10.68 7.00001H14.6384C14.6395 7.01705 14.64 7.03416 14.64 7.05132V17.82C14.64 18.2729 14.2729 18.64 13.82 18.64H2.18C1.72713 18.64 1.36 18.2729 1.36 17.82V2.18ZM13.5683 5.64001L9.86 1.93166V4.82001C9.86 5.27289 10.2271 5.64001 10.68 5.64001H13.5683Z" fill="#03B562"/>
</svg>
