<svg width="20" height="20" viewBox="0 0 20 20" fill="none" xmlns="http://www.w3.org/2000/svg">
<path d="M4.5 8.75C4.5 9.16421 4.16421 9.5 3.75 9.5C3.33579 9.5 3 9.16421 3 8.75C3 8.33579 3.33579 8 3.75 8C4.16421 8 4.5 8.33579 4.5 8.75Z" fill="#03B562"/>
<path d="M5.75 9.5C6.16421 9.5 6.5 9.16421 6.5 8.75C6.5 8.33579 6.16421 8 5.75 8C5.33579 8 5 8.33579 5 8.75C5 9.16421 5.33579 9.5 5.75 9.5Z" fill="#03B562"/>
<path fill-rule="evenodd" clip-rule="evenodd" d="M4.5 1.18V5.82001L2.18 5.82001C0.976019 5.82001 0 6.79603 0 8.00002V14C0 15.204 0.976019 16.18 2.18 16.18H4.5V18.82C4.5 19.4717 5.0283 20 5.68 20H14.32C14.9717 20 15.5 19.4717 15.5 18.82V16.18L17.82 16.18C19.024 16.18 20 15.204 20 14V8.00001C20 6.79603 19.024 5.82001 17.82 5.82001L15.5 5.82001V1.18C15.5 0.528304 14.9717 0 14.32 0H5.68C5.0283 0 4.5 0.528304 4.5 1.18ZM5.86 1.36V5.82001L14.14 5.82001V1.36H5.86ZM15.5 14.82L17.82 14.82C18.2729 14.82 18.64 14.4529 18.64 14V8.00001C18.64 7.54713 18.2729 7.18001 17.82 7.18001L2.18 7.18001C1.72713 7.18001 1.36 7.54714 1.36 8.00002V14C1.36 14.4529 1.72713 14.82 2.18 14.82H4.5V11.18C4.5 10.5283 5.0283 10 5.68 10H14.32C14.9717 10 15.5 10.5283 15.5 11.18V14.82ZM14.14 11.36H5.86V18.64H14.14V11.36Z" fill="#03B562"/>
<path d="M7 13.68C7 13.3044 7.30445 13 7.68 13H12.32C12.6956 13 13 13.3044 13 13.68C13 14.0556 12.6956 14.36 12.32 14.36H7.68C7.30445 14.36 7 14.0556 7 13.68Z" fill="#03B562"/>
<path d="M7.68 15.5C7.30445 15.5 7 15.8044 7 16.18C7 16.5556 7.30445 16.86 7.68 16.86H12.32C12.6956 16.86 13 16.5556 13 16.18C13 15.8044 12.6956 15.5 12.32 15.5H7.68Z" fill="#03B562"/>
</svg>
