<svg width="20" height="20" viewBox="0 0 20 20" fill="none" xmlns="http://www.w3.org/2000/svg">
<path d="M8.37174 6.2348C8.11511 5.94367 7.67593 5.92006 7.3908 6.18209C7.10566 6.44411 7.08255 6.89254 7.33917 7.18368L8.97497 9.03949H0.694587C0.310977 9.03949 0 9.35702 0 9.7487C0 10.1404 0.310977 10.4579 0.694587 10.4579H9.0397L7.32457 12.5334C7.07719 12.8328 7.11433 13.2803 7.40752 13.5328C7.70071 13.7854 8.13893 13.7475 8.38631 13.4481L11.0582 10.2148C11.1062 10.1587 11.1443 10.0964 11.1722 10.0305C11.1985 9.96837 11.2165 9.90164 11.2244 9.8318C11.2273 9.80682 11.2289 9.78174 11.2291 9.75667C11.2294 9.72999 11.2283 9.70327 11.2256 9.67667C11.2197 9.61663 11.2064 9.5588 11.1867 9.50414C11.1775 9.47828 11.1666 9.45285 11.1543 9.42797C11.1257 9.37027 11.0889 9.31592 11.0442 9.26677L8.37174 6.2348Z" fill="#44CFEE"/>
<path d="M1.94627 8.25611C1.54398 8.16323 1.28997 7.76039 1.41781 7.36781C1.9899 5.61108 3.12174 4.08129 4.65015 3.01941C6.38402 1.81479 8.50413 1.29855 10.5977 1.5712C12.6913 1.84385 14.6085 2.88588 15.976 4.4944C17.3435 6.10291 18.0634 8.16278 17.9956 10.2729C17.9278 12.3831 17.0772 14.3925 15.6092 15.91C14.1413 17.4274 12.1612 18.3442 10.0544 18.4819C7.94769 18.6196 5.86508 17.9684 4.21211 16.655C2.755 15.4972 1.72368 13.8979 1.26553 12.1081C1.16315 11.7081 1.44249 11.3224 1.84991 11.2555C2.25734 11.1886 2.6379 11.4664 2.74778 11.8643C3.1408 13.2879 3.97604 14.5577 5.14225 15.4844C6.50446 16.5667 8.22074 17.1034 9.95692 16.99C11.6931 16.8765 13.3249 16.1209 14.5346 14.8704C15.7443 13.6199 16.4454 11.9639 16.5012 10.2249C16.5571 8.48595 15.9638 6.78841 14.8368 5.46284C13.7099 4.13726 12.1299 3.27852 10.4046 3.05383C8.67931 2.82914 6.93212 3.25457 5.50324 4.2473C4.27996 5.09718 3.36494 6.31077 2.88136 7.70616C2.74617 8.09627 2.34856 8.34898 1.94627 8.25611Z" fill="#44CFEE"/>
</svg>
