<svg width="85" height="85" viewBox="0 0 85 85" fill="none" xmlns="http://www.w3.org/2000/svg">
<path d="M42.2241 12.9018C26.0382 12.9018 12.9019 26.0381 12.9019 42.224C12.9019 58.4099 26.0382 71.5463 42.2241 71.5463C58.41 71.5463 71.5463 58.4099 71.5463 42.224C71.5463 26.0381 58.41 12.9018 42.2241 12.9018ZM42.2241 65.6818C29.293 65.6818 18.7663 55.1551 18.7663 42.224C18.7663 29.2929 29.293 18.7662 42.2241 18.7662C55.1552 18.7662 65.6819 29.2929 65.6819 42.224C65.6819 55.1551 55.1552 65.6818 42.2241 65.6818ZM43.1331 39.7023C37.943 38.3828 36.2717 36.946 36.2717 34.8055C36.2717 32.3424 38.5881 30.6124 42.4293 30.6124C46.4758 30.6124 48.0006 32.5477 48.1179 35.4213H53.132C52.9854 31.4921 50.5809 27.8854 45.8307 26.7126V21.6985H38.9986V26.6539C34.571 27.5922 31.023 30.4658 31.023 34.8935C31.023 40.1421 35.392 42.7811 41.7549 44.3059C47.4728 45.6547 48.6163 47.678 48.6163 49.7892C48.6163 51.3432 47.4728 53.8649 42.4587 53.8649C37.7671 53.8649 35.9198 51.7537 35.6559 49.0561H30.6125C30.9057 54.0409 34.6003 56.8558 38.9986 57.7648V62.7496H45.8601V57.8528C50.317 57.0024 53.8357 54.4514 53.865 49.7305C53.8357 43.2796 48.2938 41.0511 43.1331 39.7023Z" fill="#03B562" stroke="white"/>
<path d="M28.3215 40.2232L28.3215 39.2232L27.3215 39.2232L21.4912 39.2232L21.4912 32.6339L21.4912 31.6339L20.4912 31.6339L15.9376 31.6339L14.9376 31.6339L14.9376 32.6339L14.9376 39.2232L9.10725 39.2232L8.10725 39.2232L8.10725 40.2232L8.10725 44.7768L8.10725 45.7768L9.10725 45.7768L14.9376 45.7768L14.9376 52.3661L14.9376 53.3661L15.9376 53.3661L20.4912 53.3661L21.4912 53.3661L21.4912 52.3661L21.4912 45.7768L27.3215 45.7768L28.3215 45.7768L28.3215 44.7768L28.3215 40.2232Z" fill="#03B562" stroke="white" stroke-width="2"/>
</svg>
