<svg width="46" height="43" viewBox="0 0 46 43" fill="none" xmlns="http://www.w3.org/2000/svg">
<path d="M7.35132 13.1776C6.51709 12.7886 6.15041 11.7929 6.60483 10.9924C8.66467 7.36392 11.7745 4.42531 15.543 2.57568C19.8118 0.480462 24.669 -0.0913053 29.3077 0.955349C33.9464 2.002 38.0874 4.60408 41.043 8.32938C43.9985 12.0547 45.5907 16.679 45.555 21.4341C45.5193 26.1893 43.8579 30.7892 40.8468 34.4697C37.8356 38.1502 33.656 40.6898 29.0021 41.6668C24.3482 42.6437 19.5002 41.9991 15.2633 39.84C11.523 37.934 8.45763 34.9491 6.45249 31.2901C6.01014 30.4829 6.39172 29.4928 7.2317 29.1163C8.07168 28.7399 9.05098 29.1206 9.50559 29.921C11.191 32.8883 13.7146 35.3096 16.7767 36.87C20.3357 38.6837 24.4081 39.2251 28.3173 38.4045C32.2266 37.5839 35.7375 35.4506 38.2668 32.359C40.7962 29.2674 42.1917 25.4035 42.2217 21.4091C42.2517 17.4148 40.9143 13.5304 38.4316 10.4011C35.949 7.27188 32.4705 5.08613 28.574 4.20694C24.6775 3.32775 20.5975 3.80803 17.0116 5.56801C13.9264 7.08228 11.3668 9.46545 9.63704 12.4072C9.17046 13.2006 8.18556 13.5666 7.35132 13.1776Z" fill="#525252"/>
<path d="M6.11111 27.1111C7.03159 27.1111 7.77778 26.3649 7.77778 25.4444L7.77778 22.6667H10.5556C11.476 22.6667 12.2222 21.9205 12.2222 21C12.2222 20.0795 11.476 19.3333 10.5556 19.3333H7.77778L7.77778 16.5556C7.77778 15.6351 7.03159 14.8889 6.11111 14.8889C5.19064 14.8889 4.44445 15.6351 4.44445 16.5556V19.3333H1.66667C0.746192 19.3333 0 20.0795 0 21C0 21.9205 0.746192 22.6667 1.66667 22.6667H4.44444L4.44444 25.4444C4.44444 26.3649 5.19064 27.1111 6.11111 27.1111Z" fill="#525252"/>
<path d="M32.5396 25.4669C32.5396 27.019 31.9964 28.3285 30.91 29.3955C29.843 30.4625 28.3977 31.1318 26.574 31.4034V33.2368C26.574 33.683 26.4382 34.0419 26.1666 34.3135C25.895 34.6045 25.5361 34.75 25.0899 34.75C24.6437 34.75 24.2848 34.6045 24.0132 34.3135C23.7416 34.0419 23.6058 33.683 23.6058 33.2368V31.4616C22.5 31.3646 21.4233 31.1318 20.3756 30.7632C19.328 30.3946 18.4259 29.9096 17.6693 29.3082C17.4171 29.1336 17.2425 28.9396 17.1455 28.7262C17.0485 28.5128 17 28.2509 17 27.9405C17 27.5331 17.1164 27.1742 17.3492 26.8638C17.6014 26.5534 17.8827 26.3982 18.1931 26.3982C18.3871 26.3982 18.5617 26.437 18.7169 26.5146C18.8915 26.5728 19.1146 26.6795 19.3862 26.8347C20.2786 27.4167 21.1516 27.8435 22.0053 28.1151C22.8783 28.3867 23.7901 28.5225 24.7407 28.5225C26.0405 28.5225 27.0396 28.2703 27.7381 27.7659C28.4559 27.2615 28.8148 26.534 28.8148 25.5833C28.8148 25.0207 28.6208 24.5648 28.2328 24.2156C27.8448 23.8664 27.3598 23.5948 26.7777 23.4008C26.1957 23.1874 25.3809 22.9449 24.3333 22.6733C22.8783 22.3047 21.6949 21.9361 20.783 21.5675C19.8712 21.1795 19.0855 20.5974 18.4259 19.8214C17.7663 19.0454 17.4365 17.9978 17.4365 16.6786C17.4365 15.1071 17.9991 13.7685 19.1243 12.6627C20.2495 11.5569 21.724 10.8682 23.5476 10.5966V8.76323C23.5476 8.31703 23.6834 7.95812 23.955 7.68651C24.2266 7.39551 24.5855 7.25001 25.0317 7.25001C25.4779 7.25001 25.8368 7.39551 26.1084 7.68651C26.38 7.95812 26.5158 8.31703 26.5158 8.76323V10.5675C28.4753 10.8197 30.1631 11.5278 31.5793 12.6918C32.0449 13.041 32.2777 13.4969 32.2777 14.0595C32.2777 14.4669 32.1516 14.8258 31.8994 15.1362C31.6666 15.4467 31.3853 15.6019 31.0555 15.6019C30.8809 15.6019 30.7063 15.5728 30.5317 15.5146C30.3765 15.4564 30.1631 15.34 29.8915 15.1653C29.0961 14.6027 28.3395 14.1856 27.6217 13.914C26.9233 13.623 26.089 13.4775 25.119 13.4775C23.9162 13.4775 22.9559 13.7491 22.2381 14.2923C21.5203 14.8161 21.1613 15.5437 21.1613 16.4749C21.1613 17.1151 21.365 17.6389 21.7725 18.0463C22.1799 18.4343 22.694 18.735 23.3148 18.9484C23.9356 19.1618 24.7795 19.4043 25.8465 19.6759C27.2628 20.0251 28.4171 20.384 29.3095 20.7527C30.2019 21.1213 30.9585 21.6839 31.5793 22.4405C32.2195 23.1777 32.5396 24.1865 32.5396 25.4669Z" fill="#525252"/>
</svg>
