<svg width="72" height="72" viewBox="0 0 72 72" fill="none" xmlns="http://www.w3.org/2000/svg">
<path d="M28.8412 12.0318C24.2181 12.0318 20.4569 15.912 20.4569 20.6814C20.4569 25.4508 24.2181 29.331 28.8412 29.331C33.4644 29.331 37.2258 25.4508 37.2258 20.6814C37.2258 15.912 33.4644 12.0318 28.8412 12.0318ZM29.5679 13.5678L29.7481 13.5922C32.8526 14.0127 35.3054 16.5432 35.7131 19.7457L35.7368 19.9318H29.5679V13.5678ZM35.7131 21.6173C35.2623 25.1601 32.3079 27.8317 28.8412 27.8317C25.0195 27.8317 21.9104 24.6242 21.9104 20.6816C21.9104 17.1054 24.5 14.0578 27.9342 13.5925L28.1145 13.5681V20.6817C28.1145 21.0953 28.4406 21.4315 28.8412 21.4315H35.7368L35.7131 21.6173Z" fill="#FFF"/>
<path d="M38.5991 46.2763C38.5991 45.5029 37.9892 44.8738 37.2396 44.8738H34.6926C33.943 44.8738 33.3331 45.5029 33.3331 46.2763V59.3968C33.3331 60.1702 33.943 60.7995 34.6926 60.7995H37.2396C37.9892 60.7995 38.5991 60.1702 38.5991 59.3968V46.2763ZM37.0428 59.1942H34.8892V46.4793H37.0428V59.1942Z" fill="#FFF"/>
<path d="M52.898 46.2763C52.898 45.5029 52.2881 44.8738 51.5385 44.8738H48.9907C48.2412 44.8738 47.6313 45.5029 47.6313 46.2763V59.3968C47.6313 60.1702 48.2412 60.7995 48.9907 60.7995H51.5385C52.2881 60.7995 52.898 60.1702 52.898 59.3968V46.2763ZM51.3416 59.1942H49.1875V46.4793H51.3416V59.1942Z" fill="#FFF"/>
<path d="M31.5192 49.6883C31.5192 48.9151 30.9093 48.2859 30.1596 48.2859H27.6121C26.8624 48.2859 26.2526 48.9151 26.2526 49.6883V59.3663C26.2526 60.1397 26.8624 60.769 27.6121 60.769H30.1596C30.9093 60.769 31.5192 60.1397 31.5192 59.3663V49.6883ZM29.9631 59.1636H27.8088V49.8914H29.9631V59.1636Z" fill="#FFF"/>
<path d="M45.7698 49.7188C45.7698 48.9455 45.16 48.3164 44.4103 48.3164H41.8626C41.1131 48.3164 40.5032 48.9455 40.5032 49.7188V59.3968C40.5032 60.1702 41.1131 60.7995 41.8626 60.7995H44.4103C45.16 60.7995 45.7698 60.1702 45.7698 59.3968V49.7188ZM44.2136 59.1941H42.0595V49.9219H44.2136V59.1941Z" fill="#FFF"/>
<path d="M24.4337 54.0079C24.4337 53.2346 23.8239 52.6054 23.0742 52.6054H20.5264C19.7768 52.6054 19.1671 53.2346 19.1671 54.0079V59.3968C19.1671 60.1702 19.7768 60.7995 20.5264 60.7995H23.0742C23.8239 60.7995 24.4337 60.1702 24.4337 59.3968V54.0079ZM22.8777 59.1938H20.7231V54.2108H22.8777V59.1938Z" fill="#FFF"/>
<path d="M29.7478 32.3839C29.7478 32.7896 29.429 33.1187 29.0356 33.1187H20.1948C19.8014 33.1187 19.4826 32.7896 19.4826 32.3839C19.4826 31.9781 19.8014 31.6492 20.1948 31.6492H29.0356C29.4288 31.6492 29.7478 31.9781 29.7478 32.3839Z" fill="#FFF"/>
<path d="M35.0683 35.3707C35.0683 35.7764 34.7496 36.1055 34.3562 36.1055H20.1947C19.8013 36.1055 19.4825 35.7764 19.4825 35.3707C19.4825 34.9649 19.8013 34.636 20.1947 34.636H34.3562C34.7496 34.636 35.0683 34.9649 35.0683 35.3707Z" fill="#FFF"/>
<path d="M35.0683 38.3575C35.0683 38.7632 34.7496 39.0922 34.3562 39.0922H20.1947C19.8013 39.0922 19.4825 38.7632 19.4825 38.3575C19.4825 37.9516 19.8013 37.6227 20.1947 37.6227H34.3562C34.7496 37.6227 35.0683 37.9516 35.0683 38.3575Z" fill="#FFF"/>
<path d="M52.5712 35.3707C52.5712 35.7764 52.2524 36.1055 51.8591 36.1055H37.6974C37.304 36.1055 36.9852 35.7764 36.9852 35.3707C36.9852 34.9649 37.304 34.636 37.6974 34.636H51.8591C52.2524 34.636 52.5712 34.9649 52.5712 35.3707Z" fill="#FFF"/>
<path d="M52.5712 38.3575C52.5712 38.7632 52.2524 39.0922 51.8591 39.0922H37.6974C37.304 39.0922 36.9852 38.7632 36.9852 38.3575C36.9852 37.9516 37.304 37.6227 37.6974 37.6227H51.8591C52.2524 37.6227 52.5712 37.9516 52.5712 38.3575Z" fill="#FFF"/>
<path d="M34.8324 41.3443C34.8324 41.75 34.5135 42.079 34.1201 42.079H20.1947C19.8013 42.079 19.4825 41.75 19.4825 41.3443C19.4825 40.9384 19.8013 40.6095 20.1947 40.6095H34.1201C34.5135 40.6095 34.8324 40.9384 34.8324 41.3443Z" fill="#FFF"/>
<path d="M44.8858 41.3443C44.8858 41.75 44.567 42.079 44.1736 42.079H37.6975C37.3042 42.079 36.9853 41.75 36.9853 41.3443C36.9853 40.9384 37.3042 40.6095 37.6975 40.6095H44.1736C44.567 40.6095 44.8858 40.9384 44.8858 41.3443Z" fill="#FFF"/>
<path d="M55.6163 15.2432L48.9819 8.26931C48.9819 8.26931 48.0831 7.07143 46.2514 7.07143C44.4197 7.07143 18.2398 7.07143 18.2398 7.07143C16.6897 7.07143 15.4286 8.37244 15.4286 9.9714V62.0286C15.4286 63.6276 16.6897 64.9286 18.2398 64.9286H53.7604C55.3103 64.9286 56.5714 63.6276 56.5714 62.0286C56.5714 62.0286 56.5714 19.621 56.5714 17.8838C56.5714 16.1466 55.6163 15.2432 55.6163 15.2432ZM48.2309 9.60312L54.1177 15.6759H48.2309V9.60312ZM53.7604 63.429H18.2398C17.4912 63.429 16.8821 62.8008 16.8821 62.0286V9.9714C16.8821 9.19923 17.4912 8.57091 18.2398 8.57091H46.7935V16.4174C46.7935 16.6587 46.9057 16.8724 47.079 17.0079C47.1995 17.1021 47.3491 17.1587 47.5121 17.1587H55.1178V62.0286C55.1178 62.8008 54.5089 63.429 53.7604 63.429Z" fill="#FFF"/>
</svg>
