<svg width="22" height="22" viewBox="0 0 22 22" fill="none" xmlns="http://www.w3.org/2000/svg">
<rect width="22" height="22" rx="4" fill="#EB1F44" fill-opacity="0.15"/>
<path d="M6.0002 8.3644C6.17984 8.1606 6.48726 8.14408 6.68686 8.3275C6.88645 8.51091 6.90263 8.82481 6.723 9.02861L5.57794 10.3277H11.3742C11.6427 10.3277 11.8604 10.5499 11.8604 10.8241C11.8604 11.0983 11.6427 11.3206 11.3742 11.3206H5.53263L6.73322 12.7734C6.90638 12.983 6.88039 13.2962 6.67515 13.473C6.46992 13.6498 6.16317 13.6233 5.99 13.4137L4.1197 11.1504C4.08605 11.1111 4.05942 11.0675 4.0399 11.0214C4.02144 10.9779 4.0089 10.9312 4.00331 10.8823C4.00131 10.8648 4.00022 10.8473 4.00003 10.8297C3.99982 10.811 4.00064 10.7923 4.00249 10.7737C4.00664 10.7317 4.01592 10.6912 4.02969 10.6529C4.0362 10.6348 4.04377 10.617 4.05243 10.5996C4.07246 10.5592 4.09817 10.5212 4.12945 10.4868L6.0002 8.3644Z" fill="#EB1F44"/>
<path d="M6.50178 14.4808C6.27548 14.6707 6.24436 15.0101 6.45381 15.2184C7.17962 15.9404 8.08188 16.4652 9.07493 16.7378C10.2405 17.0577 11.4758 17.0151 12.6165 16.6157C13.7573 16.2162 14.7493 15.4788 15.4606 14.5016C16.1719 13.5244 16.5687 12.3537 16.5982 11.1454C16.6277 9.93713 16.2886 8.74849 15.6259 7.73771C14.9632 6.72692 14.0084 5.94193 12.8885 5.48721C11.7687 5.03248 10.5369 4.92959 9.3571 5.19222C8.35191 5.41598 7.4251 5.89605 6.66488 6.58174C6.44551 6.7796 6.46001 7.12009 6.67677 7.32081C6.89353 7.52153 7.23022 7.50594 7.45345 7.31244C8.0631 6.78397 8.7966 6.41299 9.58956 6.23646C10.5572 6.02105 11.5675 6.10545 12.486 6.47842C13.4045 6.85138 14.1877 7.49523 14.7312 8.32428C15.2748 9.15332 15.5529 10.1282 15.5287 11.1193C15.5045 12.1103 15.179 13.0705 14.5956 13.872C14.0122 14.6735 13.1986 15.2783 12.263 15.606C11.3273 15.9336 10.3141 15.9686 9.35813 15.7061C8.57474 15.4911 7.86024 15.0847 7.27713 14.5271C7.06362 14.3229 6.72809 14.2909 6.50178 14.4808Z" fill="#EB1F44"/>
</svg>
