<svg width="22" height="24" viewBox="0 0 22 24" fill="none" xmlns="http://www.w3.org/2000/svg">
<path fill-rule="evenodd" clip-rule="evenodd" d="M12.4921 0.599976C7.64899 0.599976 3.72288 4.52609 3.72288 9.36919C3.72288 11.8013 4.713 14.0022 6.31216 15.5907L1.00308 21.9616C0.693031 22.3337 0.743299 22.8867 1.11536 23.1967C1.48741 23.5068 2.04037 23.4565 2.35042 23.0844L7.67333 16.6969C9.05615 17.6081 10.7122 18.1384 12.4921 18.1384C17.3352 18.1384 21.2613 14.2123 21.2613 9.36919C21.2613 4.52609 17.3352 0.599976 12.4921 0.599976ZM5.47672 9.36919C5.47672 5.49471 8.61761 2.35382 12.4921 2.35382C16.3666 2.35382 19.5075 5.49471 19.5075 9.36919C19.5075 13.2437 16.3666 16.3846 12.4921 16.3846C8.61761 16.3846 5.47672 13.2437 5.47672 9.36919Z" fill="#A3A3A3"/>
</svg>
