<svg width="40" height="40" viewBox="0 0 40 40" fill="none" xmlns="http://www.w3.org/2000/svg">
<rect width="40" height="40" rx="6" fill="#F2B705" fill-opacity="0.15"/>
<path fill-rule="evenodd" clip-rule="evenodd" d="M19.1469 24.899C19.1862 24.9046 19.2264 24.9075 19.2672 24.9075L24.7671 24.9075C25.1251 26.0302 26.1766 26.8433 27.418 26.8433C28.9543 26.8433 30.1998 25.5978 30.1998 24.0615C30.1998 22.9986 29.6037 22.075 28.7276 21.6066V19.1C28.7276 19.0766 28.7267 19.0534 28.7248 19.0304L28.7255 19.0217C28.7588 18.5557 28.4079 18.1509 27.9419 18.1176L21.8998 17.686L21.8888 17.6837L19.3426 13.4401C19.326 13.4112 19.3078 13.3835 19.288 13.3569C19.2169 13.2609 19.1282 13.1837 19.0293 13.1271C18.9266 13.0682 18.8104 13.0302 18.6864 13.019C18.6556 13.0161 18.6245 13.0149 18.5934 13.0155L13.9725 13.0155C13.9588 13.0155 13.9452 13.0158 13.9317 13.0164C13.4834 13.0377 13.1265 13.4079 13.1265 13.8615L13.1266 16.7246H11.6548C11.1875 16.7246 10.8084 17.1033 10.8084 17.5706C10.8084 18.0378 11.1871 18.4166 11.6543 18.4166H13.5089C15.0599 18.4166 16.2483 19.1882 17.0834 20.0233C17.787 20.7269 18.3106 22.0332 18.182 24.0064C18.1516 24.4726 18.5049 24.8753 18.9711 24.9057C19.031 24.9096 19.0898 24.9071 19.1469 24.899ZM20.1226 18.0287L18.1299 14.7075L14.8185 14.7075L14.8186 16.8625C16.1492 17.1483 17.2065 17.8382 17.9872 18.5478L20.1226 18.0287ZM19.1409 20.0086C19.6034 20.8889 19.8645 21.9735 19.891 23.2155L24.7671 23.2155C25.0877 22.2101 25.9644 21.453 27.0356 21.3057V19.7492L21.7584 19.3722L19.1409 20.0086ZM28.5078 24.0615C28.5078 24.6634 28.0199 25.1513 27.418 25.1513C26.8161 25.1513 26.3282 24.6634 26.3282 24.0615C26.3282 23.4596 26.8161 22.9716 27.418 22.9716C28.0199 22.9716 28.5078 23.4596 28.5078 24.0615Z" fill="#525252"/>
<path fill-rule="evenodd" clip-rule="evenodd" d="M13.5089 26.8433C15.5574 26.8433 17.218 25.1827 17.218 23.1342C17.218 21.0857 15.5574 19.4251 13.5089 19.4251C11.4604 19.4251 9.7998 21.0857 9.7998 23.1342C9.7998 25.1827 11.4604 26.8433 13.5089 26.8433ZM13.5089 25.1513C14.6229 25.1513 15.526 24.2482 15.526 23.1342C15.526 22.0202 14.6229 21.1171 13.5089 21.1171C12.3949 21.1171 11.4918 22.0202 11.4918 23.1342C11.4918 24.2482 12.3949 25.1513 13.5089 25.1513Z" fill="#525252"/>
</svg>
