<svg width="117" height="117" viewBox="0 0 117 117" fill="none" xmlns="http://www.w3.org/2000/svg">
<rect x="1" y="1" width="115" height="115" rx="57.5" stroke="#EBEBEB" stroke-width="2"/>
<path fill-rule="evenodd" clip-rule="evenodd" d="M40.5738 65.2971C44.5937 62.1183 50.5954 60.0726 59.236 60.0726C67.9316 60.0726 73.9026 62.1448 77.8393 65.3744C81.7897 68.6152 83.4879 72.8545 83.9532 76.7676C84.4732 81.1411 80.5651 83.9569 76.8469 83.9569H41.1494C37.3618 83.9569 33.3829 81.0167 34.0801 76.5617C34.6896 72.6674 36.5415 68.4857 40.5738 65.2971ZM42.7362 68.0317C39.5159 70.5781 38.0247 73.9042 37.5244 77.1008C37.2648 78.7592 38.7493 80.4706 41.1494 80.4706H76.8469C79.1926 80.4706 80.6873 78.8271 80.4914 77.1792C80.1093 73.9656 78.7442 70.626 75.6281 68.0697C72.4984 65.5021 67.3999 63.5588 59.236 63.5588C51.129 63.5588 45.9687 65.4754 42.7362 68.0317Z" fill="#A3A3A3"/>
<path fill-rule="evenodd" clip-rule="evenodd" d="M59.069 55.2387C63.9712 55.2387 67.9453 51.2647 67.9453 46.3625C67.9453 41.4603 63.9712 37.4862 59.069 37.4862C54.1668 37.4862 50.1928 41.4603 50.1928 46.3625C50.1928 51.2647 54.1668 55.2387 59.069 55.2387ZM59.069 58.7249C65.8966 58.7249 71.4315 53.1901 71.4315 46.3625C71.4315 39.5349 65.8966 34 59.069 34C52.2414 34 46.7065 39.5349 46.7065 46.3625C46.7065 53.1901 52.2414 58.7249 59.069 58.7249Z" fill="#A3A3A3"/>
<rect x="87" y="87" width="30" height="30" rx="15" fill="#03B562"/>
<path d="M102.556 94.9053C102.556 94.5984 102.307 94.3496 102 94.3496C101.693 94.3496 101.444 94.5984 101.444 94.9053V101.444H94.9058C94.5989 101.444 94.3501 101.693 94.3501 102C94.3501 102.307 94.5989 102.555 94.9058 102.555H101.444V109.094C101.444 109.401 101.693 109.65 102 109.65C102.307 109.65 102.556 109.401 102.556 109.094V102.555H109.094C109.401 102.555 109.65 102.307 109.65 102C109.65 101.693 109.401 101.444 109.094 101.444H102.556V94.9053Z" fill="white"/>
</svg>
