<svg width="21" height="22" viewBox="0 0 21 22" fill="none" xmlns="http://www.w3.org/2000/svg">
<path fill-rule="evenodd" clip-rule="evenodd" d="M7.1008 0.799805C5.6608 0.799805 5.7008 1.7998 5.9008 2.2998L8.3008 5.5998C7.78678 5.87193 7.30019 6.16235 6.84071 6.4689C2.74141 9.20385 0.800781 13.2231 0.800781 16.9998C0.800781 20.3598 3.60078 21.1998 5.00078 21.1998H16.7008C18.1008 21.1998 20.9008 20.3598 20.9008 16.9998C20.9008 13.2231 18.9602 9.20385 14.8609 6.4689C14.4014 6.16235 13.9148 5.87193 13.4008 5.5998L15.8008 2.2998C16.0008 1.7998 16.0408 0.799805 14.6008 0.799805H7.1008ZM10.0622 5.14508C10.3191 5.13425 10.5861 5.12898 10.8509 5.129C11.1155 5.12903 11.3825 5.13434 11.6392 5.14521L13.569 2.4918H8.13259L10.0622 5.14508ZM9.50235 6.87817L9.09247 7.09517C4.51115 9.52059 2.49278 13.4654 2.49278 16.9998C2.49278 18.1283 2.92511 18.6704 3.36443 18.9867C3.89002 19.3651 4.57154 19.5078 5.00078 19.5078H16.7008C17.13 19.5078 17.8115 19.3651 18.3371 18.9867C18.7765 18.6704 19.2088 18.1283 19.2088 16.9998C19.2088 13.4654 17.1904 9.52059 12.6091 7.09517L12.1998 6.87848C12.1836 6.87688 12.1672 6.8753 12.1505 6.87374C11.7799 6.83923 11.3195 6.82105 10.8507 6.821C10.3819 6.82096 9.92154 6.83906 9.55098 6.87351C9.5345 6.87504 9.5183 6.8766 9.50235 6.87817Z" fill="#A3A3A3"/>
</svg>
