<svg width="40" height="40" viewBox="0 0 40 40" fill="none" xmlns="http://www.w3.org/2000/svg">
<rect width="40" height="40" rx="6" fill="#77DCF2" fill-opacity="0.15"/>
<path fill-rule="evenodd" clip-rule="evenodd" d="M12.0645 8.70996C12.2999 8.27269 12.7565 8 13.2531 8H26.7469C27.2435 8 27.7001 8.27269 27.9355 8.70997L31.8386 15.9586C31.9446 16.1553 32 16.3752 32 16.5986V30.65C32 31.3956 31.3956 32 30.65 32H9.35C8.60441 32 8 31.3956 8 30.65V16.5986C8 16.3752 8.05545 16.1553 8.16136 15.9586L12.0645 8.70996ZM13.3427 9.5L9.62732 16.4H19.4V9.5H13.3427ZM20.9 9.5V16.4H30.3727L26.6573 9.5H20.9ZM9.5 30.5V17.9H30.5V30.5H9.5Z" fill="#13ABCD"/>
</svg>
