<svg width="21" height="20" viewBox="0 0 21 20" fill="none" xmlns="http://www.w3.org/2000/svg">
<path fill-rule="evenodd" clip-rule="evenodd" d="M13.202 3.66334C13.2081 3.65697 13.2144 3.65074 13.2207 3.64463L15.1605 1.70483C15.1818 1.6827 15.2045 1.66213 15.2285 1.64324C15.2956 1.59007 15.3707 1.5517 15.4492 1.52814C15.5684 1.49238 15.6956 1.4907 15.8155 1.52311C16.6044 1.72471 18.2626 2.54735 18.9517 4.36461C18.9659 4.39987 18.977 4.43611 18.985 4.47288C19.0054 4.56649 19.0048 4.66106 18.9859 4.7509C18.9583 4.88146 18.8919 5.00206 18.7945 5.09528L16.8563 7.03354C16.8497 7.04041 16.843 7.04715 16.8361 7.05376L14.3994 9.49041L14.3983 9.4915L7.06372 16.8261C7.05716 16.833 7.05046 16.8397 7.0436 16.8462L6.95195 16.9379L2.907 18.4547C2.83087 18.4843 2.74903 18.5001 2.6654 18.5C2.63264 18.5 2.59961 18.4975 2.56655 18.4924C2.52489 18.4861 2.48405 18.4759 2.44458 18.4619C2.35328 18.4298 2.27315 18.3795 2.20699 18.3165C2.14187 18.2546 2.08839 18.1786 2.05176 18.0909C2.02844 18.0352 2.01259 17.9763 2.00506 17.9156C1.99283 17.8174 2.00304 17.7194 2.03273 17.6282L3.25242 13.7252C3.25392 13.7202 3.25548 13.7152 3.25709 13.7102L3.30344 13.5619L3.40954 13.4558C3.41563 13.4495 3.42184 13.4433 3.42815 13.4372L10.7637 6.10167L10.7645 6.10082L13.202 3.66334ZM15.8193 2.92945L14.8529 3.89585C15.4284 4.21822 16.0688 4.72309 16.5505 5.45586L17.5381 4.46829C17.0912 3.63889 16.3405 3.15111 15.8193 2.92945ZM4.31291 14.7966L3.70809 16.732L5.65765 16.0009C5.2788 15.4167 4.75225 15.0264 4.31291 14.7966ZM6.75802 15.2484C6.27623 14.5156 5.63591 14.0107 5.06041 13.6884L13.8608 4.88795C14.382 5.10961 15.1327 5.59739 15.5796 6.4268L6.75802 15.2484Z" fill="#44CFEE"/>
</svg>
