<svg width="22" height="22" viewBox="0 0 22 22" fill="none" xmlns="http://www.w3.org/2000/svg">
<rect width="22" height="22" rx="4" fill="#77DCF2" fill-opacity="0.3"/>
<path d="M9.86022 8.36441C9.68058 8.16061 9.37315 8.14409 9.17356 8.32751C8.97397 8.51093 8.95779 8.82483 9.13742 9.02862L10.2825 10.3277H4.48621C4.21768 10.3277 4 10.55 4 10.8241C4 11.0983 4.21768 11.3206 4.48621 11.3206H10.3278L9.1272 12.7735C8.95404 12.983 8.98003 13.2962 9.18526 13.473C9.3905 13.6498 9.69725 13.6233 9.87041 13.4138L11.7407 11.1504C11.7744 11.1111 11.801 11.0675 11.8205 11.0214C11.839 10.9779 11.8515 10.9312 11.8571 10.8823C11.8591 10.8648 11.8602 10.8473 11.8604 10.8297C11.8606 10.811 11.8598 10.7923 11.8579 10.7737C11.8538 10.7317 11.8445 10.6912 11.8307 10.6529C11.8242 10.6348 11.8166 10.617 11.808 10.5996C11.788 10.5592 11.7622 10.5212 11.731 10.4868L9.86022 8.36441Z" fill="#13ABCD"/>
<path d="M5.36239 9.77932C5.08078 9.71431 4.90298 9.43232 4.99247 9.15751C5.39293 7.9278 6.18522 6.85695 7.25511 6.11363C8.46881 5.2704 9.95289 4.90903 11.4184 5.09989C12.8839 5.29075 14.2259 6.02016 15.1832 7.14613C16.1404 8.27209 16.6444 9.714 16.5969 11.1911C16.5495 12.6682 15.954 14.0748 14.9265 15.137C13.8989 16.1992 12.5128 16.841 11.0381 16.9374C9.56338 17.0338 8.10556 16.5779 6.94848 15.6585C5.9285 14.8481 5.20658 13.7286 4.88587 12.4757C4.8142 12.1957 5.00974 11.9257 5.29494 11.8789C5.58014 11.8321 5.84653 12.0265 5.92345 12.3051C6.19856 13.3016 6.78323 14.1904 7.59957 14.8391C8.55312 15.5968 9.75452 15.9725 10.9698 15.893C12.1852 15.8136 13.3274 15.2847 14.1742 14.4093C15.021 13.534 15.5118 12.3748 15.5509 11.1575C15.59 9.94022 15.1747 8.75194 14.3858 7.82403C13.5969 6.89613 12.491 6.29501 11.2832 6.13773C10.0755 5.98045 8.85248 6.27825 7.85227 6.97316C6.99597 7.56808 6.35546 8.41759 6.01695 9.39436C5.92232 9.66744 5.64399 9.84434 5.36239 9.77932Z" fill="#13ABCD"/>
</svg>
