<svg width="72" height="72" viewBox="0 0 72 72" fill="none" xmlns="http://www.w3.org/2000/svg">
  <path d="M35.3752 53.3571H36.6647V50.3759C41.7696 50.0964 45 46.9954 45 42.8695C45 38.93 41.9424 36.9736 37.8744 35.7491L36.6647 35.3898V23.8374C40.2807 24.0371 42.7267 26.2863 42.9926 29.5071H44.6278C44.4151 25.4745 41.2644 22.4932 36.6647 22.2936V19.2857H35.3752V22.3069C30.935 22.6263 27.678 25.541 27.678 29.5071C27.678 32.8344 29.9645 35.0304 34.2319 36.3347L35.3752 36.6808V48.8187C31.5997 48.6324 28.9542 46.5695 28.7016 43.3486H27C27.2792 47.368 30.4298 50.1762 35.3752 50.3759V53.3571ZM36.6647 48.8054V37.0667L37.4092 37.293C41.3043 38.4775 43.3648 39.9947 43.3648 42.8562C43.3648 46.2234 40.6529 48.5525 36.6647 48.8054ZM35.3752 35.0171L34.8966 34.8707C31.613 33.8858 29.3131 32.2754 29.3131 29.4539C29.3131 26.4061 31.7991 24.1302 35.3752 23.8507V35.0171Z" fill="#FFF" stroke="#FFF"/>
  <path d="M36.1516 8.35715C20.8009 8.35715 8.35718 20.8011 8.35718 36.1514C8.35718 51.5019 20.8009 63.9456 36.1516 63.9456C51.5019 63.9456 63.946 51.5019 63.946 36.1514C63.946 20.8011 51.5019 8.35715 36.1516 8.35715ZM36.1516 62.0104C21.87 62.0104 10.2925 50.433 10.2925 36.1514C10.2925 21.8699 21.87 10.2926 36.1516 10.2926C50.433 10.2926 62.0107 21.8701 62.0107 36.1514C62.0105 50.433 50.4329 62.0104 36.1516 62.0104Z" fill="#FFF" stroke="#FFF"/>
</svg>
