<svg width="30" height="30" viewBox="0 0 30 30" fill="none" xmlns="http://www.w3.org/2000/svg">
<path fill-rule="evenodd" clip-rule="evenodd" d="M7.3746 5.11496C6.95506 5.11496 6.61496 5.45075 6.61496 5.86496V13.365C6.61496 13.7792 6.95506 14.115 7.3746 14.115H16.4903C16.9099 14.115 17.25 13.7792 17.25 13.365V5.86496C17.25 5.45075 16.9099 5.11496 16.4903 5.11496H7.3746ZM8.13425 6.61496V12.615H15.7307V6.61496H8.13425Z" fill="#03B562"/>
<path fill-rule="evenodd" clip-rule="evenodd" d="M3.75 4.8075C3.75 3.39503 4.89503 2.25 6.3075 2.25H17.5575C18.97 2.25 20.115 3.39503 20.115 4.8075V16.5L20.3175 16.5L20.3991 16.4999C20.792 16.4993 21.2824 16.4985 21.695 16.6177C21.9523 16.692 22.22 16.8203 22.4574 17.0425C22.6919 17.262 22.8437 17.5236 22.9451 17.7872C23.1309 18.2702 23.1905 18.8848 23.2197 19.569C23.25 20.2771 23.25 21.2094 23.25 22.4049V22.4325C23.25 22.8449 23.3858 23.0644 23.5097 23.1831C23.6471 23.3147 23.8463 23.3943 24.0675 23.3943C24.2887 23.3943 24.4879 23.3147 24.6253 23.1831C24.7492 23.0644 24.885 22.8449 24.885 22.4325V14.9023L22.7253 13.6681C22.3958 13.4799 22.1925 13.1295 22.1925 12.75V7.28396L21 6C20.587 5.58702 20.587 4.91745 21 4.50447C21.413 4.09149 22.0826 4.09149 22.4955 4.50447L25.5653 7.80972C26.1524 8.39688 26.5831 8.91651 26.8051 9.58245C27.0012 10.1707 27.0006 10.7991 27.0001 11.4511L27 22.4325C27 23.3663 26.667 24.1564 26.0879 24.7109C25.5221 25.2524 24.7838 25.5093 24.0675 25.5093C23.3512 25.5093 22.6129 25.2524 22.0471 24.7109C21.468 24.1564 21.135 23.3663 21.135 22.4325C21.135 21.2037 21.1348 20.3168 21.1067 19.6593C21.0825 19.0939 21.0392 18.7909 20.9975 18.631C20.8836 18.6198 20.6875 18.615 20.3175 18.615L20.115 18.615V24.885H20.5575C21.1415 24.885 21.615 25.3585 21.615 25.9425C21.615 26.5266 21.1415 27 20.5575 27H3.3075C2.72346 27 2.25 26.5266 2.25 25.9425C2.25 25.3585 2.72346 24.885 3.3075 24.885H3.75V4.8075ZM24.3075 9.55092V12.1363L24.885 12.4663V11.5575C24.885 10.7475 24.8732 10.4748 24.7986 10.2513C24.7493 10.1033 24.6497 9.91882 24.3075 9.55092ZM18 4.8075V17.5435L17.9999 17.5575L18 17.5716V24.885H5.865V4.8075C5.865 4.56311 6.06311 4.365 6.3075 4.365H17.5575C17.8019 4.365 18 4.56311 18 4.8075Z" fill="#03B562"/>
</svg>
