<svg width="40" height="41" viewBox="0 0 40 41" fill="none" xmlns="http://www.w3.org/2000/svg">
<rect y="0.5" width="40" height="40" rx="6" fill="#04F182" fill-opacity="0.15"/>
<path fill-rule="evenodd" clip-rule="evenodd" d="M31.0692 18.5749C31.4398 18.8594 31.5097 19.3905 31.2252 19.7611C30.9408 20.1318 30.4097 20.2016 30.039 19.9172L29.2461 19.3086V29.2456L29.2461 29.254C29.2461 29.7213 28.8673 30.1 28.4001 30.1L22.1601 30.1C22.1517 30.1 22.1432 30.0999 22.1348 30.0997C21.6765 30.0894 21.3081 29.7147 21.3081 29.2539V23.746L18.6921 23.746V29.2539C18.6921 29.706 18.3375 30.0752 17.8913 30.0987C17.8756 30.0996 17.8598 30.1 17.8439 30.1L11.6001 30.1001C11.1798 30.1001 10.8311 29.7936 10.7653 29.3919C10.7614 29.3679 10.7584 29.3436 10.7566 29.319C10.7549 29.2975 10.7541 29.2758 10.7541 29.2539L10.7541 19.3087L9.96122 19.9172C9.59057 20.2017 9.05948 20.1318 8.77501 19.7612C8.49054 19.3905 8.56041 18.8594 8.93106 18.575L19.4694 10.487C19.5282 10.4395 19.5923 10.4009 19.6598 10.3714C19.7592 10.3276 19.8645 10.3043 19.9698 10.3006C20.1093 10.2955 20.2506 10.3247 20.3802 10.3901C20.4323 10.4162 20.482 10.4479 20.5284 10.485L31.0692 18.5749ZM20.0001 12.2125L12.4461 18.0101L12.4461 28.408L17.0001 28.408V22.954C17.0001 22.9452 17.0003 22.9364 17.0005 22.9277L17.0003 22.9206L17.0002 22.9114L17.0001 22.9C17.0001 22.4328 17.3789 22.054 17.8461 22.054L22.1541 22.054C22.4672 22.054 22.7407 22.2242 22.8869 22.4771C22.9589 22.6015 23.0001 22.7459 23.0001 22.9V28.408L27.5541 28.408V18.01L20.0001 12.2125Z" fill="#525252"/>
</svg>
