<svg width="16" height="14" viewBox="0 0 16 14" fill="none" xmlns="http://www.w3.org/2000/svg">
<path fill-rule="evenodd" clip-rule="evenodd" d="M15.3793 5.71662C15.6264 5.90627 15.673 6.26032 15.4833 6.50743C15.2937 6.75453 14.9396 6.80111 14.6925 6.61146L14.1639 6.20574V12.8304L14.1639 12.836C14.1639 13.1475 13.9114 13.4 13.5999 13.4L9.43992 13.4C9.43428 13.4 9.42865 13.4 9.42305 13.3998C9.1175 13.393 8.8719 13.1431 8.8719 12.8359V9.16403L7.12793 9.16403V12.8359C7.12793 13.1373 6.89152 13.3835 6.59402 13.3991C6.58357 13.3997 6.57304 13.4 6.56245 13.4L2.39992 13.4C2.11972 13.4 1.88725 13.1957 1.84337 12.9279C1.84075 12.912 1.8388 12.8957 1.83755 12.8793C1.83646 12.865 1.8359 12.8505 1.8359 12.8359L1.83589 6.20581L1.30732 6.61149C1.06021 6.80113 0.70616 6.75456 0.516513 6.50746C0.326867 6.26035 0.373444 5.9063 0.620545 5.71665L7.64611 0.324649C7.68531 0.293037 7.72804 0.26729 7.77303 0.247577C7.83929 0.218404 7.90948 0.202844 7.97972 0.200387C8.0727 0.197003 8.16692 0.216496 8.25332 0.260056C8.28801 0.277467 8.32115 0.298602 8.3521 0.323377L15.3793 5.71662ZM7.99994 1.47501L2.96389 5.3401L2.9639 12.272L5.99993 12.272V8.63603C5.99993 8.63016 6.00002 8.6243 6.0002 8.61847L6.00007 8.61377L5.99995 8.60758L5.9999 8.60004C5.9999 8.28855 6.25241 8.03604 6.5639 8.03603L9.4359 8.03603C9.64467 8.03603 9.82695 8.14946 9.92446 8.31805C9.97244 8.401 9.9999 8.49731 9.9999 8.60003V12.272L13.0359 12.272V5.34002L7.99994 1.47501Z" fill="white"/>
</svg>
