<svg width="14" height="14" viewBox="0 0 14 14" fill="none" xmlns="http://www.w3.org/2000/svg">
<path d="M0 2.44999C0 2.16004 0.235051 1.92499 0.525 1.92499H13.475C13.7649 1.92499 14 2.16004 14 2.44999C14 2.73994 13.7649 2.97499 13.475 2.97499H0.525C0.235051 2.97499 0 2.73994 0 2.44999Z" fill="white"/>
<path d="M0 6.99999C0 6.71004 0.235051 6.47499 0.525 6.47499H13.475C13.7649 6.47499 14 6.71004 14 6.99999C14 7.28994 13.7649 7.52499 13.475 7.52499H0.525C0.235051 7.52499 0 7.28994 0 6.99999Z" fill="white"/>
<path d="M0 11.55C0 11.26 0.235051 11.025 0.525 11.025H13.475C13.7649 11.025 14 11.26 14 11.55C14 11.8399 13.7649 12.075 13.475 12.075H0.525C0.235051 12.075 0 11.8399 0 11.55Z" fill="white"/>
</svg>
