<svg width="24" height="24" viewBox="0 0 24 24" fill="none" xmlns="http://www.w3.org/2000/svg">
<path fill-rule="evenodd" clip-rule="evenodd" d="M15.0008 9.5999C15.0008 11.2568 13.6576 12.5999 12.0008 12.5999C10.3439 12.5999 9.00078 11.2568 9.00078 9.5999C9.00078 7.94305 10.3439 6.5999 12.0008 6.5999C13.6576 6.5999 15.0008 7.94305 15.0008 9.5999ZM13.3088 9.5999C13.3088 10.3223 12.7232 10.9079 12.0008 10.9079C11.2784 10.9079 10.6928 10.3223 10.6928 9.5999C10.6928 8.87751 11.2784 8.2919 12.0008 8.2919C12.7232 8.2919 13.3088 8.87751 13.3088 9.5999Z" fill="#A3A3A3"/>
<path fill-rule="evenodd" clip-rule="evenodd" d="M19.2008 9.5999C19.2008 13.5764 13.5008 22.1999 12.0008 22.1999C10.5008 22.1999 4.80078 13.5764 4.80078 9.5999C4.80078 5.62345 8.02433 2.3999 12.0008 2.3999C15.9772 2.3999 19.2008 5.62345 19.2008 9.5999ZM17.5088 9.5999C17.5088 10.2605 17.2534 11.2994 16.72 12.6072C16.2033 13.874 15.4883 15.244 14.7174 16.5122C13.9448 17.7834 13.1441 18.9064 12.4733 19.69C12.2968 19.8961 12.1386 20.0678 12.0008 20.2067C11.863 20.0678 11.7048 19.8961 11.5283 19.69C10.8575 18.9064 10.0568 17.7834 9.28415 16.5122C8.51326 15.244 7.79822 13.874 7.28154 12.6072C6.74813 11.2994 6.49278 10.2605 6.49278 9.5999C6.49278 6.55792 8.9588 4.0919 12.0008 4.0919C15.0428 4.0919 17.5088 6.55792 17.5088 9.5999Z" fill="#A3A3A3"/>
</svg>
