<svg width="19" height="19" viewBox="0 0 19 19" fill="none" xmlns="http://www.w3.org/2000/svg">
<path fill-rule="evenodd" clip-rule="evenodd" d="M2.1498 0.325012C0.990007 0.325012 0.0498047 1.26521 0.0498047 2.42501V16.075C0.0498047 17.2348 0.990007 18.175 2.1498 18.175H16.8498C18.0096 18.175 18.9498 17.2348 18.9498 16.075V2.42501C18.9498 1.26521 18.0096 0.325012 16.8498 0.325012H2.1498ZM16.8498 1.80551H2.1498C1.80766 1.80551 1.5303 2.08287 1.5303 2.42501V4.30974H17.4693V2.42501C17.4693 2.08287 17.1919 1.80551 16.8498 1.80551ZM1.5303 16.075V5.79024H17.4693V16.075C17.4693 16.4172 17.1919 16.6945 16.8498 16.6945H2.1498C1.80766 16.6945 1.5303 16.4172 1.5303 16.075Z" fill="#525252"/>
<path d="M3.1998 7.67501C3.1998 7.38506 3.43485 7.15001 3.7248 7.15001H5.8248C6.11475 7.15001 6.3498 7.38506 6.3498 7.67501V9.77501C6.3498 10.065 6.11475 10.3 5.8248 10.3H3.7248C3.43485 10.3 3.1998 10.065 3.1998 9.77501V7.67501Z" fill="#525252"/>
<path d="M3.1998 12.4C3.1998 12.1101 3.43485 11.875 3.7248 11.875H5.8248C6.11475 11.875 6.3498 12.1101 6.3498 12.4V14.5C6.3498 14.79 6.11475 15.025 5.8248 15.025H3.7248C3.43485 15.025 3.1998 14.79 3.1998 14.5V12.4Z" fill="#525252"/>
<path d="M7.9248 7.67501C7.9248 7.38506 8.15985 7.15001 8.4498 7.15001H10.5498C10.8398 7.15001 11.0748 7.38506 11.0748 7.67501V9.77501C11.0748 10.065 10.8398 10.3 10.5498 10.3H8.4498C8.15985 10.3 7.9248 10.065 7.9248 9.77501V7.67501Z" fill="#525252"/>
<path d="M12.6498 7.67501C12.6498 7.38506 12.8849 7.15001 13.1748 7.15001H15.2748C15.5648 7.15001 15.7998 7.38506 15.7998 7.67501V9.77501C15.7998 10.065 15.5648 10.3 15.2748 10.3H13.1748C12.8849 10.3 12.6498 10.065 12.6498 9.77501V7.67501Z" fill="#525252"/>
<path d="M7.9248 12.4C7.9248 12.1101 8.15985 11.875 8.4498 11.875H10.5498C10.8398 11.875 11.0748 12.1101 11.0748 12.4V14.5C11.0748 14.79 10.8398 15.025 10.5498 15.025H8.4498C8.15985 15.025 7.9248 14.79 7.9248 14.5V12.4Z" fill="#525252"/>
<path d="M12.6498 12.4C12.6498 12.1101 12.8849 11.875 13.1748 11.875H15.2748C15.5648 11.875 15.7998 12.1101 15.7998 12.4V14.5C15.7998 14.79 15.5648 15.025 15.2748 15.025H13.1748C12.8849 15.025 12.6498 14.79 12.6498 14.5V12.4Z" fill="#525252"/>
</svg>
