<svg width="32" height="32" viewBox="0 0 32 32" fill="none" xmlns="http://www.w3.org/2000/svg">
<path d="M28 8.00016H23.7733L21.3333 5.3335H13.3333V8.00016H20.16L22.6 10.6668H28V26.6668H6.66667V14.6668H4V26.6668C4 28.1335 5.2 29.3335 6.66667 29.3335H28C29.4667 29.3335 30.6667 28.1335 30.6667 26.6668V10.6668C30.6667 9.20016 29.4667 8.00016 28 8.00016ZM10.6667 18.6668C10.6667 22.3468 13.6533 25.3335 17.3333 25.3335C21.0133 25.3335 24 22.3468 24 18.6668C24 14.9868 21.0133 12.0002 17.3333 12.0002C13.6533 12.0002 10.6667 14.9868 10.6667 18.6668ZM17.3333 14.6668C19.5333 14.6668 21.3333 16.4668 21.3333 18.6668C21.3333 20.8668 19.5333 22.6668 17.3333 22.6668C15.1333 22.6668 13.3333 20.8668 13.3333 18.6668C13.3333 16.4668 15.1333 14.6668 17.3333 14.6668ZM6.66667 8.00016H10.6667V5.3335H6.66667V1.3335H4V5.3335H0V8.00016H4V12.0002H6.66667V8.00016Z" fill="white"/>
</svg>
