<svg width="24" height="24" viewBox="0 0 24 24" fill="none" xmlns="http://www.w3.org/2000/svg">
<path fill-rule="evenodd" clip-rule="evenodd" d="M8.665 1.51512L2.7077 3.89804C2.64412 3.9215 2.58414 3.95237 2.52879 3.98962C2.45131 4.04155 2.38434 4.10511 2.32934 4.17692C2.21351 4.32814 2.15074 4.51595 2.15452 4.70881V20.3809C2.15312 20.4417 2.1583 20.5033 2.17051 20.5645C2.23677 20.9006 2.50211 21.1653 2.83861 21.2305C2.95095 21.2525 3.06871 21.2519 3.18499 21.2258C3.23526 21.2146 3.28384 21.199 3.3303 21.1793L9.00059 18.9112L14.6686 21.1784C14.7228 21.2015 14.7799 21.2192 14.8392 21.2306C14.8743 21.2375 14.9094 21.242 14.9445 21.2443C15.022 21.2495 15.1009 21.2441 15.1793 21.227C15.2317 21.2158 15.2823 21.1996 15.3307 21.1791L21.2971 18.7926C21.4666 18.7291 21.6103 18.6128 21.7082 18.4638C21.8014 18.3213 21.8507 18.1523 21.8465 17.9794V2.31197C21.848 2.2501 21.8427 2.18749 21.8301 2.1252C21.8111 2.03011 21.7761 1.94078 21.7281 1.8601C21.6631 1.75023 21.5756 1.65928 21.474 1.59085C21.2934 1.46913 21.0685 1.41871 20.8467 1.45997C20.7844 1.47141 20.7245 1.48966 20.6678 1.51393L15.0005 3.78086L9.33248 1.51364C9.27621 1.48961 9.21681 1.4715 9.15506 1.46009C9.08185 1.44641 9.00829 1.44272 8.93609 1.44829C8.91519 1.4499 8.89427 1.45229 8.87336 1.45549C8.80045 1.46647 8.73058 1.48677 8.665 1.51512ZM8.15447 3.54168L3.84652 5.26485V19.1505L8.15447 17.4273V3.54168ZM9.84647 3.54157V17.4272L14.1545 19.1504V5.26479L9.84647 3.54157ZM15.8465 5.26481V19.1505L20.1545 17.4272V3.5416L15.8465 5.26481Z" fill="#A3A3A3"/>
</svg>
