<svg width="24" height="24" viewBox="0 0 24 24" fill="none" xmlns="http://www.w3.org/2000/svg">
<path d="M22.2008 11.9998C22.2008 17.6331 17.6341 22.1998 12.0008 22.1998C6.36748 22.1998 1.80078 17.6331 1.80078 11.9998C1.80078 6.3665 6.36748 1.7998 12.0008 1.7998C17.6341 1.7998 22.2008 6.3665 22.2008 11.9998ZM3.43278 11.9998C3.43278 16.7318 7.26881 20.5678 12.0008 20.5678C16.7328 20.5678 20.5688 16.7318 20.5688 11.9998C20.5688 7.26783 16.7328 3.4318 12.0008 3.4318C7.26881 3.4318 3.43278 7.26783 3.43278 11.9998Z" fill="#A3A3A3"/>
<path d="M12.858 5.09991C12.858 4.63267 12.4792 4.25391 12.012 4.25391C11.5448 4.25391 11.166 4.63267 11.166 5.09991V11.9999C11.166 12.1146 11.1888 12.224 11.2302 12.3237C11.2715 12.4235 11.3327 12.517 11.4138 12.5981L14.5958 15.7801C14.9262 16.1105 15.4618 16.1105 15.7922 15.7801C16.1226 15.4497 16.1226 14.9141 15.7922 14.5837L12.858 11.6495V5.09991Z" fill="#A3A3A3"/>
</svg>
