<svg width="31" height="30" viewBox="0 0 31 30" fill="none" xmlns="http://www.w3.org/2000/svg">
<path fill-rule="evenodd" clip-rule="evenodd" d="M22.1079 0.129565C22.1815 0.156108 22.2534 0.191301 22.322 0.235442L27.556 3.60016C27.6372 3.65019 27.7121 3.71155 27.7783 3.78346C27.8436 3.85429 27.898 3.93284 27.9409 4.01653L30.182 8.19241C30.2936 8.4004 30.3285 8.62903 30.2966 8.84589C30.3039 8.8962 30.3077 8.94766 30.3077 9L30.3077 16.1875L30.3077 16.1925C30.3077 16.448 30.2171 16.6823 30.0662 16.8651C29.8723 17.1002 29.5787 17.25 29.2502 17.25L29.2401 17.25L17.2606 17.25L17.2502 17.25L17.2398 17.25L12.0002 17.2499C11.948 17.2499 11.8968 17.2462 11.8466 17.2389C11.7964 17.2462 11.745 17.25 11.6927 17.25C11.1086 17.25 10.6352 16.7765 10.6352 16.1925L10.6352 10.0575L7.36523 10.0575L7.36522 16.1925C7.36522 16.7765 6.89176 17.25 6.30772 17.25C6.25544 17.25 6.20404 17.2462 6.15379 17.2389C6.10365 17.2462 6.05237 17.2499 6.00021 17.2499L1.12521 17.25C1.11414 17.25 1.1031 17.2498 1.09211 17.2495C1.08069 17.2498 1.06923 17.25 1.05772 17.25C0.473681 17.25 0.000222583 16.7765 0.000223528 16.1925L0.000235243 9C0.000235328 8.94772 0.00402873 8.89633 0.0113552 8.84608C-0.020663 8.62917 0.0142606 8.40045 0.125915 8.19241L2.36698 4.01658C2.41018 3.93232 2.465 3.85328 2.53089 3.78208C2.5967 3.71077 2.67121 3.64988 2.75184 3.60018L7.98587 0.235442C8.0034 0.224171 8.02114 0.213484 8.03907 0.203375C8.21391 0.0754933 8.42949 0 8.66271 0H21.6002C21.7842 0 21.9572 0.0469678 22.1079 0.129565ZM5.25023 15.135L2.11523 15.135L2.11524 9C2.11524 8.9865 2.11498 8.97305 2.11448 8.95967L4.10997 5.24142L8.97329 2.115H9.3346L14.1979 5.24142L16.1935 8.95976C16.193 8.9731 16.1927 8.98651 16.1927 8.99997L16.1927 15.1349L12.7502 15.1349L12.7502 9C12.7502 8.41596 12.2767 7.9425 11.6927 7.9425C11.6815 7.9425 11.6704 7.94267 11.6594 7.94302C11.648 7.94266 11.6366 7.94247 11.6252 7.94247L6.37521 7.94248C6.3638 7.94248 6.35243 7.94266 6.34111 7.94302C6.33003 7.94267 6.3189 7.9425 6.30774 7.9425C5.7237 7.9425 5.25024 8.41596 5.25024 9L5.25023 15.135ZM13.2458 2.115L15.3107 3.44247L23.3996 3.44248L21.3346 2.115L13.2458 2.115ZM27.6475 7.94248L18.0478 7.94247L16.7679 5.55748L26.3675 5.55749L27.6475 7.94248ZM28.1927 10.0575L18.3077 10.0575L18.3077 15.1349L28.1927 15.135L28.1927 10.0575Z" fill="#03B562"/>
<path fill-rule="evenodd" clip-rule="evenodd" d="M2.69336 21.48C2.69293 21.4676 2.69271 21.4551 2.69271 21.4425L2.6927 19.5093L2.69266 19.5C2.69266 18.916 3.16612 18.4425 3.75016 18.4425H7.47718C7.52841 18.4415 7.57951 18.4441 7.63008 18.4504C7.96667 18.4917 8.25437 18.691 8.4166 18.972L10.3653 22.2198C10.3888 22.2253 10.4121 22.2316 10.4351 22.2387L15.0755 22.5702C15.6581 22.6118 16.0966 23.1178 16.055 23.7003C16.0523 23.7382 16.0476 23.7755 16.0411 23.8121C16.052 23.8731 16.0577 23.9359 16.0577 24L16.0577 25.9425C16.0577 25.9662 16.0569 25.9897 16.0554 26.013C16.556 26.4256 16.8752 27.0505 16.8752 27.75C16.8752 28.9926 15.8678 30 14.6252 30C13.7648 30 13.0172 29.5171 12.6387 28.8075H8.03263C7.92886 28.8075 7.82858 28.7926 7.73383 28.7647C7.19037 28.7094 6.78402 28.2332 6.81986 27.6836C6.91982 26.1509 6.5093 25.2016 6.02895 24.7213C5.39012 24.0824 4.50926 23.52 3.37519 23.52H1.87519C1.31186 23.52 0.855194 23.0633 0.855194 22.5C0.855194 21.9367 1.31186 21.48 1.87519 21.48H2.69336ZM4.78388 21.6668C5.71001 21.9187 6.46774 22.3939 7.05489 22.8939L8.14724 22.6339L6.90143 20.5575H4.8077L4.80771 21.4425C4.80771 21.5195 4.79949 21.5945 4.78388 21.6668ZM8.42593 24.7416C8.66269 25.3204 8.80808 25.9764 8.85658 26.6925H12.6387C12.9125 26.1792 13.3795 25.7844 13.9427 25.6054L13.9427 24.6096L10.1255 24.337L8.42593 24.7416ZM15.2252 27.75C15.2252 28.0814 14.9566 28.35 14.6252 28.35C14.2938 28.35 14.0252 28.0814 14.0252 27.75C14.0252 27.4186 14.2938 27.15 14.6252 27.15C14.9566 27.15 15.2252 27.4186 15.2252 27.75Z" fill="#03B562"/>
<path fill-rule="evenodd" clip-rule="evenodd" d="M3.37518 30C5.03204 30 6.37518 28.6569 6.37518 27C6.37518 25.3431 5.03204 24 3.37518 24C1.71833 24 0.375183 25.3431 0.375183 27C0.375183 28.6569 1.71833 30 3.37518 30ZM3.37518 27.885C3.86396 27.885 4.26018 27.4888 4.26018 27C4.26018 26.5112 3.86396 26.115 3.37518 26.115C2.88641 26.115 2.49018 26.5112 2.49018 27C2.49018 27.4888 2.88641 27.885 3.37518 27.885Z" fill="#03B562"/>
</svg>
