<svg width="22" height="22" viewBox="0 0 22 22" fill="none" xmlns="http://www.w3.org/2000/svg">
<path fill-rule="evenodd" clip-rule="evenodd" d="M13.401 5.5998C13.7776 5.09841 14.0008 4.47517 14.0008 3.7998C14.0008 2.14295 12.6576 0.799805 11.0008 0.799805C9.34393 0.799805 8.00078 2.14295 8.00078 3.7998C8.00078 4.47517 8.22395 5.09841 8.60056 5.5998H5.27847C4.12774 5.5998 3.13896 6.41656 2.92165 7.54657L0.844728 18.3466C0.815367 18.4993 0.801102 18.6508 0.800787 18.7998C0.798044 20.0954 1.84976 21.1998 3.20154 21.1998H18.8C20.1518 21.1998 21.2035 20.0954 21.2008 18.7998C21.2005 18.6508 21.1862 18.4993 21.1568 18.3466L19.0799 7.54657C18.8626 6.41655 17.8738 5.5998 16.7231 5.5998H13.401ZM12.3088 3.7998C12.3088 4.52219 11.7232 5.10781 11.0008 5.10781C10.2784 5.10781 9.69278 4.52219 9.69278 3.7998C9.69278 3.07742 10.2784 2.4918 11.0008 2.4918C11.7232 2.4918 12.3088 3.07742 12.3088 3.7998ZM5.27847 7.2918H16.7231C17.0626 7.2918 17.3543 7.53275 17.4184 7.8661L19.4953 18.6661C19.5046 18.7144 19.5087 18.7602 19.5088 18.8034C19.5096 19.1836 19.1955 19.5078 18.8 19.5078H3.20154C2.80603 19.5078 2.49198 19.1836 2.49278 18.8034C2.49287 18.7602 2.49699 18.7144 2.50628 18.6661L4.58321 7.8661C4.64731 7.53275 4.93901 7.2918 5.27847 7.2918Z" fill="#A3A3A3"/>
<path d="M13.4584 15.9641C13.5914 16.0914 13.6579 16.2356 13.6579 16.3965C13.6579 16.5506 13.5981 16.6881 13.4783 16.8087C13.3653 16.9227 13.2289 16.9797 13.0693 16.9797C12.903 16.9797 12.75 16.9093 12.6103 16.7685L9.28786 13.6311V16.3462C9.28786 16.5406 9.22799 16.6981 9.10826 16.8188C8.99519 16.9395 8.83888 16.9998 8.63933 16.9998C8.44644 16.9998 8.29012 16.9395 8.1704 16.8188C8.05732 16.6981 8.00078 16.5406 8.00078 16.3462V10.4434C8.00078 10.249 8.05732 10.0948 8.1704 9.98081C8.29012 9.86014 8.44644 9.7998 8.63933 9.7998C8.83888 9.7998 8.99519 9.86014 9.10826 9.98081C9.22799 10.0948 9.28786 10.249 9.28786 10.4434V13.0277L12.5006 9.99087C12.6203 9.8702 12.7566 9.80986 12.9096 9.80986C13.0626 9.80986 13.1956 9.8702 13.3087 9.99087C13.4284 10.1048 13.4883 10.2389 13.4883 10.3931C13.4883 10.5473 13.4218 10.6881 13.2888 10.8154L10.6049 13.2892L13.4584 15.9641Z" fill="#A3A3A3"/>
</svg>
